SplineFontDB: 3.0
FontName: AnkaCoder-C75-i
FullName: Anka/Coder Narrow Italic
FamilyName: Anka/Coder Narrow
Weight: Book
Copyright: Copyright (c) 2010, Andrey Makarov (makarov@bmstu.ru, mka-at-mailru@mail.ru),\nwith Reserved Font Name Anka/Coder Narrow.\n---------------------------------\nThe Anka/* are members of Anna Shugol name font family; March 2010
Version: 001.100
ItalicAngle: -12
UnderlinePosition: -292
UnderlineWidth: 150
Ascent: 1638
Descent: 410
LayerCount: 2
Layer: 0 0 "Back"  1
Layer: 1 0 "Fore"  0
NeedsXUIDChange: 1
XUID: [1021 77 1780377344 2320452]
UseXUID: 1
BaseHoriz: 0
FSType: 8
OS2Version: 1
OS2_WeightWidthSlopeOnly: 0
OS2_UseTypoMetrics: 1
CreationTime: 1260467214
ModificationTime: 1351166518
PfmFamily: 49
TTFWeight: 400
TTFWidth: 3
LineGap: 0
VLineGap: 0
Panose: 2 11 5 9 2 5 2 2 2 4
OS2TypoAscent: 0
OS2TypoAOffset: 1
OS2TypoDescent: 0
OS2TypoDOffset: 1
OS2TypoLinegap: 0
OS2WinAscent: 0
OS2WinAOffset: 1
OS2WinDescent: 0
OS2WinDOffset: 1
HheadAscent: 0
HheadAOffset: 1
HheadDescent: 0
HheadDOffset: 1
OS2SubXSize: 553
OS2SubYSize: 1229
OS2SubXOff: 0
OS2SubYOff: 283
OS2SupXSize: 553
OS2SupYSize: 1229
OS2SupXOff: 0
OS2SupYOff: 977
OS2StrikeYSize: 102
OS2StrikeYPos: 530
OS2FamilyClass: 1285
OS2Vendor: 'AVM1'
OS2CodePages: 40000097.cfd60000
OS2UnicodeRanges: 800002ef.000079eb.00000000.00000000
MacStyle: 2
DEI: 91125
ShortTable: maxp 16
  0
  0
  0
  0
  0
  0
  0
  2
  1
  0
  9
  0
  256
  0
  0
  0
EndShort
TtTable: prep
PUSHW_1
 511
SCANCTRL
SVTCA[y-axis]
MPPEM
PUSHB_1
 8
LT
IF
PUSHB_2
 1
 1
INSTCTRL
EIF
PUSHB_2
 70
 6
CALL
IF
POP
PUSHB_1
 16
EIF
MPPEM
PUSHB_1
 20
GT
IF
POP
PUSHB_1
 128
EIF
SCVTCI
PUSHB_1
 6
CALL
NOT
IF
EIF
EndTTInstrs
TtTable: fpgm
PUSHB_1
 0
FDEF
PUSHB_1
 0
SZP0
MPPEM
PUSHB_1
 42
LT
IF
PUSHB_1
 74
SROUND
EIF
PUSHB_1
 0
SWAP
MIAP[rnd]
RTG
PUSHB_1
 6
CALL
IF
RTDG
EIF
MPPEM
PUSHB_1
 42
LT
IF
RDTG
EIF
DUP
MDRP[rp0,rnd,grey]
PUSHB_1
 1
SZP0
MDAP[no-rnd]
RTG
ENDF
PUSHB_1
 1
FDEF
DUP
DUP
MDRP[rp0,min,white]
MDAP[rnd]
PUSHB_1
 7
CALL

StartChar: exclam
Encoding: 33 33 1
Width: 922
VWidth: 1708
GlyphClass: 2
Flags: W
HStem: -17 283<264.064 477.186> 1398 20G<617.5 672.5>
VStem: 221 299<26.0334 223.625> 514 228<1235.55 1385.03>
LayerCount: 2
Fore
SplineSet
520 125 m 3xe0
 520 43 449 -17 370 -17 c 3
 293 -17 221 44 221 125 c 3
 221 200 286 266 370 266 c 3
 448 266 520 209 520 125 c 3xe0
646 1418 m 3
 699 1418 742 1394 742 1333 c 3
 742 1320 740 1306 736 1290 c 2
 514 424 l 1
 351 424 l 1
 514 1291 l 2xd0
 532 1388 589 1418 646 1418 c 3
EndSplineSet
EndChar

StartChar: quotedbl
Encoding: 34 34 2
Width: 922
VWidth: 1708
GlyphClass: 2
Flags: W
HStem: 972 491
LayerCount: 2
Fore
SplineSet
283 1008 m 2
 261 983 236 972 214 972 c 3
 178 972 149 1000 149 1041 c 3
 149 1057 153 1074 162 1092 c 2
 305 1387 l 2
 331 1440 373 1463 415 1463 c 3
 480 1463 545 1408 545 1339 c 3
 545 1310 533 1279 504 1248 c 2
 283 1008 l 2
751 1008 m 2
 729 983 704 972 682 972 c 3
 646 972 617 1000 617 1041 c 3
 617 1057 621 1074 630 1092 c 2
 773 1387 l 2
 799 1440 841 1463 883 1463 c 3
 948 1463 1013 1408 1013 1339 c 3
 1013 1310 1001 1279 972 1248 c 2
 751 1008 l 2
EndSplineSet
EndChar

StartChar: numbersign
Encoding: 35 35 3
Width: 922
VWidth: 1708
GlyphClass: 2
Flags: W
HStem: 0 21G<50 207.457 420 577.457> 341 150<27 126 312 496 682 786> 898 150<150 249 435 619 805 909>
LayerCount: 2
Fore
SplineSet
312 491 m 1
 529 491 l 1
 619 898 l 1
 402 898 l 1
 312 491 l 1
203 0 m 1
 50 0 l 1
 126 341 l 1
 -6 341 l 1
 27 491 l 1
 159 491 l 1
 249 898 l 1
 117 898 l 1
 150 1048 l 1
 282 1048 l 1
 349 1350 l 1
 502 1350 l 1
 435 1048 l 1
 652 1048 l 1
 719 1350 l 1
 872 1350 l 1
 805 1048 l 1
 942 1048 l 1
 909 898 l 1
 772 898 l 1
 682 491 l 1
 819 491 l 1
 786 341 l 1
 649 341 l 1
 573 0 l 1
 420 0 l 1
 496 341 l 1
 279 341 l 1
 203 0 l 1
EndSplineSet
Validated: 3073
EndChar

StartChar: dollar
Encoding: 36 36 4
Width: 922
VWidth: 2334
GlyphClass: 2
Flags: W
HStem: 1265 157<447.221 541 726 787.02>
VStem: 23 150<190.93 308> 224 150<922.693 1189.23> 660 150<279.936 620.345> 807 150<1182.66 1241.85>
LayerCount: 2
Fore
SplineSet
462 895 m 1xe0
 541 1265 l 1
 466 1247 404 1204 385 1117 c 2
 379 1086 l 2
 376 1075 374 1060 374 1047 c 3
 374 982 406 927 426 915 c 2
 462 895 l 1xe0
565 663 m 1
 453 141 l 1
 546 176 628 263 647 352 c 2
 653 383 l 2
 657 402 660 427 660 452 c 3xf0
 660 519 638 622 586 651 c 2
 565 663 l 1
403 -93 m 1
 250 -93 l 1
 267 -13 l 1
 124 27 23 165 23 308 c 1
 173 308 l 1
 173 233 226 159 299 134 c 1
 429 740 l 1
 350 785 l 2
 287 821 224 934 224 1047 c 3
 224 1075 227 1093 233 1118 c 2
 239 1147 l 2
 276 1323 416 1406 575 1422 c 1
 589 1491 l 1
 742 1491 l 1
 726 1417 l 1
 850 1393 944 1316 957 1184 c 1
 807 1170 l 1xe8
 801 1227 759 1260 695 1271 c 1
 598 817 l 1
 660 781 l 1
 762 724 810 588 810 452 c 3
 810 417 806 383 799 351 c 2
 793 322 l 2
 756 146 588 2 418 -22 c 1
 403 -93 l 1
EndSplineSet
Validated: 3073
EndChar

StartChar: percent
Encoding: 37 37 5
Width: 922
VWidth: 1708
GlyphClass: 2
Flags: W
HStem: 0 149<535.23 675.715> 375 150<535.834 678.147> 882 150<314.14 450.715> 1258 150<310.834 453.147>
VStem: 148 150<1042.75 1246.2> 373 150<160.293 363.195> 468 150<1045.05 1245.38> 693 150<162.125 362.379>
LayerCount: 2
Fore
SplineSet
523 262 m 3xfd
 523 186 553 149 608 149 c 27
 663 149 693 207 693 262 c 27
 693 317 669 375 609 375 c 3
 540 375 523 317 523 262 c 3xfd
843 262 m 27
 843 124 746 0 608 0 c 27
 470 0 373 78 373 262 c 3
 373 400 471 525 609 525 c 3
 770 525 843 399 843 262 c 27
298 1145 m 3
 298 1077 328 1032 383 1032 c 27
 438 1032 468 1090 468 1145 c 27xfb
 468 1200 444 1258 384 1258 c 3
 315 1258 298 1200 298 1145 c 3
618 1145 m 27
 618 1007 521 882 383 882 c 27
 245 882 148 987 148 1145 c 3
 148 1283 246 1408 384 1408 c 3
 545 1408 618 1282 618 1145 c 27
944 1372 m 1
 1060 1278 l 1
 54 29 l 1
 -62 123 l 1
 944 1372 l 1
EndSplineSet
Validated: 3073
EndChar

StartChar: ampersand
Encoding: 38 38 6
Width: 922
VWidth: 2334
GlyphClass: 2
Flags: W
HStem: -25 150<196.17 484.2> 1275 150<522.375 723.566>
VStem: 13 150<162.455 427.603> 312 150<909.147 1214.3> 731 150<1093.06 1266.93>
LayerCount: 2
Fore
SplineSet
499 908 m 1
 609 998 l 2
 650 1030 708 1086 714 1114 c 2
 727 1173 l 2
 730 1186 731 1198 731 1209 c 3
 731 1260 681 1275 646 1275 c 2
 627 1275 l 2
 544 1275 495 1225 478 1147 c 2
 474 1126 l 2
 471 1112 462 1061 462 1047 c 3
 462 996 478 956 499 908 c 1
610 77 m 1
 538 13 448 -25 347 -25 c 2
 329 -25 l 2
 148 -25 13 86 13 252 c 3
 13 271 16 313 25 351 c 2
 32 382 l 2
 61 521 159 630 242 698 c 2
 378 809 l 1
 346 883 312 948 312 1047 c 3
 312 1069 319 1122 326 1154 c 2
 330 1177 l 2
 363 1331 478 1425 627 1425 c 2
 646 1425 l 2
 720 1425 881 1399 881 1209 c 3
 881 1186 878 1164 873 1141 c 2
 860 1082 l 2
 847 1025 799 958 703 880 c 2
 553 758 l 1
 661 417 l 1
 780 627 l 1
 910 553 l 1
 723 221 l 1
 782 33 l 1
 638 -13 l 1
 610 77 l 1
558 242 m 1
 428 656 l 1
 334 580 l 2
 260 520 195 433 178 352 c 2
 173 323 l 2
 168 294 163 259 163 252 c 3
 163 150 263 125 329 125 c 2
 347 125 l 2
 429 125 500 164 558 242 c 1
EndSplineSet
Validated: 3073
EndChar

StartChar: quotesingle
Encoding: 39 39 7
Width: 922
VWidth: 1708
GlyphClass: 2
Flags: W
HStem: 972 491
VStem: 413 396
LayerCount: 2
Fore
SplineSet
547 1008 m 2
 525 983 500 972 478 972 c 3
 442 972 413 1000 413 1041 c 3
 413 1057 417 1074 426 1092 c 2
 569 1387 l 2
 595 1440 637 1463 679 1463 c 3
 744 1463 809 1408 809 1339 c 3
 809 1310 797 1279 768 1248 c 2
 547 1008 l 2
EndSplineSet
EndChar

StartChar: parenleft
Encoding: 40 40 8
Width: 922
VWidth: 1708
GlyphClass: 2
Flags: W
VStem: 174 150<245.404 786.541>
LayerCount: 2
Fore
SplineSet
865 1418 m 1
 388 1096 324 712 324 503 c 3
 324 226 453 61 543 -26 c 1
 439 -134 l 1
 326 -25 174 177 174 503 c 3
 174 732 242 1178 781 1542 c 1
 865 1418 l 1
EndSplineSet
Validated: 3073
EndChar

StartChar: parenright
Encoding: 41 41 9
Width: 922
VWidth: 1708
GlyphClass: 2
Flags: W
VStem: 662 150<665.667 1162.11>
LayerCount: 2
Fore
SplineSet
111 -18 m 1
 385 167 662 549 662 927 c 3
 662 1126 582 1285 434 1425 c 1
 536 1535 l 1
 706 1375 812 1178 812 927 c 3
 812 499 513 73 195 -142 c 1
 111 -18 l 1
EndSplineSet
Validated: 3073
EndChar

StartChar: asterisk
Encoding: 42 42 10
Width: 922
VWidth: 1708
GlyphClass: 2
Flags: W
HStem: 677 143<91.0938 129 882 923.625>
VStem: 488 149<947.849 1067.53>
LayerCount: 2
Fore
SplineSet
695 339 m 2
 701 328 703 316 703 305 c 3
 703 266 672 230 628 230 c 3
 601 230 574 245 561 271 c 2
 459 471 l 1
 254 254 l 2
 239 238 219 230 199 230 c 3
 159 230 124 261 124 305 c 3
 124 323 131 342 144 356 c 2
 351 575 l 1
 129 677 l 2
 101 689 85 717 85 745 c 3
 85 789 120 820 160 820 c 3
 170 820 181 818 191 813 c 2
 423 707 l 1
 488 1016 l 2
 496 1051 526 1075 560 1075 c 3
 603 1075 637 1041 637 1000 c 3
 637 995 636 989 635 984 c 2
 579 719 l 1
 828 815 l 2
 837 818 846 820 855 820 c 3
 893 820 930 790 930 745 c 3
 930 715 912 689 882 677 c 2
 582 560 l 1
 695 339 l 2
EndSplineSet
Validated: 3073
EndChar

StartChar: plus
Encoding: 43 43 11
Width: 922
VWidth: 1708
GlyphClass: 2
Flags: W
HStem: 525 150<83 385 569 871>
LayerCount: 2
Fore
SplineSet
307 157 m 1
 385 525 l 1
 51 525 l 1
 83 675 l 1
 417 675 l 1
 488 1011 l 1
 641 1011 l 1
 569 675 l 1
 903 675 l 1
 871 525 l 1
 538 525 l 1
 459 157 l 1
 307 157 l 1
EndSplineSet
Validated: 3073
EndChar

StartChar: comma
Encoding: 44 44 12
Width: 922
VWidth: 1947
GlyphClass: 2
Flags: W
HStem: -278 57<242 276.484>
VStem: 411 196<-101.848 104>
LayerCount: 2
Fore
SplineSet
242 -278 m 1
 239 -221 l 1
 298 -213 411 -169 411 -96 c 3
 411 -65 408 -50 389 -37 c 0
 369 -23 314 27 314 65 c 3
 314 141 373 210 460 210 c 3
 545 210 607 143 607 65 c 3
 607 -33 537 -278 277 -278 c 3
 266 -278 254 -279 242 -278 c 1
EndSplineSet
EndChar

StartChar: hyphen
Encoding: 45 45 13
Width: 922
VWidth: 1708
GlyphClass: 2
Flags: W
HStem: 525 150<50 872>
LayerCount: 2
Fore
SplineSet
872 675 m 1
 872 525 l 1
 50 525 l 1
 50 675 l 1
 872 675 l 1
EndSplineSet
Validated: 3073
EndChar

StartChar: period
Encoding: 46 46 14
Width: 922
VWidth: 1708
GlyphClass: 2
Flags: W
HStem: -86 44<471 478 481 487 490 495 497 502 506 509.397> -28 6<474 479> -20 2<475 477> -16 2<474 477>
VStem: 449 4<-22 -16 -14 -12> 459 2<-22 -14> 463 2<-22 -14> 467 2<-22 -14> 471 2<-20 -18> 473 8<-34 -30> 475 2<-20 -18> 479 2<-40 -36 -30 -28> 487 2<-40 -34> 491 2<-40 -32> 495 2<-40 -34> 499 2<-40 -34> 503 2<-40 -34> 507 2<-40 -34> 511 2<-40 -34>
LayerCount: 2
Fore
SplineSet
517 -40 m 25xff8fe0
 515 -40 l 25
 515 -28 l 25
 513 -28 l 25
 513 -42 l 25
 517 -42 l 25
 517 -40 l 25xff8fe0
509 -40 m 9
 507 -40 l 17
 507 -34 l 9
 509 -34 l 1
 509 -40 l 9
447 -22 m 9
 449 -22 l 25
 449 -16 l 25
 453 -16 l 25
 453 -22 l 25
 455 -22 l 25
 455 -8 l 25
 449 -8 l 17
 447 -12 l 1
 447 -22 l 9
450 -10 m 9
 453 -10 l 25
 453 -14 l 25
 449 -14 l 17
 449 -12 l 1
 450 -10 l 9
461 -14 m 25
 461 -22 l 25
 463 -22 l 17
 463 -14 l 1
 462 -12 l 9
 457 -12 l 17
 457 -22 l 9
 459 -22 l 17
 459 -14 l 9
 461 -14 l 25
469 -14 m 25
 469 -22 l 25
 471 -22 l 17
 471 -14 l 1
 470 -12 l 9
 465 -12 l 17
 465 -22 l 9
 467 -22 l 25
 467 -14 l 25
 469 -14 l 25
475 -18 m 25xffafe0
 477 -18 l 25
 477 -20 l 25
 475 -20 l 25
 475 -18 l 25xffafe0
474 -22 m 9
 479 -22 l 17
 479 -14 l 1xffbfe0
 478 -12 l 9
 473 -12 l 25
 473 -14 l 25
 477 -14 l 25
 477 -16 l 25
 474 -16 l 17
 473 -18 l 1
 473 -20 l 1
 474 -22 l 9
485 -34 m 25
 485 -42 l 25
 487 -42 l 17
 487 -34 l 1
 486 -32 l 1
 483 -32 l 1
 483 -28 l 1
 481 -28 l 9
 481 -42 l 25
 483 -42 l 25
 483 -34 l 25
 485 -34 l 25
478 -34 m 1
 473 -34 l 25
 473 -30 l 25
 479 -30 l 1
 479 -28 l 9
 472 -28 l 17
 471 -30 l 1
 471 -34 l 1
 472 -36 l 9
 477 -36 l 17
 477 -40 l 1
 471 -40 l 1
 471 -42 l 9
 478 -42 l 17
 479 -40 l 1
 479 -36 l 1
 478 -34 l 1
493 -40 m 25
 491 -40 l 25
 491 -32 l 25
 489 -32 l 17
 489 -40 l 1
 490 -42 l 9
 495 -42 l 25
 495 -32 l 25
 493 -32 l 25
 493 -40 l 25
499 -40 m 25
 499 -34 l 25
 501 -34 l 25
 501 -40 l 25
 499 -40 l 25
498 -32 m 17
 497 -34 l 1
 497 -40 l 1
 498 -42 l 9
 501 -42 l 25
 501 -44 l 25
 497 -44 l 25
 497 -46 l 25
 502 -46 l 17
 503 -44 l 1
 503 -32 l 9
 498 -32 l 17
506 -32 m 17
 505 -34 l 1
 505 -40 l 1
 506 -42 l 9
 510 -42 l 17
 511 -40 l 1
 511 -34 l 1
 510 -32 l 9
 506 -32 l 17
607 59 m 3
 607 -19 547 -86 460 -86 c 3
 377 -86 314 -20 314 59 c 3
 314 136 373 204 460 204 c 3
 545 204 607 138 607 59 c 3
EndSplineSet
EndChar

StartChar: slash
Encoding: 47 47 15
Width: 922
VWidth: 1708
GlyphClass: 2
Flags: W
LayerCount: 2
Fore
SplineSet
867 1463 m 1
 995 1387 l 1
 129 -63 l 1
 0 13 l 1
 867 1463 l 1
EndSplineSet
Validated: 3073
EndChar

StartChar: zero
Encoding: 48 48 16
Width: 922
VWidth: 1947
GlyphClass: 2
Flags: W
HStem: -25 150<283.269 467.361> 1275 150<529.525 705.554>
LayerCount: 2
Fore
SplineSet
256 538 m 1
 749 1100 l 1
 739 1177 712 1269 637 1275 c 2
 621 1275 l 2
 493 1275 361 1032 300 763 c 2
 279 667 l 2
 269 621 262 579 256 538 c 1
744 868 m 1
 246 300 l 1
 259 159 305 128 353 125 c 2
 369 125 l 2
 470 125 618 275 702 661 c 2
 731 797 l 2
 736 821 741 845 744 868 c 1
-68 168 m 1
 93 352 l 1
 93 463 105 568 133 699 c 2
 154 795 l 2
 212 1051 364 1425 621 1425 c 2
 637 1425 l 2
 681 1425 807 1416 870 1238 c 1
 1039 1431 l 1
 1066 1236 l 1
 904 1051 l 1
 905 1041 905 1029 905 1013 c 3
 905 959 900 873 877 765 c 2
 848 629 l 2
 751 181 561 -25 369 -25 c 2
 353 -25 l 2
 315 -25 183 -9 122 159 c 1
 -35 -20 l 1
 -68 168 l 1
EndSplineSet
Validated: 3073
EndChar

StartChar: one
Encoding: 49 49 17
Width: 922
VWidth: 1708
GlyphClass: 2
Flags: W
HStem: -25 21G<365 522.276> 1405 20G<691.696 828>
VStem: 343 485
LayerCount: 2
Fore
SplineSet
365 -25 m 1
 606 1104 l 1
 384 966 l 1
 343 1024 l 1
 710 1425 l 1
 828 1425 l 1
 518 -25 l 1
 365 -25 l 1
EndSplineSet
Validated: 3073
EndChar

StartChar: two
Encoding: 50 50 18
Width: 922
VWidth: 2334
GlyphClass: 2
Flags: W
HStem: 0 150<213 720> 1275 150<471.46 800.534>
VStem: 811 150<1017.91 1257.09>
LayerCount: 2
Fore
SplineSet
811 1192 m 3
 811 1253 785 1271 645 1275 c 2
 627 1275 l 2
 497 1275 449 1226 395 1141 c 1
 269 1221 l 1
 355 1357 452 1425 627 1425 c 2
 645 1425 l 2
 726 1425 961 1400 961 1192 c 3
 961 1169 959 1135 946 1080 c 2
 938 1040 l 2
 913 928 774 784 772 782 c 2
 341 332 l 2
 294 283 248 210 213 150 c 1
 752 150 l 1
 720 0 l 1
 8 0 l 1
 39 143 l 1
 73 210 149 348 233 436 c 2
 664 886 l 2
 722 947 783 1031 792 1072 c 2
 800 1112 l 2
 809 1151 811 1176 811 1192 c 3
EndSplineSet
Validated: 3073
EndChar

StartChar: three
Encoding: 51 51 19
Width: 922
VWidth: 2334
GlyphClass: 2
Flags: W
HStem: -25 150<229.438 503.575> 734 150<362 619.735> 1275 150<480.838 723.254>
VStem: 54 150<157.045 242> 657 150<322.846 702.368> 747 150<980.838 1255.17>
LayerCount: 2
Fore
SplineSet
747 1161 m 3xf4
 747 1235 693 1275 645 1275 c 2
 627 1275 l 2
 543 1275 452 1232 405 1152 c 1
 277 1228 l 1
 356 1360 499 1425 627 1425 c 2
 645 1425 l 2
 678 1425 897 1390 897 1161 c 3xf4
 897 1120 891 1079 882 1037 c 2
 873 996 l 2
 856 919 799 856 723 805 c 1
 773 752 807 670 807 550 c 3
 807 501 800 449 790 400 c 2
 785 380 l 2
 733 131 591 -25 370 -25 c 2
 352 -25 l 2
 202 -25 54 61 54 242 c 1
 204 242 l 1
 204 132 320 125 352 125 c 2
 370 125 l 2
 531 125 606 257 639 414 c 2
 644 434 l 2
 653 474 657 513 657 550 c 3xf8
 657 659 622 734 530 734 c 2
 362 734 l 1
 362 884 l 1
 501 884 l 2
 607 884 713 960 727 1028 c 2
 736 1069 l 2
 740 1087 747 1124 747 1161 c 3xf4
EndSplineSet
Validated: 3073
EndChar

StartChar: four
Encoding: 52 52 20
Width: 922
VWidth: 1708
GlyphClass: 2
Flags: W
HStem: 0 21G<484 640.261> 352 150<295 558 743 795> 1405 20G<793.793 940>
LayerCount: 2
Fore
SplineSet
705 1040 m 1
 295 502 l 1
 590 502 l 1
 705 1040 l 1
76 461 m 1
 809 1425 l 1
 940 1425 l 1
 743 502 l 1
 827 502 l 1
 795 352 l 1
 711 352 l 1
 636 0 l 1
 484 0 l 1
 558 352 l 1
 53 352 l 1
 76 461 l 1
EndSplineSet
Validated: 3073
EndChar

StartChar: five
Encoding: 53 53 21
Width: 922
VWidth: 2334
GlyphClass: 2
Flags: W
HStem: -25 150<188.174 498.547> 804 150<435.648 633.039> 1250 150<497 927>
VStem: 12 136<165.075 204.538> 672 150<374.998 769.972>
LayerCount: 2
Fore
SplineSet
387 909 m 1
 437 939 486 954 527 954 c 2
 545 954 l 2
 680 954 822 866 822 620 c 3
 822 571 815 520 805 471 c 2
 792 411 l 2
 739 166 599 -25 370 -25 c 2
 302 -25 l 2
 146 -25 36 60 12 196 c 1
 148 277 l 1
 158 185 198 125 302 125 c 2
 370 125 l 2
 535 125 614 296 646 443 c 2
 659 503 l 2
 668 543 672 583 672 620 c 3
 672 729 637 804 545 804 c 2
 527 804 l 2
 487 804 381 738 308 620 c 1
 176 743 l 1
 387 1400 l 1
 959 1400 l 1
 927 1250 l 1
 497 1250 l 1
 387 909 l 1
EndSplineSet
Validated: 3073
EndChar

StartChar: six
Encoding: 54 54 22
Width: 922
VWidth: 2334
GlyphClass: 2
Flags: W
HStem: -25 150<271.133 498.547> 804 150<405.948 633.039> 1275 150<505.543 786.094>
VStem: 74 150<165.182 546.874> 672 150<374.998 769.972>
LayerCount: 2
Fore
SplineSet
527 954 m 2
 545 954 l 2
 680 954 822 866 822 620 c 3
 822 571 815 520 805 471 c 2
 792 411 l 2
 739 166 599 -25 370 -25 c 2
 352 -25 l 2
 185 -25 74 120 74 318 c 3
 74 358 79 400 88 443 c 2
 204 990 l 2
 248 1194 391 1425 627 1425 c 2
 645 1425 l 2
 711 1425 903 1416 939 1248 c 1
 793 1216 l 1
 783 1257 739 1272 645 1275 c 2
 627 1275 l 2
 503 1275 390 1146 350 958 c 2
 337 899 l 1
 391 934 455 954 527 954 c 2
234 411 m 2
 227 378 224 347 224 318 c 3
 224 207 271 125 352 125 c 2
 370 125 l 2
 535 125 614 296 646 443 c 2
 659 503 l 2
 668 543 672 583 672 620 c 3
 672 729 637 804 545 804 c 2
 527 804 l 2
 402 804 294 683 248 474 c 2
 234 411 l 2
EndSplineSet
Validated: 3073
EndChar

StartChar: seven
Encoding: 55 55 23
Width: 922
VWidth: 1708
GlyphClass: 2
Flags: W
HStem: -0 21G<74 328> 1250 150<260 766>
LayerCount: 2
Fore
SplineSet
74 -0 m 1
 246 419 500 861 766 1250 c 1
 260 1250 l 1
 260 1400 l 1
 1018 1400 l 1
 1002 1326 l 1
 971 1282 l 2
 694 891 420 431 236 0 c 1
 74 -0 l 1
EndSplineSet
Validated: 3073
EndChar

StartChar: eight
Encoding: 56 56 24
Width: 922
VWidth: 2334
GlyphClass: 2
Flags: W
HStem: -25 150<243.787 497.488> 734 150<432.329 625.719> 1275 150<513.289 737.303>
VStem: 64 150<154.108 508.708> 262 150<902.928 1127.23> 656 150<340.324 706.723> 752 150<1018.12 1256.22>
LayerCount: 2
Fore
SplineSet
232 420 m 2xfc
 227 400 l 2
 218 359 214 321 214 286 c 3
 214 172 257 125 352 125 c 2
 370 125 l 2
 531 125 608 284 639 434 c 2
 644 454 l 2
 652 494 656 531 656 566 c 3
 656 687 610 734 531 734 c 2
 511 734 l 2
 344 733 263 566 232 420 c 2xfc
902 1186 m 3xfa
 902 1156 898 1126 892 1097 c 2
 883 1056 l 2
 865 976 807 876 724 809 c 1
 774 758 806 678 806 566 c 3xfc
 806 519 800 469 790 420 c 2
 785 400 l 2
 735 159 598 -25 370 -25 c 2
 352 -25 l 2
 152 -25 64 111 64 286 c 3
 64 334 71 385 81 434 c 2
 86 454 l 2
 121 620 200 758 317 830 c 1
 275 888 262 961 262 1017 c 3
 262 1042 265 1066 270 1089 c 2
 277 1129 l 2
 307 1280 460 1425 627 1425 c 2
 645 1425 l 2
 670 1424 902 1413 902 1186 c 3xfa
752 1186 m 3xfa
 752 1257 688 1272 645 1275 c 2
 627 1275 l 2
 526 1275 439 1172 425 1099 c 2
 416 1059 l 2
 413 1047 412 1032 412 1017 c 3
 412 892 489 884 507 884 c 2
 531 884 l 2
 618 884 719 1000 737 1088 c 2
 746 1129 l 2
 750 1149 752 1169 752 1186 c 3xfa
EndSplineSet
Validated: 3073
EndChar

StartChar: nine
Encoding: 57 57 25
Width: 922
VWidth: 2334
GlyphClass: 2
Flags: W
HStem: -25 150<214.931 477.42> 478 150<367.507 603.802> 1275 150<492.264 724.925>
VStem: 179 150<658.187 1039.9> 770 150<852.168 1230.1>
LayerCount: 2
Fore
SplineSet
476 478 m 2
 458 478 l 2
 264 478 179 629 179 804 c 3
 179 850 185 898 195 946 c 2
 201 974 l 2
 262 1257 402 1425 627 1425 c 2
 645 1425 l 2
 810 1425 920 1275 920 1073 c 3
 920 1031 915 987 905 942 c 2
 795 428 l 2
 759 257 615 -25 370 -25 c 2
 352 -25 l 2
 292 -23 81 -12 58 153 c 1
 204 183 l 1
 219 150 231 128 352 125 c 2
 370 125 l 2
 498 125 615 297 649 458 c 2
 664 530 l 1
 610 497 547 478 476 478 c 2
759 974 m 2
 767 1009 770 1042 770 1073 c 3
 770 1192 720 1275 645 1275 c 2
 627 1275 l 2
 492 1275 397 1175 347 942 c 2
 341 914 l 2
 333 875 329 838 329 804 c 3
 329 677 379 628 458 628 c 2
 476 628 l 2
 636 628 717 790 750 931 c 2
 759 974 l 2
EndSplineSet
Validated: 3073
EndChar

StartChar: less
Encoding: 60 60 28
Width: 922
VWidth: 1708
GlyphClass: 2
Flags: W
HStem: -21 21G<695.902 720.229>
LayerCount: 2
Fore
SplineSet
112 631 m 1
 984 1241 l 1
 938 1027 l 1
 314 590 l 1
 753 154 l 1
 716 -21 l 1
 103 589 l 1
 112 631 l 1
EndSplineSet
Validated: 3073
EndChar

StartChar: equal
Encoding: 61 61 29
Width: 922
VWidth: 1708
GlyphClass: 2
Flags: W
HStem: 325 150<23 845> 767 150<117 939>
LayerCount: 2
Fore
SplineSet
845 475 m 1
 845 325 l 1
 23 325 l 1
 23 475 l 1
 845 475 l 1
939 917 m 1
 939 767 l 1
 117 767 l 1
 117 917 l 1
 939 917 l 1
EndSplineSet
Validated: 3073
EndChar

StartChar: greater
Encoding: 62 62 30
Width: 922
VWidth: 1708
GlyphClass: 2
Flags: W
LayerCount: 2
Fore
SplineSet
238 1222 m 1
 850 612 l 1
 841 568 l 1
 -31 -43 l 1
 15 171 l 1
 640 610 l 1
 201 1048 l 1
 238 1222 l 1
EndSplineSet
Validated: 3073
EndChar

StartChar: question
Encoding: 63 63 31
Width: 922
VWidth: 1708
GlyphClass: 2
Flags: W
HStem: -68 194<268.398 432.285> 1047 21G<278.125 385> 1275 150<480.484 771.082>
VStem: 223 147<1075.88 1156.17> 253 195<-52.3284 110.08> 803 150<1006.57 1243.64>
LayerCount: 2
Fore
SplineSet
448 29 m 3xec
 448 -23 408 -68 350 -68 c 3
 295 -68 253 -24 253 29 c 3
 253 80 292 126 350 126 c 3
 407 126 448 82 448 29 c 3xec
378 496 m 2
 390 549 459 700 542 782 c 2
 696 934 l 2
 761 998 785 1043 792 1073 c 2
 800 1111 l 2
 802 1123 803 1136 803 1148 c 3
 803 1200 780 1275 645 1275 c 2
 627 1275 l 2
 480 1275 400 1187 370 1047 c 1
 223 1079 l 1xf4
 269 1296 414 1425 627 1425 c 2
 645 1425 l 2
 847 1425 953 1300 953 1148 c 3
 953 1125 950 1103 946 1081 c 2
 938 1041 l 2
 918 951 851 876 803 828 c 2
 646 674 l 2
 594 623 533 504 524 464 c 2
 507 380 l 1
 353 380 l 1
 378 496 l 2
EndSplineSet
Validated: 3073
EndChar

StartChar: at
Encoding: 64 64 32
Width: 922
VWidth: 1708
GlyphClass: 2
Flags: W
HStem: -25 150<259.98 580.691> 360 150<545.498 670.923> 925 150<623.595 788> 1275 150<490.006 773.997>
VStem: 43 150<197.405 749.748> 390 150<511.649 813.902> 821 150<1076 1228.78>
LayerCount: 2
Fore
SplineSet
540 599 m 3
 540 521 570 511 578 510 c 2
 604 510 l 2
 635 510 709 549 731 655 c 2
 788 925 l 1
 712 925 l 2
 682 925 599 918 560 740 c 2
 551 697 l 2
 544 663 540 628 540 599 c 3
374 -25 m 2
 346 -25 l 2
 224 -25 43 63 43 421 c 3
 43 510 55 610 79 725 c 2
 89 773 l 2
 152 1070 310 1425 625 1425 c 2
 645 1425 l 2
 848 1425 971 1293 971 1109 c 3
 971 1098 970 1087 968 1077 c 2
 817 338 l 1
 664 338 l 1
 672 375 l 1
 649 366 627 360 604 360 c 2
 578 360 l 2
 546 360 390 365 390 599 c 3
 390 642 396 686 405 729 c 2
 414 772 l 2
 476 1057 652 1075 712 1075 c 2
 821 1076 l 1
 821 1109 l 2
 821 1186 786 1275 645 1275 c 2
 625 1275 l 2
 444 1275 304 1064 235 743 c 2
 225 695 l 2
 203 589 193 497 193 421 c 3
 193 294 223 125 346 125 c 2
 374 125 l 2
 464 125 546 136 608 188 c 1
 704 72 l 1
 607 -9 490 -25 374 -25 c 2
EndSplineSet
Validated: 3073
EndChar

StartChar: B
Encoding: 66 66 33
Width: 922
VWidth: 1947
GlyphClass: 2
Flags: W
HStem: 0 150<180 534.922> 712 150<331 638.449> 1250 150<413 737.082>
VStem: 666 150<331.618 682.702> 745 150<970.996 1235.05>
LayerCount: 2
Fore
SplineSet
745 1180 m 3xe8
 745 1215 731 1250 590 1250 c 2
 413 1250 l 1
 331 862 l 1
 475 862 l 2
 638 862 695 911 723 1041 c 2
 731 1079 l 2
 741 1129 745 1160 745 1180 c 3xe8
627 353 m 2
 658 500 l 2
 664 528 666 552 666 573 c 0xf0
 666 687 592 712 525 712 c 2
 299 712 l 1
 180 150 l 1
 376 150 l 2
 519 150 595 206 627 353 c 2
376 0 m 2
 -4 0 l 1
 291 1400 l 1
 590 1400 l 2
 661 1400 895 1386 895 1180 c 3xe8
 895 1137 887 1094 877 1047 c 2
 869 1009 l 2
 846 902 803 829 739 782 c 1
 788 733 816 661 816 573 c 0
 816 540 812 507 804 470 c 2
 773 321 l 2
 733 133 619 0 376 0 c 2
EndSplineSet
Validated: 3073
EndChar

StartChar: C
Encoding: 67 67 34
Width: 922
VWidth: 1947
GlyphClass: 2
Flags: W
HStem: -25 150<281.449 473.312> 1275 150<529.277 708.184>
VStem: 93 150<160.033 709.844> 753 150<1087.85 1227.5>
LayerCount: 2
Fore
SplineSet
753 1077 m 1
 740 1230 689 1271 637 1275 c 2
 621 1275 l 2
 492 1275 356 1032 299 763 c 2
 279 668 l 2
 255 553 243 452 243 369 c 3
 243 208 278 130 353 125 c 2
 369 125 l 2
 461 125 539 221 599 347 c 1
 735 283 l 1
 705 219 589 -25 369 -25 c 2
 353 -25 l 2
 240 -18 93 42 93 369 c 3
 93 466 108 576 133 698 c 2
 153 795 l 2
 206 1053 364 1425 621 1425 c 2
 637 1425 l 2
 753 1425 881 1354 903 1089 c 1
 753 1077 l 1
EndSplineSet
Validated: 3073
EndChar

StartChar: D
Encoding: 68 68 35
Width: 922
VWidth: 1947
GlyphClass: 2
Flags: W
HStem: 0 150<180 485.621> 1250 150<413 715.404>
VStem: 759 150<723.203 1206.23>
LayerCount: 2
Fore
SplineSet
631 1250 m 2
 413 1250 l 1
 180 150 l 1
 367 150 l 2
 509 150 626 319 693 626 c 2
 739 836 l 2
 751 891 759 957 759 1020 c 3
 759 1155 725 1250 631 1250 c 2
909 1020 m 3
 909 944 899 869 885 804 c 2
 839 594 l 2
 716 34 461 0 367 0 c 2
 -4 0 l 1
 291 1400 l 1
 631 1400 l 2
 742 1400 909 1335 909 1020 c 3
EndSplineSet
Validated: 3073
EndChar

StartChar: E
Encoding: 69 69 36
Width: 922
VWidth: 1708
GlyphClass: 2
Flags: W
HStem: 0 151<181 722> 712 150<331 779> 1250 150<413 988>
LayerCount: 2
Fore
SplineSet
299 712 m 1
 181 151 l 1
 754 151 l 1
 722 0 l 1
 -5 0 l 1
 291 1400 l 1
 1019 1400 l 1
 988 1250 l 1
 413 1250 l 1
 331 862 l 1
 811 862 l 1
 779 712 l 1
 299 712 l 1
EndSplineSet
Validated: 3073
EndChar

StartChar: F
Encoding: 70 70 37
Width: 922
VWidth: 1708
GlyphClass: 2
Flags: W
HStem: 712 150<330 779> 1250 150<413 988>
LayerCount: 2
Fore
SplineSet
-20 -66 m 1
 291 1400 l 1
 1019 1400 l 1
 988 1250 l 1
 413 1250 l 1
 330 862 l 1
 811 862 l 1
 779 712 l 1
 298 712 l 1
 133 -66 l 1
 -20 -66 l 1
EndSplineSet
Validated: 3073
EndChar

StartChar: G
Encoding: 71 71 38
Width: 922
VWidth: 1947
GlyphClass: 2
Flags: W
HStem: -25 150<281.306 498.142> 542 150<513 658> 1275 150<529.525 709.457>
VStem: 93 150<160.579 707.75> 754 150<1079.04 1226.82>
LayerCount: 2
Fore
SplineSet
754 1070 m 1
 737 1244 684 1275 637 1275 c 2
 621 1275 l 2
 493 1275 361 1032 300 763 c 2
 279 667 l 2
 254 547 243 448 243 369 c 3
 243 253 266 180 298 147 c 0
 313 132 332 125 353 125 c 2
 369 125 l 2
 436 125 537 169 603 284 c 1
 658 542 l 1
 513 542 l 1
 513 692 l 1
 842 692 l 1
 745 231 l 1
 631 23 464 -25 369 -25 c 2
 353 -25 l 2
 288 -25 232 -1 191 41 c 0
 106 127 93 235 93 369 c 27
 93 499 107 577 133 699 c 2
 154 795 l 2
 212 1051 364 1425 621 1425 c 2
 637 1425 l 2
 744 1425 876 1364 904 1080 c 1
 754 1070 l 1
EndSplineSet
Validated: 3073
EndChar

StartChar: H
Encoding: 72 72 39
Width: 922
VWidth: 1947
GlyphClass: 2
Flags: W
HStem: 0 21G<-6 151.231 552 709.243> 657 150<318 692> 1380 20G<287.743 444 845.717 1002>
LayerCount: 2
Fore
SplineSet
147 0 m 1
 -6 0 l 1
 292 1400 l 1
 444 1400 l 1
 318 807 l 1
 723 807 l 1
 850 1400 l 1
 1002 1400 l 1
 705 0 l 1
 552 0 l 1
 692 657 l 1
 286 657 l 1
 147 0 l 1
EndSplineSet
Validated: 3073
EndChar

StartChar: I
Encoding: 73 73 40
Width: 922
VWidth: 1947
GlyphClass: 2
Flags: W
HStem: 0 150<11 307 459 717> 1250 150<275 539 691 982>
LayerCount: 2
Fore
SplineSet
717 0 m 1
 -21 0 l 1
 11 150 l 1
 307 150 l 1
 539 1250 l 1
 244 1250 l 1
 275 1400 l 1
 1013 1400 l 1
 982 1250 l 1
 691 1250 l 1
 459 150 l 1
 749 150 l 1
 717 0 l 1
EndSplineSet
Validated: 3073
EndChar

StartChar: J
Encoding: 74 74 41
Width: 922
VWidth: 1947
GlyphClass: 2
Flags: W
HStem: -25 150<165.053 390.148> 1250 150<505 683 835 996>
VStem: 5 150<135.962 206>
LayerCount: 2
Fore
SplineSet
1027 1400 m 1
 996 1250 l 1
 835 1250 l 1
 638 321 l 2
 593 114 458 -25 280 -25 c 2
 262 -25 l 2
 43 -25 14 114 5 206 c 1
 155 210 l 1
 158 173 165 125 262 125 c 2
 280 125 l 2
 372 125 459 198 492 353 c 2
 683 1250 l 1
 472 1250 l 1
 505 1400 l 1
 1027 1400 l 1
EndSplineSet
Validated: 3073
EndChar

StartChar: K
Encoding: 75 75 42
Width: 922
VWidth: 1947
GlyphClass: 2
Flags: W
HStem: -0 21G<-6 151.248 569.706 731> 1380 20G<286.757 444 814.492 1026>
LayerCount: 2
Fore
SplineSet
147 0 m 1
 96 0 45 0 -6 -0 c 1
 291 1400 l 1
 444 1400 l 1
 311 770 l 1
 831 1400 l 1
 1026 1400 l 1
 522 789 l 1
 731 -0 l 1
 679 0 627 0 575 -0 c 1
 404 646 l 1
 243 452 l 1
 147 0 l 1
EndSplineSet
Validated: 3073
EndChar

StartChar: L
Encoding: 76 76 43
Width: 922
VWidth: 1947
GlyphClass: 2
Flags: W
HStem: 0 151<181 720> 1380 20G<287.757 445>
LayerCount: 2
Fore
SplineSet
720 0 m 1
 -5 0 l 1
 292 1400 l 1
 445 1400 l 1
 181 151 l 1
 752 151 l 1
 720 0 l 1
EndSplineSet
Validated: 3073
EndChar

StartChar: M
Encoding: 77 77 44
Width: 922
VWidth: 1947
GlyphClass: 2
Flags: W
HStem: 0 21G<-89 72.6895 633 786.829> 1380 20G<304.3 463.685 813.822 982>
VStem: 329 159<670 921>
LayerCount: 2
Fore
SplineSet
-89 0 m 1
 310 1400 l 1
 463 1400 l 1
 488 670 l 1
 823 1400 l 1
 982 1400 l 1
 784 0 l 1
 633 0 l 1
 760 904 l 1
 442 210 l 1
 354 210 l 1
 329 921 l 1
 67 0 l 1
 -89 0 l 1
EndSplineSet
Validated: 3073
EndChar

StartChar: N
Encoding: 78 78 45
Width: 922
VWidth: 1947
GlyphClass: 2
Flags: W
HStem: 0 21G<-6 151.25 569.65 710.229> 1380 20G<286.757 427.346 845.755 1002>
LayerCount: 2
Fore
SplineSet
147 0 m 1
 -6 0 l 1
 291 1400 l 1
 423 1400 l 1
 639 406 l 1
 850 1400 l 1
 1002 1400 l 1
 706 0 l 1
 574 0 l 1
 358 993 l 1
 147 0 l 1
EndSplineSet
Validated: 3073
EndChar

StartChar: O
Encoding: 79 79 46
Width: 922
VWidth: 1947
GlyphClass: 2
Flags: W
HStem: -25 150<282.61 467.361> 1275 150<529.525 702.492>
VStem: 93 150<159.795 707.75> 755 150<699.188 1224.02>
LayerCount: 2
Fore
SplineSet
755 1009 m 3
 755 1067 741 1275 637 1275 c 2
 621 1275 l 2
 493 1275 361 1032 300 763 c 2
 279 667 l 2
 255 552 243 452 243 369 c 3
 243 208 282 125 353 125 c 2
 369 125 l 2
 470 125 618 275 702 661 c 2
 731 797 l 2
 747 873 755 945 755 1009 c 3
905 1009 m 3
 905 933 895 851 877 765 c 2
 848 629 l 2
 751 181 561 -25 369 -25 c 2
 353 -25 l 2
 243 -25 93 42 93 369 c 3
 93 466 107 577 133 699 c 2
 154 795 l 2
 212 1051 364 1425 621 1425 c 2
 637 1425 l 2
 825 1425 905 1235 905 1009 c 3
EndSplineSet
Validated: 3073
EndChar

StartChar: P
Encoding: 80 80 47
Width: 922
VWidth: 1947
GlyphClass: 2
Flags: W
HStem: 0 21G<-6 151.268> 642 150<315 676.492> 1250 150<413 790.508>
VStem: 794 150<940.063 1243.84>
LayerCount: 2
Fore
SplineSet
315 792 m 1
 511 792 l 2
 671 792 735 856 762 987 c 2
 781 1079 l 2
 791 1126 794 1155 794 1174 c 3
 794 1241 783 1250 640 1250 c 2
 413 1250 l 1
 315 792 l 1
-6 0 m 1
 291 1400 l 1
 640 1400 l 2
 867 1400 944 1322 944 1174 c 3
 944 1149 936 1090 927 1047 c 2
 908 957 l 2
 867 764 750 642 511 642 c 2
 284 642 l 1
 147 0 l 1
 -6 0 l 1
EndSplineSet
Validated: 3073
EndChar

StartChar: Q
Encoding: 81 81 48
Width: 922
VWidth: 1947
GlyphClass: 2
Flags: W
HStem: -25 150<280.288 430.318> 1275 150<529.402 701.631>
VStem: 93 150<158.383 707.75> 755 150<699.188 1224.02>
LayerCount: 2
Fore
SplineSet
669 -122 m 1
 525 -166 l 1
 476 -3 l 1
 441 -18 402 -25 369 -25 c 2
 353 -25 l 2
 237 -25 93 42 93 369 c 3
 93 466 107 579 133 699 c 2
 154 795 l 2
 209 1048 364 1425 621 1425 c 2
 637 1425 l 2
 822 1425 905 1235 905 1009 c 3
 905 933 895 849 877 765 c 2
 848 629 l 2
 792 366 706 193 606 89 c 1
 669 -122 l 1
755 1009 m 3
 755 1067 741 1275 637 1275 c 2
 621 1275 l 2
 493 1275 357 1023 300 763 c 2
 279 667 l 2
 254 553 243 452 243 369 c 3
 243 208 279 125 353 125 c 2
 369 125 l 2
 393 125 410 131 432 143 c 1
 362 377 l 1
 506 421 l 1
 553 265 l 1
 609 351 664 482 702 661 c 2
 731 797 l 2
 746 869 755 945 755 1009 c 3
EndSplineSet
Validated: 3073
EndChar

StartChar: R
Encoding: 82 82 49
Width: 922
VWidth: 1947
GlyphClass: 2
Flags: W
HStem: 0 21G<-6 151.237 583.389 741> 642 150<315 440 593 678.048> 1250 150<413 789.219>
VStem: 794 150<942.094 1244.15>
LayerCount: 2
Fore
SplineSet
315 792 m 1
 511 792 l 2
 670 792 734 857 762 988 c 2
 781 1079 l 2
 791 1126 794 1154 794 1174 c 3
 794 1241 786 1250 640 1250 c 2
 413 1250 l 1
 315 792 l 1
640 1400 m 2
 864 1400 944 1322 944 1174 c 3
 944 1143 936 1090 927 1047 c 2
 908 958 l 2
 872 788 778 672 593 647 c 1
 741 -0 l 1
 588 -0 l 1
 440 642 l 1
 283 642 l 1
 147 0 l 1
 -6 0 l 1
 291 1400 l 1
 640 1400 l 2
EndSplineSet
Validated: 3073
EndChar

StartChar: S
Encoding: 83 83 50
Width: 922
VWidth: 2334
GlyphClass: 2
Flags: W
HStem: -25 150<244.43 516.347> 1275 150<467.696 776.464>
VStem: 23 150<191.927 308> 229 150<918.312 1185.56> 659 148<270.525 621.705> 807 150<1182.66 1240.87>
LayerCount: 2
Fore
SplineSet
352 125 m 2
 370 125 l 2
 492 125 620 215 647 352 c 2
 653 382 l 2
 657 400 659 424 659 449 c 3
 659 561 620 632 586 651 c 2
 351 785 l 2
 351 785 229 854 229 1032 c 3
 229 1056 231 1080 237 1105 c 2
 243 1135 l 2
 284 1328 436 1425 623 1425 c 2
 640 1425 l 2
 804 1425 941 1346 957 1184 c 1
 807 1170 l 1
 800 1242 735 1275 640 1275 c 2
 623 1275 l 2
 515 1275 416 1233 389 1105 c 2
 383 1075 l 2
 380 1060 379 1045 379 1032 c 3
 379 972 408 927 425 915 c 1
 659 781 l 2
 761 723 807 582 807 449 c 3
 807 415 805 382 799 352 c 2
 793 322 l 2
 749 100 555 -25 370 -25 c 2
 352 -25 l 2
 165 -25 23 138 23 308 c 1
 173 308 l 1
 173 216 252 125 352 125 c 2
EndSplineSet
Validated: 3073
EndChar

StartChar: T
Encoding: 84 84 51
Width: 922
VWidth: 1947
GlyphClass: 2
Flags: W
HStem: 0 21G<274 430.24> 1250 150<256 539 691 1006>
LayerCount: 2
Fore
SplineSet
256 1400 m 1
 1038 1400 l 1
 1006 1250 l 1
 691 1250 l 1
 426 0 l 1
 274 0 l 1
 539 1250 l 1
 224 1250 l 1
 256 1400 l 1
EndSplineSet
Validated: 3073
EndChar

StartChar: U
Encoding: 85 85 52
Width: 922
VWidth: 1947
GlyphClass: 2
Flags: W
HStem: -25 150<213.98 516.359> 1380 20G<287.74 444 845.744 1002>
VStem: 53 149<139.379 461.695> 292 152<1332.69 1400>
LayerCount: 2
Fore
SplineSet
352 -25 m 2
 118 -25 53 83 53 219 c 3
 53 262 59 307 69 353 c 2
 292 1400 l 1
 444 1400 l 1
 215 321 l 2
 206 281 202 249 202 223 c 3
 202 138 250 125 352 125 c 2
 370 125 l 2
 517 125 597 209 627 352 c 2
 850 1400 l 1
 1002 1400 l 1
 773 322 l 2
 727 104 583 -25 370 -25 c 2
 352 -25 l 2
EndSplineSet
Validated: 3073
EndChar

StartChar: V
Encoding: 86 86 53
Width: 922
VWidth: 1708
GlyphClass: 2
Flags: W
HStem: -25 21G<275.888 428.618> 1380 20G<268 418.116 862.379 1034>
VStem: 276 144<363 1400>
LayerCount: 2
Fore
SplineSet
276 -25 m 1
 268 1400 l 1
 418 1400 l 1
 424 363 l 1
 871 1400 l 1
 1034 1400 l 1
 420 -25 l 1
 276 -25 l 1
EndSplineSet
Validated: 3073
EndChar

StartChar: W
Encoding: 87 87 54
Width: 922
VWidth: 1947
GlyphClass: 2
Flags: W
HStem: 0 21G<15 182.178 532.315 691.7> 1380 20G<209.186 363 923.311 1085>
VStem: 508 159<479 730>
LayerCount: 2
Fore
SplineSet
15 0 m 1
 212 1400 l 1
 363 1400 l 1
 236 496 l 1
 554 1190 l 1
 642 1190 l 1
 667 479 l 1
 929 1400 l 1
 1085 1400 l 1
 686 0 l 1
 533 0 l 1
 508 730 l 1
 173 0 l 1
 120 0 68 0 15 0 c 1
EndSplineSet
Validated: 3073
EndChar

StartChar: X
Encoding: 88 88 55
Width: 922
VWidth: 1947
GlyphClass: 2
Flags: W
HStem: 0 21G<-26 164.41 555.064 712> 1380 20G<284 440.936 831.59 1022>
LayerCount: 2
Fore
SplineSet
-26 0 m 1
 418 715 l 1
 284 1400 l 1
 437 1400 l 1
 535 902 l 1
 844 1400 l 1
 1022 1400 l 1
 578 685 l 1
 712 -0 l 1
 661 0 610 0 559 -0 c 1
 461 498 l 1
 152 0 l 1
 93 0 33 0 -26 0 c 1
EndSplineSet
Validated: 3073
EndChar

StartChar: Y
Encoding: 89 89 56
Width: 922
VWidth: 1947
GlyphClass: 2
Flags: W
HStem: -25 21G<265 422.336> 1380 20G<279 431.36 843.161 1025>
LayerCount: 2
Fore
SplineSet
265 -25 m 1
 382 518 l 1
 279 1400 l 1
 429 1400 l 1
 505 756 l 1
 854 1400 l 1
 1025 1400 l 1
 529 487 l 1
 418 -25 l 1
 265 -25 l 1
EndSplineSet
Validated: 3073
EndChar

StartChar: Z
Encoding: 90 90 57
Width: 922
VWidth: 1947
GlyphClass: 2
Flags: W
HStem: 0 151<195 721> 1250 150<276 803>
LayerCount: 2
Fore
SplineSet
244 1250 m 1
 276 1400 l 1
 1018 1400 l 1
 985 1244 l 1
 195 151 l 1
 752 151 l 1
 721 0 l 1
 -21 0 l 1
 11 153 l 1
 803 1250 l 1
 244 1250 l 1
EndSplineSet
Validated: 3073
EndChar

StartChar: bracketleft
Encoding: 91 91 58
Width: 922
VWidth: 1947
GlyphClass: 2
Flags: W
HStem: -155 150<314 597> 1405 150<614 928>
LayerCount: 2
Fore
SplineSet
614 1405 m 1
 314 -5 l 1
 629 -5 l 1
 597 -155 l 1
 128 -155 l 1
 492 1555 l 1
 960 1555 l 1
 928 1405 l 1
 614 1405 l 1
EndSplineSet
Validated: 3073
EndChar

StartChar: backslash
Encoding: 92 92 59
Width: 922
VWidth: 1708
GlyphClass: 2
Flags: W
VStem: 299 398
LayerCount: 2
Fore
SplineSet
299 1412 m 1
 447 1438 l 1
 697 -12 l 1
 549 -38 l 1
 299 1412 l 1
EndSplineSet
Validated: 3073
EndChar

StartChar: bracketright
Encoding: 93 93 60
Width: 922
VWidth: 1947
GlyphClass: 2
Flags: W
HStem: -155 150<70 382> 1405 150<401 682>
LayerCount: 2
Fore
SplineSet
369 1405 m 1
 401 1555 l 1
 868 1555 l 1
 504 -155 l 1
 38 -155 l 1
 70 -5 l 1
 382 -5 l 1
 682 1405 l 1
 369 1405 l 1
EndSplineSet
Validated: 3073
EndChar

StartChar: asciicircum
Encoding: 94 94 61
Width: 922
VWidth: 1947
GlyphClass: 2
Flags: W
HStem: 924 501
LayerCount: 2
Fore
SplineSet
708 1425 m 1
 903 1006 l 1
 767 942 l 1
 624 1250 l 1
 333 924 l 1
 221 1024 l 1
 579 1425 l 1
 708 1425 l 1
EndSplineSet
Validated: 3073
EndChar

StartChar: underscore
Encoding: 95 95 62
Width: 922
VWidth: 1947
GlyphClass: 2
Flags: W
HStem: -167 150<-42 700>
LayerCount: 2
Fore
SplineSet
700 -17 m 1
 700 -167 l 1
 -42 -167 l 1
 -42 -17 l 1
 700 -17 l 1
EndSplineSet
Validated: 3073
EndChar

StartChar: grave
Encoding: 96 96 63
Width: 922
VWidth: 1708
GlyphClass: 2
Flags: W
HStem: 944 521
VStem: 384 405
LayerCount: 2
Fore
SplineSet
780 1050 m 2
 786 1036 789 1023 789 1010 c 3
 789 988 780 969 760 954 c 0
 747 945 733 944 717 944 c 3
 695 944 672 950 656 970 c 2
 412 1268 l 2
 393 1290 384 1318 384 1346 c 3
 384 1386 404 1425 438 1447 c 0
 455 1459 477 1465 501 1465 c 3
 546 1465 595 1444 616 1400 c 2
 780 1050 l 2
EndSplineSet
EndChar

StartChar: a
Encoding: 97 97 64
Width: 922
VWidth: 1947
GlyphClass: 2
Flags: W
HStem: -25 150<271.133 499.197> 0 21G<760.5 796.267> 899 150<418.247 680.093> 1004 20G<765.676 923>
VStem: 74 150<165.408 575.75>
LayerCount: 2
Fore
SplineSet
700 758 m 3xa8
 700 891 638 899 565 899 c 2
 547 899 l 2
 381 899 301 725 270 581 c 2
 234 411 l 2
 227 377 224 346 224 317 c 3
 224 201 275 125 352 125 c 2
 370 125 l 2
 535 125 615 296 646 443 c 2
 682 613 l 2
 697 685 700 729 700 758 c 3xa8
547 1049 m 2
 565 1049 l 2xa8
 592 1049 694 1049 762 987 c 1
 770 1024 l 1
 923 1024 l 1
 773 321 l 2
 768 298 766 274 766 250 c 3
 766 197 777 150 792 150 c 2
 824 150 l 1
 792 0 l 1
 783 0 l 2x58
 738 0 682 21 648 102 c 1
 578 23 485 -25 370 -25 c 2
 352 -25 l 2
 185 -25 74 120 74 317 c 3
 74 357 79 400 88 443 c 2
 124 613 l 2
 176 855 318 1049 547 1049 c 2
EndSplineSet
Validated: 3073
EndChar

StartChar: b
Encoding: 98 98 65
Width: 922
VWidth: 2334
GlyphClass: 2
Flags: W
HStem: -25 150<266.445 498.646> 0 21G<-6 151.262> 899 150<418.594 675.83> 1380 20G<286.757 444>
VStem: 700 150<485.438 875.306>
LayerCount: 2
Fore
SplineSet
700 758 m 3xb8
 700 879 636 899 565 899 c 2
 547 899 l 2
 387 899 303 738 273 596 c 2
 233 405 l 2
 227 373 224 344 224 317 c 3
 224 201 275 125 352 125 c 2
 370 125 l 2
 535 125 615 296 646 443 c 2
 682 613 l 2
 697 685 700 729 700 758 c 3xb8
547 1049 m 2
 565 1049 l 2
 612 1049 850 1024 850 758 c 3
 850 723 835 616 828 581 c 2
 792 411 l 2
 740 166 599 -25 370 -25 c 2
 352 -25 l 2xb8
 274 -25 208 7 160 61 c 1
 147 0 l 1
 96 0 45 0 -6 0 c 1x78
 291 1400 l 1
 444 1400 l 1
 359 997 l 1
 413 1030 476 1049 547 1049 c 2
EndSplineSet
Validated: 3073
EndChar

StartChar: c
Encoding: 99 99 66
Width: 922
VWidth: 2334
GlyphClass: 2
Flags: W
HStem: -25 150<271.133 538.846> 898 150<418.247 701.089>
VStem: 74 150<165.028 575.75>
LayerCount: 2
Fore
SplineSet
715 823 m 1
 709 857 693 898 565 898 c 2
 547 898 l 2
 381 898 301 725 270 581 c 2
 234 411 l 2
 227 378 224 347 224 318 c 3
 224 206 272 125 352 125 c 2
 370 125 l 2
 493 125 550 157 587 224 c 1
 719 152 l 1
 648 23 532 -25 370 -25 c 2
 352 -25 l 2
 185 -25 74 120 74 318 c 3
 74 358 79 400 88 443 c 2
 124 613 l 2
 176 856 318 1048 547 1048 c 2
 565 1048 l 2
 816 1048 854 901 865 837 c 1
 715 823 l 1
EndSplineSet
Validated: 3073
EndChar

StartChar: d
Encoding: 100 100 67
Width: 922
VWidth: 1947
GlyphClass: 2
Flags: W
HStem: -25 150<271.133 500.884> 899 150<418.247 677.035> 1380 20G<844.777 1002>
VStem: 74 150<165.182 575.75>
LayerCount: 2
Fore
SplineSet
700 757 m 3
 700 893 627 899 565 899 c 2
 547 899 l 2
 381 899 301 725 270 581 c 2
 234 411 l 2
 227 378 224 347 224 318 c 3
 224 207 271 125 352 125 c 2
 370 125 l 2
 535 125 615 296 646 443 c 2
 682 613 l 2
 697 683 700 728 700 757 c 3
700 -25 m 1
 547 -25 l 1
 558 26 l 1
 504 -7 441 -25 370 -25 c 2
 352 -25 l 2
 185 -25 74 120 74 318 c 3
 74 358 79 400 88 443 c 2
 124 613 l 2
 176 855 318 1049 547 1049 c 2
 565 1049 l 2
 621 1049 699 1040 762 988 c 1
 849 1400 l 1
 1002 1400 l 1
 700 -25 l 1
EndSplineSet
Validated: 3073
EndChar

StartChar: e
Encoding: 101 101 68
Width: 922
VWidth: 1947
GlyphClass: 2
Flags: W
HStem: -25 150<248.904 540.754> 486 150<282 686> 899 150<380.923 709.43>
VStem: 60 150<160.583 483.867> 716 150<687.691 887.251>
LayerCount: 2
Fore
SplineSet
565 1049 m 2
 855 1049 866 954 866 802 c 27
 866 763 861 738 854 703 c 2
 808 486 l 1
 250 486 l 1
 215 321 l 2
 211 304 210 288 210 273 c 3
 210 184 265 125 352 125 c 2
 370 125 l 2
 503 125 558 165 592 235 c 1
 728 169 l 1
 661 29 541 -25 370 -25 c 2
 352 -25 l 2
 184 -25 60 100 60 273 c 3
 60 299 63 326 69 353 c 2
 150 735 l 2
 190 925 307 1049 547 1049 c 2
 565 1049 l 2
282 636 m 1
 686 636 l 1
 708 735 l 2
 711 748 716 776 716 802 c 27
 716 872 710 899 565 899 c 2
 547 899 l 2
 388 899 324 833 296 703 c 2
 282 636 l 1
EndSplineSet
Validated: 3073
EndChar

StartChar: f
Encoding: 102 102 69
Width: 922
VWidth: 1947
GlyphClass: 2
Flags: W
HStem: -387 150<-9.505 195.73> 752 150<256 432 617 818> 1278 150<709.626 933.926>
LayerCount: 2
Fore
SplineSet
849 902 m 1
 818 752 l 1
 585 752 l 1
 392 -144 l 2
 364 -274 228 -387 96 -387 c 3
 36 -387 -60 -375 -113 -248 c 1
 27 -194 l 1
 33 -210 64 -237 96 -237 c 27
 172 -237 234 -170 246 -112 c 2
 432 752 l 1
 225 752 l 1
 256 902 l 1
 464 902 l 1
 528 1200 l 2
 557 1333 672 1428 821 1428 c 3
 980 1428 1013 1344 1032 1311 c 1
 892 1255 l 1
 887 1265 878 1278 821 1278 c 3
 744 1278 689 1235 674 1168 c 2
 617 902 l 1
 849 902 l 1
EndSplineSet
Validated: 3073
EndChar

StartChar: g
Encoding: 103 103 70
Width: 922
VWidth: 2334
GlyphClass: 2
Flags: W
HStem: -369 150<102 433.656> -25 150<271.133 499.584> 899 150<418.247 677.783> 1004 20G<765.676 923>
VStem: 74 150<165.408 575.75>
LayerCount: 2
Fore
SplineSet
700 758 m 3xe8
 700 891 636 899 565 899 c 2
 547 899 l 2
 381 899 301 725 270 581 c 2
 234 411 l 2
 227 377 224 346 224 317 c 3
 224 201 275 125 352 125 c 2
 370 125 l 2
 524 125 608 273 639 414 c 2
 684 621 l 2
 698 688 700 730 700 758 c 3xe8
547 1049 m 2
 565 1049 l 2xe8
 597 1049 693 1047 762 987 c 1
 770 1024 l 1
 923 1024 l 1xd8
 700 -16 l 2
 654 -228 500 -369 284 -369 c 2
 70 -369 l 1
 102 -219 l 1
 284 -219 l 2
 446 -219 528 -106 554 16 c 2
 556 25 l 1
 502 -7 440 -25 370 -25 c 2
 352 -25 l 2
 185 -25 74 120 74 317 c 3
 74 357 79 400 88 443 c 2
 124 613 l 2
 176 855 318 1049 547 1049 c 2
EndSplineSet
Validated: 3073
EndChar

StartChar: h
Encoding: 104 104 71
Width: 922
VWidth: 1947
GlyphClass: 2
Flags: W
HStem: 0 21G<-6 151.244 552 709.239> 899 150<447.535 702.323> 1380 20G<286.757 444>
VStem: 716 150<670.75 881.447>
LayerCount: 2
Fore
SplineSet
565 1049 m 2
 860 1049 866 939 866 802 c 3
 866 782 861 737 854 703 c 2
 705 0 l 1
 552 0 l 1
 708 735 l 2
 711 748 716 788 716 802 c 3
 716 858 709 899 565 899 c 2
 547 899 l 2
 443 899 297 707 272 589 c 2
 147 -0 l 1
 -6 0 l 1
 291 1400 l 1
 444 1400 l 1
 353 971 l 1
 412 1018 478 1049 547 1049 c 2
 565 1049 l 2
EndSplineSet
Validated: 3073
EndChar

StartChar: k
Encoding: 107 107 74
Width: 922
VWidth: 1947
GlyphClass: 2
Flags: W
HStem: 0 21G<-6 151.296 499.556 729> 1405 20G<292.747 450>
LayerCount: 2
Fore
SplineSet
147 0 m 1
 -6 0 l 1
 297 1425 l 1
 450 1425 l 1
 279 621 l 1
 310 661 343 701 378 738 c 2
 474 839 l 2
 523 890 665 992 710 1021 c 2
 800 1080 l 1
 882 954 l 1
 784 891 l 2
 742 864 626 782 584 737 c 2
 488 634 l 2
 466 610 445 585 424 559 c 1
 438 401 499 236 592 140 c 2
 729 0 l 1
 519 0 l 1
 484 36 l 2
 394 129 335 258 302 385 c 1
 249 298 205 210 176 135 c 1
 147 0 l 1
EndSplineSet
Validated: 3073
EndChar

StartChar: l
Encoding: 108 108 75
Width: 922
VWidth: 1947
GlyphClass: 2
Flags: W
HStem: 0 150<102 307 459 627> 1250 150<368 539>
VStem: 70 653
LayerCount: 2
Fore
SplineSet
336 1250 m 1
 368 1400 l 1
 723 1400 l 1
 459 150 l 1
 659 150 l 1
 627 0 l 1
 70 0 l 1
 102 150 l 1
 307 150 l 1
 539 1250 l 1
 336 1250 l 1
EndSplineSet
Validated: 3073
EndChar

StartChar: m
Encoding: 109 109 76
Width: 922
VWidth: 1947
GlyphClass: 2
Flags: W
HStem: 0 21G<-46 111.27 272 429.16 592 748.262> 899 150<332.542 446.599 652.562 771.461>
VStem: 772 151<759.293 898.111>
LayerCount: 2
Fore
SplineSet
740 1049 m 2
 882 1049 923 968 923 877 c 3
 923 849 919 820 913 793 c 2
 744 0 l 1
 592 0 l 1
 767 825 l 2
 771 842 772 855 772 865 c 3
 772 892 760 899 740 899 c 2
 730 899 l 2
 669 899 592 800 571 702 c 2
 425 0 l 1
 272 0 l 1
 444 824 l 2
 448 843 450 857 450 868 c 3
 450 892 440 899 421 899 c 2
 411 899 l 2
 359 899 282 819 262 726 c 2
 107 -0 l 1
 -46 0 l 1
 178 1050 l 1
 331 1050 l 1
 327 1031 l 1
 365 1046 381 1049 411 1049 c 2
 421 1049 l 2
 503 1049 548 1019 572 984 c 1
 646 1047 699 1049 730 1049 c 2
 740 1049 l 2
EndSplineSet
Validated: 3073
EndChar

StartChar: n
Encoding: 110 110 77
Width: 922
VWidth: 1947
GlyphClass: 2
Flags: W
HStem: 0 21G<-6 151.247 552 709.239> 899 150<449.026 708.27> 1004 20G<207.742 365>
VStem: 716 150<670.75 887.251>
LayerCount: 2
Fore
SplineSet
565 1049 m 2xd0
 852 1049 866 954 866 802 c 27
 866 763 861 737 854 703 c 2
 705 0 l 1
 552 0 l 1
 708 735 l 2
 711 748 716 776 716 802 c 27
 716 872 705 899 565 899 c 2
 547 899 l 2xd0
 445 899 300 718 274 598 c 2
 147 -0 l 1
 -6 0 l 1
 212 1024 l 1
 365 1024 l 1xb0
 354 971 l 1
 413 1018 479 1049 547 1049 c 2
 565 1049 l 2xd0
EndSplineSet
Validated: 3073
EndChar

StartChar: o
Encoding: 111 111 78
Width: 922
VWidth: 1947
GlyphClass: 2
Flags: W
HStem: -25 150<271.133 498.646> 899 150<418.247 678.93>
VStem: 74 150<165.561 463.981> 700 150<485.438 878.036>
LayerCount: 2
Fore
SplineSet
565 1049 m 2
 660 1049 850 1027 850 757 c 3
 850 687 836 615 828 581 c 2
 792 411 l 2
 740 166 599 -25 370 -25 c 2
 352 -25 l 2
 185 -25 74 120 74 318 c 3
 74 358 79 400 88 443 c 2
 124 613 l 2
 176 855 318 1049 547 1049 c 2
 565 1049 l 2
700 757 m 3
 700 893 633 899 565 899 c 2
 547 899 l 2
 381 899 301 725 270 581 c 2
 234 411 l 2
 227 378 224 347 224 318 c 3
 224 207 271 125 352 125 c 2
 370 125 l 2
 535 125 615 296 646 443 c 2
 682 613 l 2
 697 683 700 728 700 757 c 3
EndSplineSet
Validated: 3073
EndChar

StartChar: p
Encoding: 112 112 79
Width: 922
VWidth: 1947
GlyphClass: 2
Flags: W
HStem: -384 21G<-88 68.2601> -25 150<265.671 498.646> 899 150<417.111 674.512> 1004 20G<206.753 364>
VStem: 700 150<485.438 873.634>
LayerCount: 2
Fore
SplineSet
700 758 m 3xe8
 700 885 636 896 565 899 c 2
 547 899 l 2
 381 899 301 725 270 581 c 2
 234 411 l 2
 227 377 224 346 224 317 c 3
 224 201 275 125 352 125 c 2
 370 125 l 2
 535 125 615 296 646 443 c 2
 682 613 l 2
 697 685 700 729 700 758 c 3xe8
64 -384 m 1
 -88 -384 l 1
 211 1024 l 1
 364 1024 l 1xd8
 358 997 l 1
 412 1030 476 1049 547 1049 c 2
 565 1049 l 2
 609 1049 850 1038 850 758 c 3
 850 720 835 616 828 581 c 2
 792 411 l 2
 740 166 599 -25 370 -25 c 2
 352 -25 l 2
 273 -25 207 8 159 62 c 1
 64 -384 l 1
EndSplineSet
Validated: 3073
EndChar

StartChar: q
Encoding: 113 113 80
Width: 922
VWidth: 1947
GlyphClass: 2
Flags: W
HStem: -384 21G<471 627.261> -25 150<271.133 500.884> 899 150<418.247 678.232> 1004 20G<765.556 923>
VStem: 74 150<165.182 575.75>
LayerCount: 2
Fore
SplineSet
700 757 m 3xe8
 700 893 630 899 565 899 c 2
 547 899 l 2
 381 899 301 725 270 581 c 2
 234 411 l 2
 227 378 224 347 224 318 c 3
 224 207 271 125 352 125 c 2
 370 125 l 2
 535 125 615 296 646 443 c 2
 682 613 l 2
 697 683 700 728 700 757 c 3xe8
623 -384 m 1
 471 -384 l 1
 558 26 l 1
 504 -7 441 -25 370 -25 c 2
 352 -25 l 2
 185 -25 74 120 74 318 c 3
 74 358 79 400 88 443 c 2
 124 613 l 2
 176 855 318 1049 547 1049 c 2
 565 1049 l 2xe8
 618 1049 699 1040 762 988 c 1
 770 1024 l 1
 923 1024 l 1xd8
 623 -384 l 1
EndSplineSet
Validated: 3073
EndChar

StartChar: r
Encoding: 114 114 81
Width: 922
VWidth: 1947
GlyphClass: 2
Flags: W
HStem: 0 21G<-6 151.237> 899 150<506.53 739.375> 1004 20G<207.742 365>
LayerCount: 2
Fore
SplineSet
746 844 m 1xc0
 736 871 708 899 635 899 c 2
 617 899 l 2xc0
 494 899 291 679 247 472 c 2
 147 -0 l 1
 -6 0 l 1
 212 1024 l 1
 365 1024 l 1xa0
 341 912 l 1
 428 995 526 1049 617 1049 c 2
 635 1049 l 2
 822 1049 874 931 890 884 c 1
 746 844 l 1xc0
EndSplineSet
Validated: 3073
EndChar

StartChar: s
Encoding: 115 115 82
Width: 922
VWidth: 1947
GlyphClass: 2
Flags: W
HStem: -25 150<214.624 555.769> 899 150<357.732 674.449>
VStem: 27 150<166.813 260> 157 149<671.57 849.358> 614 150<211.081 395.87>
LayerCount: 2
Fore
SplineSet
565 899 m 2xd8
 547 899 l 2
 454 899 306 886 306 746 c 3xd8
 306 708 342 671 363 662 c 2
 600 555 l 2
 672 524 764 443 764 312 c 3
 764 295 763 278 759 256 c 2
 749 209 l 2
 736 149 679 -25 370 -25 c 2
 322 -25 l 2
 161 -25 27 98 27 260 c 1
 177 260 l 1xe8
 177 186 241 125 322 125 c 2
 370 125 l 2
 570 125 596 208 603 239 c 2
 611 284 l 2
 613 295 614 304 614 312 c 3
 614 375 565 406 540 417 c 2
 301 526 l 2
 228 559 157 637 157 743 c 3
 157 865 216 1049 547 1049 c 2
 565 1049 l 2
 700 1049 824 961 854 826 c 1
 708 794 l 1
 694 855 638 899 565 899 c 2xd8
EndSplineSet
Validated: 3073
EndChar

StartChar: t
Encoding: 116 116 83
Width: 922
VWidth: 1947
GlyphClass: 2
Flags: W
HStem: -25 150<368.798 560.715> 858 150<193 355 540 811> 1405 20G<471.731 629>
VStem: 216 150<131.325 266.43>
LayerCount: 2
Fore
SplineSet
457 -25 m 2
 439 -25 l 2
 332 -25 216 51 216 184 c 3
 216 198 217 213 221 232 c 2
 355 858 l 1
 161 858 l 1
 193 1008 l 1
 387 1008 l 1
 476 1425 l 1
 629 1425 l 1
 540 1008 l 1
 843 1008 l 1
 811 858 l 1
 508 858 l 1
 367 200 l 2
 366 193 366 189 366 184 c 3
 366 147 402 125 439 125 c 2
 457 125 l 2
 507 125 556 156 581 192 c 1
 705 108 l 1
 652 31 556 -25 457 -25 c 2
EndSplineSet
Validated: 3073
EndChar

StartChar: u
Encoding: 117 117 84
Width: 922
VWidth: 1947
GlyphClass: 2
Flags: W
HStem: -25 150<231.789 443.924> 0 21G<552 709.258> 1004 20G<207.744 365 765.722 923>
VStem: 57 150<145.927 487.516>
LayerCount: 2
Fore
SplineSet
215 322 m 2xb0
 209 294 207 270 207 249 c 3
 207 170 242 125 332 125 c 2
 350 125 l 2xb0
 456 125 625 348 650 463 c 2
 770 1024 l 1
 923 1024 l 1
 705 0 l 1
 552 0 l 1x70
 568 73 l 1
 501 15 425 -25 350 -25 c 2
 332 -25 l 2
 166 -25 57 78 57 249 c 3
 57 282 61 315 69 352 c 2
 212 1024 l 1
 365 1024 l 1
 215 322 l 2xb0
EndSplineSet
Validated: 3073
EndChar

StartChar: v
Encoding: 118 118 85
Width: 922
VWidth: 1947
GlyphClass: 2
Flags: W
HStem: -25 21G<295.2 418.6> 1004 20G<191 344 748.692 939>
VStem: 178 150<390.359 1023.7> 191 148<815.328 1024>
LayerCount: 2
Fore
SplineSet
339 994 m 2xd0
 331 944 328 878 328 812 c 3
 328 696 338 581 348 524 c 2
 389 305 l 1
 492 544 l 2
 552 682 658 859 745 998 c 2
 761 1024 l 1
 939 1024 l 1
 871 916 l 2
 790 787 685 614 628 482 c 2
 410 -25 l 1
 299 -25 l 1
 200 496 l 2
 189 558 178 686 178 812 c 3xe0
 178 883 181 954 191 1016 c 2
 192 1024 l 1
 344 1024 l 1
 339 994 l 2xd0
EndSplineSet
Validated: 3073
EndChar

StartChar: w
Encoding: 119 119 86
Width: 922
VWidth: 1947
GlyphClass: 2
Flags: W
HStem: 0 21G<29 165.023 560.766 689.268> 1004 20G<126.623 282 827.724 998>
VStem: 460 148<404.578 630> 565 119<0 54.4237>
LayerCount: 2
Fore
SplineSet
460 630 m 1xe0
 420 571 377 490 336 399 c 2
 156 0 l 1
 29 0 l 1
 52 433 l 2
 60 566 93 795 117 947 c 2
 130 1024 l 1
 282 1024 l 1
 265 923 l 2
 238 755 216 587 206 478 c 1
 255 593 314 687 361 751 c 2
 506 949 l 1
 603 949 l 1
 608 702 l 2xe0
 609 651 616 476 624 441 c 2
 634 399 l 1
 646 448 l 2
 693 626 745 802 812 966 c 2
 836 1024 l 1
 998 1024 l 1
 952 910 l 2
 888 752 838 584 792 410 c 2
 684 0 l 1
 565 0 l 1xd0
 478 411 l 2
 466 469 462 562 460 630 c 1xe0
EndSplineSet
Validated: 3073
EndChar

StartChar: x
Encoding: 120 120 87
Width: 922
VWidth: 1947
GlyphClass: 2
Flags: W
HStem: 0 21G<-33 196.73 545.46 709> 1004 20G<219 382.51 735.959 923>
LayerCount: 2
Fore
SplineSet
-33 0 m 1
 144 180 l 2
 198 235 293 354 393 490 c 1
 219 1024 l 1
 376 1024 l 1
 501 640 l 1
 571 739 637 840 689 926 c 2
 748 1024 l 1
 923 1024 l 1
 817 848 l 2
 751 739 655 597 558 462 c 1
 709 0 l 1
 657 0 604 0 552 -0 c 1
 449 315 l 1
 371 213 300 125 250 74 c 2
 177 0 l 1
 -33 0 l 1
EndSplineSet
Validated: 3073
EndChar

StartChar: y
Encoding: 121 121 88
Width: 922
VWidth: 1947
GlyphClass: 2
Flags: W
HStem: -378 159<85.8043 238.942> 1004 20G<217 368 779.241 952>
VStem: 217 150<519.512 1024>
LayerCount: 2
Fore
SplineSet
952 1024 m 1
 440 -143 l 2
 364 -315 260 -378 166 -378 c 3
 50 -378 -51 -284 -70 -184 c 1
 78 -156 l 1
 86 -196 114 -219 150 -219 c 3
 199 -219 262 -176 306 -77 c 2
 389 113 l 1
 287 353 217 591 217 916 c 3
 217 923 217 930 217 937 c 2
 217 1024 l 1
 368 1024 l 1
 367 937 l 2
 367 931 367 924 367 918 c 3
 367 676 409 486 474 307 c 1
 788 1024 l 1
 952 1024 l 1
EndSplineSet
Validated: 3073
EndChar

StartChar: z
Encoding: 122 122 89
Width: 922
VWidth: 1947
GlyphClass: 2
Flags: W
HStem: 0 150<221 725> 874 150<244 697>
LayerCount: 2
Fore
SplineSet
212 874 m 1
 244 1024 l 1
 943 1024 l 1
 913 886 l 1
 221 150 l 1
 757 150 l 1
 725 0 l 1
 -25 0 l 1
 5 138 l 1
 697 874 l 1
 212 874 l 1
EndSplineSet
Validated: 3073
EndChar

StartChar: braceleft
Encoding: 123 123 90
Width: 922
VWidth: 1947
GlyphClass: 2
Flags: W
HStem: -155 150<368.091 597> 689 150<157 245.375> 1405 150<667.995 929>
VStem: 191 150<19.8228 338.453> 269 150<415.536 669.254>
LayerCount: 2
Fore
SplineSet
356 746 m 1xe8
 399 689 419 615 419 541 c 3xe8
 419 510 415 478 408 446 c 2
 345 143 l 2
 342 129 341 117 341 105 c 3
 341 17 416 -5 491 -5 c 2
 629 -5 l 1
 597 -155 l 1
 491 -155 l 2
 294 -155 191 -40 191 105 c 3xf0
 191 128 194 150 199 173 c 2
 262 478 l 2
 267 499 269 521 269 541 c 3
 269 625 236 689 170 689 c 2
 125 689 l 1
 157 839 l 1
 170 839 l 2
 278 839 359 935 377 1018 c 2
 429 1258 l 2
 471 1447 643 1555 823 1555 c 2
 960 1555 l 1
 929 1405 l 1
 823 1405 l 2
 704 1405 599 1337 575 1226 c 2
 523 986 l 2
 503 893 442 802 356 746 c 1xe8
EndSplineSet
Validated: 3073
EndChar

StartChar: bar
Encoding: 124 124 91
Width: 922
VWidth: 1947
GlyphClass: 2
Flags: W
VStem: 253 487
LayerCount: 2
Fore
SplineSet
253 -78 m 1
 587 1476 l 1
 740 1476 l 1
 406 -78 l 1
 253 -78 l 1
EndSplineSet
Validated: 3073
EndChar

StartChar: braceright
Encoding: 125 125 92
Width: 922
VWidth: 1947
GlyphClass: 2
Flags: W
HStem: -155 150<-22 228.604> 623 150<653.403 762> 1405 150<309 543.902>
VStem: 489 150<787.57 1124.59> 563 150<1192.26 1380.93>
LayerCount: 2
Fore
SplineSet
413 1555 m 2xe8
 596 1555 713 1456 713 1299 c 3xe8
 713 1275 710 1252 705 1227 c 2
 645 938 l 2
 642 926 639 906 639 884 c 3
 639 795 687 773 748 773 c 2
 794 773 l 1
 762 623 l 1
 748 623 l 2
 648 623 553 505 526 380 c 2
 475 142 l 2
 435 -46 261 -155 81 -155 c 2
 -54 -155 l 1
 -22 -5 l 1
 81 -5 l 2
 201 -5 306 65 329 174 c 2
 380 412 l 2
 401 510 461 627 553 701 c 1
 500 758 492 824 489 882 c 3xf0
 489 911 493 939 499 968 c 2
 559 1257 l 2
 562 1273 563 1287 563 1299 c 3
 563 1344 543 1405 413 1405 c 2
 278 1405 l 1
 309 1555 l 1
 413 1555 l 2xe8
EndSplineSet
Validated: 3073
EndChar

StartChar: asciitilde
Encoding: 126 126 93
Width: 922
VWidth: 1947
GlyphClass: 2
Flags: W
HStem: 758 150<613.5 770.459> 912 150<322.412 485.887>
LayerCount: 2
Fore
SplineSet
413 1062 m 2
 428 1062 l 2
 470 1062 530 1042 575 993 c 2
 639 924 l 2
 649 913 664 908 665 908 c 2
 680 908 l 2
 734 908 779 949 814 1013 c 1
 946 941 l 1
 881 822 786 758 680 758 c 2
 665 758 l 2
 652 758 586 761 529 822 c 2
 460 897 l 2
 456 902 437 912 428 912 c 2
 413 912 l 2
 356 912 304 863 271 798 c 1
 137 866 l 1
 199 990 303 1062 413 1062 c 2
EndSplineSet
Validated: 3073
EndChar

StartChar: cent
Encoding: 162 162 96
Width: 922
VWidth: 1947
GlyphClass: 2
Flags: W
HStem: 898 150<418.247 551>
VStem: 74 150<163.033 575.656>
LayerCount: 2
Fore
SplineSet
270 161 m 1
 551 898 l 1
 547 898 l 2
 381 898 301 725 270 581 c 2
 234 412 l 2
 227 375 224 342 224 313 c 3
 224 265 235 200 270 161 c 1
166 -111 m 1
 213 14 l 1
 126 69 74 178 74 313 c 3
 74 354 79 397 88 442 c 2
 124 613 l 2
 176 856 318 1048 547 1048 c 2
 565 1048 l 2
 580 1048 594 1048 608 1047 c 1
 678 1229 l 1
 838 1229 l 1
 755 1011 l 1
 832 971 857 881 865 837 c 1
 715 823 l 1
 712 837 707 857 700 866 c 1
 417 127 l 1
 508 135 555 166 587 224 c 1
 719 152 l 1
 648 23 532 -25 370 -25 c 2
 359 -25 l 1
 326 -111 l 1
 166 -111 l 1
EndSplineSet
Validated: 3073
EndChar

StartChar: sterling
Encoding: 163 163 97
Width: 922
VWidth: 1947
GlyphClass: 2
Flags: W
HStem: -25 150<442.561 682.129> 50 149<295.888 407.396> 656 150<133 253 442 750> 1275 150<468.123 758.475>
VStem: 216 150<807.734 1173.2> 293 149<490.888 656>
LayerCount: 2
Fore
SplineSet
782 806 m 1x78
 750 656 l 1
 442 656 l 1
 442 613 l 2
 442 582 441 532 433 499 c 2
 423 454 l 2
 404 368 356 278 293 199 c 1
 306 199 l 2x74
 342 199 408 197 438 173 c 2
 483 137 l 2
 492 130 510 125 519 125 c 2
 550 125 l 2
 610 125 665 151 683 169 c 1
 787 61 l 1
 724 1 617 -25 550 -25 c 2
 505 -25 l 2xb4
 463 -25 424 -9 389 19 c 2
 361 41 l 2
 354 47 335 50 309 50 c 3
 242 50 126 30 61 -7 c 2
 24 -28 l 1
 -50 102 l 1
 -13 123 l 2
 100 187 249 355 277 486 c 2
 287 533 l 2
 289 542 293 572 293 613 c 2
 293 656 l 1x74
 101 656 l 1
 133 806 l 1
 253 806 l 1
 233 875 l 2
 218 928 216 986 216 1014 c 3
 216 1049 218 1072 221 1086 c 2
 230 1125 l 2
 267 1306 423 1425 627 1425 c 2
 645 1425 l 2
 759 1425 868 1375 915 1261 c 1
 777 1203 l 1
 759 1246 715 1275 645 1275 c 2
 627 1275 l 2
 493 1275 399 1204 376 1095 c 2
 369 1056 l 2
 368 1052 366 1040 366 1014 c 3
 366 1004 366 955 377 917 c 2
 409 806 l 1
 782 806 l 1x78
EndSplineSet
Validated: 3073
EndChar

StartChar: euro
Encoding: 8364 8364 98
Width: 922
VWidth: 1947
GlyphClass: 2
Flags: W
HStem: -25 150<362.449 554.312> 490 150<84 181 355 606> 832 150<188 243 448 808> 1275 150<604.943 793.1>
VStem: 174 150<159.795 490> 821 146<1196.47 1246.93>
LayerCount: 2
Fore
SplineSet
324 369 m 3
 324 208 363 125 434 125 c 2
 450 125 l 2
 542 125 620 221 680 347 c 1
 816 283 l 1
 786 219 670 -25 450 -25 c 2
 434 -25 l 2
 321 -25 174 42 174 369 c 3
 174 407 177 448 181 490 c 1
 53 490 l 1
 84 640 l 1
 202 640 l 1
 243 832 l 1
 157 832 l 1
 188 982 l 1
 288 982 l 1
 367 1202 503 1425 702 1425 c 2
 718 1425 l 2
 756 1425 912 1416 967 1200 c 1
 821 1164 l 1
 795 1266 747 1275 718 1275 c 2
 702 1275 l 2
 610 1275 516 1151 448 982 c 1
 839 982 l 1
 808 832 l 1
 398 832 l 1
 355 640 l 1
 638 640 l 1
 606 490 l 1
 332 490 l 1
 327 446 324 406 324 369 c 3
EndSplineSet
Validated: 3073
EndChar

StartChar: yen
Encoding: 165 165 99
Width: 922
VWidth: 1947
GlyphClass: 2
Flags: W
HStem: 48 150<22 283 468 728> 306 150<77 338 522 784> 1380 20G<277 429.391 841.193 1023>
LayerCount: 2
Fore
SplineSet
77 456 m 1
 369 456 l 1
 382 517 l 1
 277 1400 l 1
 427 1400 l 1
 504 756 l 1
 852 1400 l 1
 1023 1400 l 1
 529 487 l 1
 522 456 l 1
 816 456 l 1
 784 306 l 1
 491 306 l 1
 468 198 l 1
 761 198 l 1
 728 48 l 1
 436 48 l 1
 392 -160 l 1
 239 -160 l 1
 283 48 l 1
 -10 48 l 1
 22 198 l 1
 315 198 l 1
 338 306 l 1
 45 306 l 1
 77 456 l 1
EndSplineSet
Validated: 3073
EndChar

StartChar: section
Encoding: 167 167 101
Width: 922
VWidth: 1947
GlyphClass: 2
Flags: W
HStem: -151 151<269.046 477.513> 1397 150<499.072 699.594>
VStem: 144 150<567.657 832.312> 285 150<1091.98 1328.78> 539 150<66.4412 292.871> 706 150<547.722 809.664>
LayerCount: 2
Fore
SplineSet
499 893 m 2xec
 481 893 l 2
 406 893 294 834 294 742 c 2
 294 716 l 2
 294 564 394 486 484 486 c 2
 502 486 l 2
 629 486 706 558 706 676 c 2
 706 702 l 2
 706 801 590 893 499 893 c 2xec
856 702 m 2
 856 676 l 2
 856 526 774 417 631 360 c 1
 668 309 689 248 689 187 c 2
 689 164 l 2
 689 -1 536 -151 374 -151 c 2
 358 -151 l 2
 215 -151 103 -25 64 82 c 1
 206 134 l 1
 230 67 297 0 358 0 c 2
 374 0 l 2
 455 0 539 84 539 164 c 2
 539 187 l 2
 539 249 489 326 412 345 c 0
 219 393 144 512 144 716 c 2
 144 742 l 2xec
 144 885 241 963 352 1013 c 1
 309 1068 285 1136 285 1209 c 2
 285 1232 l 2
 285 1395 441 1547 599 1547 c 2
 615 1547 l 2
 729 1547 843 1456 899 1336 c 1
 763 1272 l 1
 737 1327 674 1397 615 1397 c 2
 599 1397 l 2
 519 1397 435 1307 435 1232 c 2
 435 1209 l 2xdc
 435 1140 485 1052 569 1037 c 0
 750 1005 856 860 856 702 c 2
EndSplineSet
Validated: 3073
EndChar

StartChar: copyright
Encoding: 169 169 103
Width: 922
VWidth: 1947
GlyphClass: 2
Flags: W
HStem: 153 101<288.656 619.525> 343 135<365.915 571.341> 701 135<365.698 571.757> 929 101<292.082 631.469>
VStem: 37 103<414.815 772.754> 212 135<497.936 682.3> 782 103<423.715 776.081>
LayerCount: 2
Fore
SplineSet
457 343 m 3
 305 343 212 455 212 590 c 3
 212 727 307 836 457 836 c 3
 564 836 621 780 636 765 c 1
 539 671 l 1
 522 688 496 701 457 701 c 3
 377 701 347 647 347 590 c 3
 347 529 381 478 457 478 c 3
 506 478 528 498 539 510 c 1
 638 418 l 1
 590 366 525 343 457 343 c 3
461 929 m 3
 248 929 140 773 140 598 c 3
 140 423 242 254 455 254 c 3
 672 254 782 430 782 598 c 3
 782 770 681 929 461 929 c 3
885 597 m 3
 885 377 732 153 456 153 c 3
 194 153 37 359 37 597 c 3
 37 830 194 1030 461 1030 c 3
 728 1030 885 833 885 597 c 3
EndSplineSet
Validated: 3073
EndChar

StartChar: ordfeminine
Encoding: 170 170 104
Width: 922
VWidth: 1947
GlyphClass: 2
Flags: W
HStem: 244 150<62 772> 518 150<384.716 600.606> 938 150<409.4 710> 1306 150<493.672 752.437>
VStem: 207 150<690.734 891.35> 765 150<1120.21 1296.26>
LayerCount: 2
Fore
SplineSet
557 938 m 2
 414 938 375 868 367 838 c 2
 360 812 l 2
 358 805 357 790 357 787 c 3
 357 745 386 668 467 668 c 2
 499 668 l 2
 586 668 673 767 694 864 c 2
 710 938 l 1
 557 938 l 2
765 1226 m 3
 765 1306 699 1306 650 1306 c 2
 635 1306 l 2
 551 1306 498 1280 465 1226 c 1
 337 1306 l 1
 399 1406 502 1456 635 1456 c 2
 650 1456 l 2
 860 1456 915 1331 915 1226 c 3
 915 1205 910 1165 904 1136 c 2
 778 539 l 1
 625 539 l 1
 630 562 l 1
 582 534 531 518 483 518 c 2
 467 518 l 2
 292 518 207 672 207 787 c 3
 207 804 209 818 212 831 c 2
 221 870 l 2
 233 925 288 1088 557 1088 c 2
 741 1088 l 1
 758 1168 l 2
 760 1179 765 1212 765 1226 c 3
804 394 m 1
 772 244 l 1
 31 244 l 1
 62 394 l 1
 804 394 l 1
EndSplineSet
Validated: 3073
EndChar

StartChar: guillemotleft
Encoding: 171 171 105
Width: 922
VWidth: 1947
GlyphClass: 2
Flags: W
LayerCount: 2
Fore
SplineSet
197 97 m 1
 72 419 l 1
 100 545 l 1
 355 861 l 1
 471 767 l 1
 238 479 l 1
 228 431 l 1
 337 151 l 1
 197 97 l 1
617 97 m 1
 492 419 l 1
 520 545 l 1
 775 861 l 1
 891 767 l 1
 658 479 l 1
 648 431 l 1
 757 151 l 1
 617 97 l 1
EndSplineSet
Validated: 3073
EndChar

StartChar: logicalnot
Encoding: 172 172 106
Width: 922
VWidth: 1947
GlyphClass: 2
Flags: W
HStem: 525 150<82 663>
LayerCount: 2
Fore
SplineSet
597 214 m 1
 663 525 l 1
 50 525 l 1
 82 675 l 1
 849 675 l 1
 751 214 l 1
 597 214 l 1
EndSplineSet
Validated: 3073
EndChar

StartChar: softhyphen
Encoding: 173 173 107
Width: 922
VWidth: 1947
GlyphClass: 2
Flags: W
HStem: 525 150<222 700>
VStem: 222 478<525 675>
LayerCount: 2
Fore
SplineSet
700 675 m 1
 700 525 l 1
 222 525 l 1
 222 675 l 1
 700 675 l 1
EndSplineSet
Validated: 3073
EndChar

StartChar: registered
Encoding: 174 174 108
Width: 922
VWidth: 1947
GlyphClass: 2
Flags: W
HStem: 153 101<288.656 619.905> 500 89<412 435> 729 109<409 530.999> 929 101<291.86 636.357>
VStem: 37 103<414.815 772.754> 270 142<357 500 589 729> 535 139<590.818 725.506> 782 103<431.052 780.727>
LayerCount: 2
Fore
SplineSet
885 605 m 3
 885 389 735 153 456 153 c 3
 194 153 37 359 37 597 c 3
 37 830 194 1030 461 1030 c 3
 733 1030 885 836 885 605 c 3
461 929 m 3
 247 929 140 773 140 598 c 3
 140 423 242 254 455 254 c 3
 671 254 782 439 782 607 c 3
 782 776 683 929 461 929 c 3
270 838 m 1
 476 838 l 2
 662 838 674 692 674 681 c 2
 674 661 l 2
 674 579 621 539 592 524 c 1
 680 397 l 1
 564 316 l 1
 435 500 l 1
 412 500 l 1
 412 357 l 1
 270 357 l 1
 270 838 l 1
476 729 m 2
 409 729 l 1
 409 589 l 1
 476 589 l 2
 530 589 535 643 535 659 c 2
 535 674 l 2
 535 693 531 729 476 729 c 2
EndSplineSet
Validated: 3073
EndChar

StartChar: degree
Encoding: 176 176 110
Width: 922
VWidth: 1947
GlyphClass: 2
Flags: W
HStem: 807 150<488.744 713.649> 1258 150<489.538 713.879>
VStem: 301 150<995.888 1220.36> 751 150<996.785 1220.19>
LayerCount: 2
Fore
SplineSet
601 1258 m 3
 495 1258 451 1186 451 1108 c 3
 451 1030 494 957 601 957 c 3
 709 957 751 1033 751 1108 c 3
 751 1172 721 1258 601 1258 c 3
901 1108 m 3
 901 946 789 807 601 807 c 3
 414 807 301 944 301 1108 c 3
 301 1275 417 1408 601 1408 c 3
 790 1408 901 1273 901 1108 c 3
EndSplineSet
Validated: 3073
EndChar

StartChar: plusminus
Encoding: 177 177 111
Width: 922
VWidth: 1947
GlyphClass: 2
Flags: W
HStem: 48 150<-20 770> 787 150<137 440 625 927>
LayerCount: 2
Fore
SplineSet
802 198 m 1
 770 48 l 1
 -52 48 l 1
 -20 198 l 1
 802 198 l 1
959 937 m 1
 927 787 l 1
 593 787 l 1
 514 419 l 1
 361 419 l 1
 440 787 l 1
 105 787 l 1
 137 937 l 1
 472 937 l 1
 541 1266 l 1
 695 1266 l 1
 625 937 l 1
 959 937 l 1
EndSplineSet
Validated: 3073
EndChar

StartChar: twosuperior
Encoding: 178 178 112
Width: 922
VWidth: 2334
GlyphClass: 2
Flags: W
HStem: 575 150<471 697> 1275 150<559.519 714.55>
VStem: 715 150<1130.15 1274.08>
LayerCount: 2
Fore
SplineSet
428 1305 m 1
 472 1367 518 1425 652 1425 c 2
 662 1425 l 2
 702 1425 865 1423 865 1251 c 3
 865 1228 862 1205 856 1180 c 2
 851 1159 l 2
 841 1114 797 1031 740 981 c 2
 520 787 l 2
 506 775 488 754 471 725 c 1
 729 725 l 1
 697 575 l 1
 267 575 l 1
 295 706 l 1
 319 765 361 846 420 899 c 2
 636 1089 l 2
 673 1122 703 1180 705 1191 c 2
 710 1214 l 2
 714 1233 715 1243 715 1251 c 3
 715 1269 705 1275 662 1275 c 2
 652 1275 l 2
 595 1275 578 1256 554 1223 c 1
 428 1305 l 1
EndSplineSet
Validated: 3073
EndChar

StartChar: threesuperior
Encoding: 179 179 113
Width: 922
VWidth: 2334
GlyphClass: 2
Flags: W
HStem: 557 150<421.097 596.313> 947 150<461 638.528> 1285 150<521.839 685.347>
VStem: 260 150<717.175 783> 642 150<748.898 944.209> 688 150<1141.94 1280.87>
LayerCount: 2
Fore
SplineSet
410 783 m 5xf8
 410 756 443 707 487 707 c 6
 499 707 l 6
 633 707 642 850 642 880 c 7xf8
 642 929 620 947 572 947 c 6
 461 947 l 5
 461 1097 l 5
 553 1097 l 6
 609 1097 676 1167 682 1195 c 6
 685 1208 l 6
 687 1217 688 1229 688 1233 c 7
 688 1261 668 1285 624 1285 c 6
 612 1285 l 6
 570 1285 535 1263 509 1223 c 5
 383 1305 l 5
 437 1388 521 1435 612 1435 c 6
 624 1435 l 6
 750 1435 838 1345 838 1233 c 7xf4
 838 1220 837 1206 833 1187 c 6
 828 1165 l 22
 823 1144 800 1094 741 1029 c 5
 774 992 792 940 792 880 c 7
 792 772 733 557 499 557 c 6
 487 557 l 6
 351 557 260 647 260 783 c 5
 410 783 l 5xf8
EndSplineSet
Validated: 3073
EndChar

StartChar: micro
Encoding: 181 181 115
Width: 922
VWidth: 2334
GlyphClass: 2
Flags: W
HStem: -25 150<231.971 475.645> 1004 20G<205.783 363 765.745 923>
VStem: 565 150<-42 48.9688>
LayerCount: 2
Fore
SplineSet
568 50 m 1
 509 5 441 -25 370 -25 c 2
 352 -25 l 2
 260 -25 198 -3 154 33 c 1
 138 -40 l 2
 113 -159 84 -257 42 -349 c 1
 -125 -349 l 1
 -65 -241 -35 -138 -8 -10 c 2
 210 1024 l 1
 363 1024 l 1
 228 382 l 2
 218 332 210 291 210 257 c 3
 210 157 258 125 352 125 c 2
 370 125 l 2
 478 125 616 299 640 413 c 2
 770 1024 l 1
 923 1024 l 1
 724 83 l 2
 718 57 715 21 715 -17 c 3
 715 -26 715 -34 715 -42 c 1
 565 -42 l 1
 565 -34 565 -25 565 -17 c 3
 565 6 566 28 568 50 c 1
EndSplineSet
Validated: 3073
EndChar

StartChar: paragraph
Encoding: 182 182 116
Width: 922
VWidth: 2334
GlyphClass: 2
Flags: W
HStem: 0 21G<192 349.257 552 709.258> 1325 150<627 833>
LayerCount: 2
Fore
SplineSet
340 696 m 1
 272 718 179 782 179 961 c 3
 179 997 184 1035 192 1073 c 2
 200 1110 l 2
 260 1350 420 1475 548 1475 c 2
 1019 1475 l 1
 705 0 l 1
 552 0 l 1
 833 1325 l 1
 627 1325 l 1
 345 0 l 1
 192 0 l 1
 340 696 l 1
EndSplineSet
Validated: 3073
EndChar

StartChar: periodcentered
Encoding: 183 183 117
Width: 922
VWidth: 1947
GlyphClass: 2
Flags: W
HStem: 580 334<400.819 625.726>
VStem: 347 331<633.028 860.199>
LayerCount: 2
Fore
SplineSet
678 747 m 3
 678 658 609 580 512 580 c 3
 417 580 347 657 347 747 c 3
 347 834 413 914 512 914 c 3
 609 914 678 837 678 747 c 3
EndSplineSet
EndChar

StartChar: onesuperior
Encoding: 185 185 119
Width: 922
VWidth: 1708
GlyphClass: 2
Flags: W
VStem: 469 329
LayerCount: 2
Fore
SplineSet
469 641 m 1
 585 1194 l 1
 503 1176 l 1
 504 1180 l 1
 464 1236 l 1
 698 1440 l 1
 798 1440 l 1
 624 641 l 1
 469 641 l 1
EndSplineSet
Validated: 3073
EndChar

StartChar: ordmasculine
Encoding: 186 186 120
Width: 922
VWidth: 1947
GlyphClass: 2
Flags: W
HStem: 244 150<62 772> 525 150<381.208 599.245> 1307 150<522.342 741.633>
VStem: 208 150<696.857 1052.64> 760 150<936.273 1287.36>
LayerCount: 2
Fore
SplineSet
760 1189 m 3
 760 1290 696 1307 655 1307 c 2
 639 1307 l 2
 527 1307 436 1206 401 1045 c 2
 367 890 l 2
 361 863 358 837 358 815 c 3
 358 729 396 675 461 675 c 2
 477 675 l 2
 618 675 685 805 712 922 c 2
 746 1077 l 2
 751 1099 760 1144 760 1189 c 3
655 1457 m 2
 681 1457 910 1449 910 1189 c 3
 910 1141 903 1093 892 1045 c 2
 858 890 l 2
 810 680 679 525 477 525 c 2
 461 525 l 2
 309 525 208 647 208 815 c 3
 208 850 213 885 221 922 c 2
 255 1077 l 2
 301 1279 432 1457 639 1457 c 2
 655 1457 l 2
804 394 m 1
 772 244 l 1
 31 244 l 1
 62 394 l 1
 804 394 l 1
EndSplineSet
Validated: 3073
EndChar

StartChar: guillemotright
Encoding: 187 187 121
Width: 922
VWidth: 1947
GlyphClass: 2
Flags: W
LayerCount: 2
Fore
SplineSet
659 458 m 1
 669 506 l 1
 561 787 l 1
 701 841 l 1
 825 518 l 1
 797 392 l 1
 543 77 l 1
 427 171 l 1
 659 458 l 1
239 458 m 1
 249 506 l 1
 141 787 l 1
 281 841 l 1
 405 518 l 1
 377 392 l 1
 123 77 l 1
 7 171 l 1
 239 458 l 1
EndSplineSet
Validated: 3073
EndChar

StartChar: OE
Encoding: 338 338 122
Width: 922
VWidth: 1947
GlyphClass: 2
Flags: W
HStem: 0 150<120.663 350.331 519 710> 657 150<658 797> 1250 150<351.313 580.355 752 976>
VStem: -36 150<158.379 314.842>
LayerCount: 2
Fore
SplineSet
455 1400 m 2
 511 1400 l 2
 551 1400 590 1390 624 1372 c 1
 630 1400 l 1
 1008 1400 l 1
 976 1250 l 1
 752 1250 l 1
 658 807 l 1
 829 807 l 1
 797 657 l 1
 626 657 l 1
 519 150 l 1
 743 150 l 1
 710 0 l 1
 335 0 l 1
 338 16 l 1
 308 5 278 0 247 0 c 2
 191 0 l 2
 58 0 -36 93 -36 212 c 3
 -36 226 -35 241 -31 259 c 2
 162 1172 l 2
 191 1304 322 1400 455 1400 c 2
308 1140 m 2
 119 249 l 2
 118 243 114 217 114 212 c 3
 114 177 141 150 191 150 c 2
 247 150 l 2
 301 150 376 195 389 255 c 2
 581 1159 l 2
 583 1168 584 1187 584 1190 c 3
 584 1224 556 1250 511 1250 c 2
 455 1250 l 2
 382 1250 319 1192 308 1140 c 2
EndSplineSet
Validated: 3073
EndChar

StartChar: oe
Encoding: 339 339 123
Width: 922
VWidth: 1947
GlyphClass: 2
Flags: W
HStem: -25 150<110.22 282.64 470.788 647.303> 467 150<557 763> 899 150<269.348 445.927 634.175 806.958>
VStem: -43 150<130.268 402.094> 810 150<627.281 894.967>
LayerCount: 2
Fore
SplineSet
233 789 m 2
 109 204 l 2
 107 195 107 189 107 182 c 3
 107 166 111 125 181 125 c 3
 238 125 310 176 323 235 c 2
 443 801 l 2
 445 810 449 834 449 839 c 3
 449 873 421 899 376 899 c 3
 310 899 247 854 233 789 c 2
474 229 m 2
 471 214 468 192 468 188 c 3
 468 151 498 125 541 125 c 3
 606 125 669 168 683 235 c 1
 829 203 l 1
 799 62 670 -25 541 -25 c 3
 473 -25 412 3 371 48 c 1
 318 4 251 -25 181 -25 c 3
 52 -25 -43 58 -43 182 c 3
 -43 198 -41 214 -37 234 c 2
 87 821 l 2
 117 962 248 1049 376 1049 c 3
 442 1049 504 1022 546 977 c 1
 602 1022 672 1049 736 1049 c 3
 865 1049 960 968 960 845 c 3
 960 828 958 811 953 789 c 2
 885 467 l 1
 525 467 l 1
 474 229 l 2
593 789 m 2
 557 617 l 1
 763 617 l 1
 807 821 l 2
 810 833 810 840 810 845 c 3
 810 857 808 899 736 899 c 3
 674 899 604 843 593 789 c 2
EndSplineSet
Validated: 3073
EndChar

StartChar: AE
Encoding: 198 198 132
Width: 922
VWidth: 1947
GlyphClass: 2
Flags: W
HStem: 0 150<519 710> 689 150<361 480 665 804> 1250 150<514.819 598 752 976>
LayerCount: 2
Fore
SplineSet
512 839 m 1
 598 1247 l 1
 537 1236 491 1196 471 1142 c 2
 361 839 l 1
 512 839 l 1
-102 0 m 1
 331 1194 l 2
 377 1320 493 1399 630 1400 c 2
 1008 1400 l 1
 976 1250 l 1
 752 1250 l 1
 665 839 l 1
 836 839 l 1
 804 689 l 1
 633 689 l 1
 519 150 l 1
 743 150 l 1
 710 0 l 1
 335 0 l 1
 480 689 l 1
 307 689 l 1
 58 0 l 1
 -102 0 l 1
EndSplineSet
Validated: 3073
EndChar

StartChar: Eth
Encoding: 208 208 142
Width: 922
VWidth: 1947
GlyphClass: 2
Flags: W
HStem: 0 150<220 478.473> 713 150<114 186 371 498> 1250 150<453 720.531>
VStem: 757 150<712.2 1215.03>
LayerCount: 2
Fore
SplineSet
907 1033 m 3
 907 943 893 838 867 716 c 0
 807 438 689 0 367 0 c 2
 36 0 l 1
 186 713 l 1
 82 713 l 1
 114 863 l 1
 218 863 l 1
 331 1400 l 1
 631 1400 l 2
 741 1400 907 1344 907 1033 c 3
631 1250 m 2
 453 1250 l 1
 371 863 l 1
 528 863 l 1
 498 713 l 1
 339 713 l 1
 220 150 l 1
 367 150 l 2
 508 150 628 317 721 748 c 0
 746 863 757 958 757 1033 c 3
 757 1222 692 1250 631 1250 c 2
EndSplineSet
Validated: 3073
EndChar

StartChar: multiply
Encoding: 215 215 149
Width: 922
VWidth: 1708
GlyphClass: 2
Flags: W
LayerCount: 2
Fore
SplineSet
787 980 m 1
 885 866 l 1
 581 604 l 1
 766 353 l 1
 646 265 l 1
 468 507 l 1
 173 252 l 1
 75 366 l 1
 379 628 l 1
 194 879 l 1
 314 967 l 1
 492 725 l 1
 787 980 l 1
EndSplineSet
Validated: 3073
EndChar

StartChar: Thorn
Encoding: 222 222 156
Width: 922
VWidth: 1947
GlyphClass: 2
Flags: W
HStem: 0 21G<-5 151.27> 370 150<258 593.765> 1155 150<425 737.862>
VStem: 765 150<794.109 1128.82>
LayerCount: 2
Fore
SplineSet
453 520 m 2
 661 520 705 720 714 763 c 2
 756 964 l 2
 758 971 765 1008 765 1024 c 3
 765 1130 699 1155 620 1155 c 2
 393 1155 l 1
 258 520 l 1
 453 520 l 2
147 0 m 1
 96 0 46 0 -5 0 c 1
 321 1538 l 1
 474 1538 l 1
 425 1305 l 1
 620 1305 l 2
 843 1305 915 1153 915 1024 c 3
 915 997 906 951 902 932 c 2
 860 731 l 2
 815 517 671 370 453 370 c 2
 226 370 l 1
 147 0 l 1
EndSplineSet
Validated: 3073
EndChar

StartChar: germandbls
Encoding: 223 223 157
Width: 922
VWidth: 1947
GlyphClass: 2
Flags: W
HStem: -25 150<332.576 525.148> 712 150<457 639.053> 1275 150<480.484 739.531>
VStem: 666 150<329.864 682.484> 751 150<988.023 1259.43>
LayerCount: 2
Fore
SplineSet
751 1177 m 3xe8
 751 1262 690 1275 645 1275 c 2
 627 1275 l 2
 480 1275 399 1188 369 1048 c 2
 64 -387 l 1
 -88 -387 l 1
 223 1080 l 2
 269 1297 414 1425 627 1425 c 2
 645 1425 l 2
 676 1425 901 1416 901 1177 c 3xe8
 901 1141 895 1107 889 1077 c 2
 881 1038 l 1
 857 928 807 843 732 787 c 1
 785 737 816 664 816 573 c 3
 816 540 812 506 804 470 c 2
 773 321 l 2
 728 114 593 -25 415 -25 c 2
 398 -25 l 2
 370 -25 267 -18 218 48 c 1
 332 146 l 1
 344 130 374 125 398 125 c 2
 415 125 l 2
 507 125 594 198 627 353 c 2
 658 500 l 2
 664 528 666 552 666 573 c 3xf0
 666 687 592 712 525 712 c 2
 457 712 l 1
 457 862 l 1
 475 862 l 2
 610 862 702 915 735 1070 c 2
 743 1107 l 2
 748 1130 751 1155 751 1177 c 3xe8
EndSplineSet
Validated: 3073
EndChar

StartChar: ae
Encoding: 230 230 164
Width: 922
VWidth: 1947
GlyphClass: 2
Flags: W
HStem: -25 150<110.22 282.871 470.788 647.303> 467 150<189.438 372 557 763> 899 150<269.876 445.927 634.175 806.958>
VStem: -43 150<132.237 268.281> 810 150<627.281 894.967>
LayerCount: 2
Fore
SplineSet
472 219 m 2
 470 209 468 192 468 188 c 3
 468 151 498 125 541 125 c 3
 606 125 669 168 683 235 c 1
 829 203 l 1
 799 62 670 -25 541 -25 c 3
 473 -25 412 3 371 48 c 1
 315 2 246 -25 181 -25 c 3
 52 -25 -43 58 -43 182 c 3
 -43 198 -41 214 -37 234 c 2
 -8 373 l 2
 22 513 154 617 288 617 c 2
 404 617 l 1
 447 821 l 2
 449 828 449 834 449 839 c 3
 449 873 421 899 376 899 c 3
 311 899 247 853 233 789 c 1
 87 821 l 1
 119 963 249 1049 376 1049 c 3
 442 1049 504 1022 546 977 c 1
 602 1022 672 1049 736 1049 c 3
 865 1049 960 968 960 845 c 3
 960 828 958 811 953 789 c 2
 885 467 l 1
 525 467 l 1
 472 219 l 2
557 617 m 1
 763 617 l 1
 807 821 l 2
 810 833 810 840 810 845 c 3
 810 857 808 899 736 899 c 3
 674 899 604 843 593 789 c 2
 557 617 l 1
372 467 m 1
 288 467 l 2
 228 467 154 416 138 343 c 2
 109 204 l 2
 107 194 107 187 107 182 c 3
 107 166 111 125 181 125 c 3
 238 125 311 176 323 235 c 2
 372 467 l 1
EndSplineSet
Validated: 3073
EndChar

StartChar: eth
Encoding: 240 240 174
Width: 922
VWidth: 1947
GlyphClass: 2
Flags: W
HStem: -25 150<271.133 498.646> 774 150<399.072 630.646> 1029 21G<323.571 384.137> 1389 20G<861.947 922.429>
VStem: 74 150<165.182 540.352> 666 185<477.805 906.876>
LayerCount: 2
Fore
SplineSet
521 924 m 2
 539 924 l 2
 597 924 649 908 692 878 c 1
 677 968 645 1053 602 1131 c 1
 331 1029 l 1
 279 1169 l 1
 517 1259 l 1
 484 1302 448 1342 411 1379 c 1
 517 1485 l 1
 569 1433 619 1376 663 1314 c 1
 915 1409 l 1
 967 1269 l 1
 743 1185 l 1
 809 1061 851 923 851 774 c 3
 851 719 845 662 833 604 c 2
 792 412 l 2
 740 167 599 -25 370 -25 c 2
 352 -25 l 2
 185 -25 74 120 74 318 c 3
 74 358 79 399 88 442 c 2
 94 472 l 2
 145 708 287 924 521 924 c 2
240 442 m 2
 234 412 l 2
 227 379 224 347 224 318 c 3
 224 207 271 125 352 125 c 2
 370 125 l 2
 535 125 615 291 646 442 c 2
 657 495 l 2
 664 530 666 566 666 595 c 3
 666 680 641 774 539 774 c 2
 521 774 l 2
 395 774 285 654 240 442 c 2
EndSplineSet
Validated: 3073
EndChar

StartChar: divide
Encoding: 247 247 181
Width: 922
VWidth: 1947
GlyphClass: 2
Flags: W
HStem: 118 247<308.191 492.925> 525 150<66 884> 835 250<459.74 645.575>
VStem: 275 248<151.525 333.143> 428 248<866.462 1053.54>
LayerCount: 2
Fore
SplineSet
884 675 m 1xe0
 884 525 l 1
 66 525 l 1
 66 675 l 1
 884 675 l 1xe0
676 960 m 3xe8
 676 900 625 835 554 835 c 3
 476 835 428 906 428 960 c 3
 428 1014 476 1085 554 1085 c 3
 625 1085 676 1020 676 960 c 3xe8
523 243 m 3xf0
 523 181 473 118 401 118 c 3
 330 118 275 183 275 243 c 3
 275 298 327 365 401 365 c 3
 475 365 523 298 523 243 c 3xf0
EndSplineSet
Validated: 3073
EndChar

StartChar: oslash
Encoding: 248 248 182
Width: 922
VWidth: 1947
GlyphClass: 2
Flags: W
HStem: -25 150<278.955 498.646> 899 150<418.247 655.823>
VStem: 74 150<329 575.688>
LayerCount: 2
Fore
SplineSet
838 1108 m 1
 956 1016 l 1
 837 865 l 1
 845 834 850 799 850 757 c 3
 850 687 836 615 828 581 c 2
 792 411 l 2
 740 166 599 -25 370 -25 c 2
 352 -25 l 2
 286 -25 229 -2 184 37 c 1
 81 -94 l 1
 -37 0 l 1
 98 169 l 1
 82 213 74 264 74 318 c 3
 74 358 79 400 88 443 c 2
 124 613 l 2
 176 855 318 1049 547 1049 c 2
 565 1049 l 2
 615 1049 688 1041 750 997 c 1
 838 1108 l 1
695 684 m 1
 277 155 l 1
 297 136 322 125 352 125 c 2
 370 125 l 2
 535 125 615 296 646 443 c 2
 682 613 l 2
 688 640 692 664 695 684 c 1
224 329 m 1
 657 878 l 1
 632 896 600 899 565 899 c 2
 547 899 l 2
 381 899 301 725 270 581 c 2
 234 411 l 2
 228 382 225 355 224 329 c 1
EndSplineSet
Validated: 3073
EndChar

StartChar: thorn
Encoding: 254 254 188
Width: 922
VWidth: 1947
GlyphClass: 2
Flags: W
HStem: -384 21G<-88 69.2697> -25 150<266.445 498.646> 899 150<417.111 677.799> 1380 20G<286.751 444>
VStem: 700 150<485.438 877.194>
LayerCount: 2
Fore
SplineSet
700 757 m 3
 700 893 630 899 565 899 c 2
 547 899 l 2
 381 899 301 725 270 581 c 2
 234 411 l 2
 227 378 224 347 224 318 c 3
 224 207 271 125 352 125 c 2
 370 125 l 2
 535 125 615 296 646 443 c 2
 682 613 l 2
 697 683 700 728 700 757 c 3
-88 -384 m 1
 291 1400 l 1
 444 1400 l 1
 358 997 l 1
 412 1030 476 1049 547 1049 c 2
 565 1049 l 2
 657 1049 850 1027 850 757 c 3
 850 687 836 615 828 581 c 2
 792 411 l 2
 740 166 599 -25 370 -25 c 2
 352 -25 l 2
 274 -25 208 7 160 61 c 1
 65 -384 l 1
 -88 -384 l 1
EndSplineSet
Validated: 3073
EndChar

StartChar: minus
Encoding: 8722 8722 190
Width: 922
VWidth: 1708
GlyphClass: 2
Flags: W
HStem: 525 150<50 872>
LayerCount: 2
Fore
SplineSet
872 675 m 1
 872 525 l 1
 50 525 l 1
 50 675 l 1
 872 675 l 1
EndSplineSet
Validated: 3073
EndChar

StartChar: gravemodifier
Encoding: 715 715 193
Width: 922
VWidth: 2334
GlyphClass: 2
Flags: MW
HStem: 1329 387
VStem: 557 356
DStem2: 713 1716 557 1601 0.59239 -0.805651<0.236946 337.615>
LayerCount: 2
Fore
SplineSet
913 1444 m 5
 757 1329 l 5
 557 1601 l 5
 713 1716 l 5
 913 1444 l 5
EndSplineSet
EndChar

StartChar: acute
Encoding: 180 180 194
Width: 922
VWidth: 1947
GlyphClass: 2
Flags: MW
HStem: 1180 495
VStem: 418 478
DStem2: 418 1312 561 1180 0.678196 0.734881<0 493.935>
LayerCount: 2
Fore
SplineSet
561 1180 m 5
 418 1312 l 5
 753 1675 l 5
 896 1543 l 5
 561 1180 l 5
EndSplineSet
EndChar

StartChar: circumflex
Encoding: 710 710 195
Width: 922
VWidth: 1947
GlyphClass: 2
Flags: W
HStem: 1402 236
VStem: 420 487
LayerCount: 2
Fore
SplineSet
761 1638 m 1
 907 1518 l 1
 811 1402 l 1
 682 1508 l 1
 498 1396 l 1
 420 1524 l 1
 607 1638 l 1
 761 1638 l 1
EndSplineSet
Validated: 3073
EndChar

StartChar: tilde
Encoding: 732 732 196
Width: 922
VWidth: 1947
GlyphClass: 2
Flags: W
HStem: 1447 150<662.199 795.504> 1537 150<403.835 535.755>
LayerCount: 2
Fore
SplineSet
279 1581 m 2x80
 323 1625 391 1687 492 1687 c 2
 508 1687 l 2x40
 556 1687 611 1666 646 1627 c 2
 662 1609 l 2
 666 1605 686 1597 700 1597 c 2
 717 1597 l 2
 750 1597 782 1626 816 1661 c 2
 838 1684 l 1
 946 1580 l 1
 924 1557 l 2
 877 1508 809 1447 707 1447 c 2
 690 1447 l 2x80
 641 1447 587 1468 550 1509 c 2
 536 1525 l 2
 531 1530 511 1537 498 1537 c 2
 482 1537 l 2x40
 457 1537 427 1517 385 1475 c 2
 359 1447 l 1
 253 1555 l 1
 279 1581 l 2x80
EndSplineSet
Validated: 3073
EndChar

StartChar: macronmodifier
Encoding: 713 713 197
Width: 922
VWidth: 1947
GlyphClass: 2
Flags: W
HStem: 1463 150<454 907>
VStem: 454 453<1463 1613>
LayerCount: 2
Fore
SplineSet
454 1463 m 1
 454 1613 l 1
 907 1613 l 1
 907 1463 l 1
 454 1463 l 1
EndSplineSet
Validated: 3073
EndChar

StartChar: breve
Encoding: 728 728 198
Width: 922
VWidth: 1947
GlyphClass: 2
Flags: W
HStem: 1405 150<496.911 752.666>
VStem: 340 580
LayerCount: 2
Fore
SplineSet
610 1405 m 3
 495 1405 397 1460 340 1552 c 1
 468 1632 l 1
 513 1561 582 1555 610 1555 c 3
 635 1555 723 1559 816 1647 c 1
 920 1539 l 1
 782 1408 644 1405 610 1405 c 3
EndSplineSet
Validated: 3073
EndChar

StartChar: dotaccent
Encoding: 729 729 199
Width: 922
VWidth: 1947
GlyphClass: 2
Flags: W
HStem: 1374 266<575.907 772.487>
VStem: 542 266<1408.71 1605.29>
LayerCount: 2
Fore
SplineSet
542 1507 m 27
 542 1580 600 1640 674 1640 c 27
 746 1640 808 1580 808 1507 c 27
 808 1434 746 1374 674 1374 c 27
 600 1374 542 1434 542 1507 c 27
EndSplineSet
EndChar

StartChar: dieresis
Encoding: 168 168 200
Width: 922
VWidth: 1947
GlyphClass: 2
Flags: W
HStem: 1394 258<297.289 482.515 788.536 970.671>
VStem: 264 251<1426.83 1620.26> 755 248<1426.86 1622.09>
LayerCount: 2
Fore
SplineSet
515 1526 m 3
 515 1455 459 1394 390 1394 c 3
 322 1394 264 1453 264 1526 c 3
 264 1604 326 1652 388 1652 c 3
 460 1652 515 1593 515 1526 c 3
1003 1526 m 3
 1003 1449 942 1394 880 1394 c 3
 814 1394 755 1454 755 1526 c 3
 755 1598 814 1652 880 1652 c 3
 941 1652 1003 1604 1003 1526 c 3
EndSplineSet
EndChar

StartChar: ring
Encoding: 730 730 202
Width: 922
VWidth: 1947
GlyphClass: 2
Flags: W
HStem: 1223 110<572.515 727.788> 1517 110<572.515 727.788>
VStem: 448 110<1346.23 1503.77> 742 110<1348.51 1501.49>
LayerCount: 2
Fore
SplineSet
448 1425 m 27
 448 1537 536 1627 648 1627 c 27
 760 1627 852 1537 852 1425 c 27
 852 1313 760 1223 648 1223 c 27
 536 1223 448 1313 448 1425 c 27
558 1425 m 27
 558 1374 598 1333 649 1333 c 27
 700 1333 742 1374 742 1425 c 27
 742 1476 700 1517 649 1517 c 27
 598 1517 558 1476 558 1425 c 27
EndSplineSet
Validated: 3073
EndChar

StartChar: cedilla
Encoding: 184 184 203
Width: 922
VWidth: 1947
GlyphClass: 2
Flags: W
HStem: -486 150<180.838 444.623> -180 208<311 444.008>
VStem: 311 151<-43.4086 28> 462 134<-313.366 -189.727>
LayerCount: 2
Fore
SplineSet
462 28 m 1
 462 -10 l 1
 445 -67 l 1
 545 -91 596 -151 596 -241 c 27
 596 -390 456 -486 302 -486 c 3
 203 -486 118 -444 62 -384 c 1
 172 -283 l 1
 200 -313 245 -336 302 -336 c 3
 381 -336 462 -316 462 -241 c 3
 462 -214 433 -180 359 -180 c 2
 260 -180 l 1
 311 10 l 1
 311 28 l 1
 462 28 l 1
EndSplineSet
Validated: 3073
EndChar

StartChar: ogonek
Encoding: 731 731 204
Width: 922
VWidth: 1947
GlyphClass: 2
Flags: W
HStem: -420 150<222.369 355.884>
VStem: 72 150<-267.792 -172.143>
LayerCount: 2
Fore
SplineSet
386 -374 m 2
 349 -402 316 -420 250 -420 c 3
 151 -420 72 -341 72 -243 c 3
 72 -192 99 -117 157 -69 c 2
 290 41 l 1
 300 87 l 1
 446 57 l 1
 426 -41 l 1
 253 -183 l 2
 234 -199 222 -217 222 -243 c 3
 222 -258 230 -270 250 -270 c 3
 271 -270 281 -265 296 -254 c 2
 328 -230 l 1
 418 -350 l 1
 386 -374 l 2
EndSplineSet
Validated: 3073
EndChar

StartChar: caron
Encoding: 711 711 205
Width: 922
VWidth: 1947
GlyphClass: 2
Flags: W
HStem: 1422 242
VStem: 441 487
LayerCount: 2
Fore
SplineSet
666 1552 m 1
 850 1664 l 1
 928 1536 l 1
 741 1422 l 1
 587 1422 l 1
 441 1542 l 1
 537 1658 l 1
 666 1552 l 1
EndSplineSet
Validated: 3073
EndChar

StartChar: dotlessi
Encoding: 305 305 206
Width: 922
VWidth: 1947
GlyphClass: 2
Flags: W
HStem: 0 150<101 307 459 627> 874 150<287 459>
VStem: 69 590
LayerCount: 2
Fore
SplineSet
627 0 m 1
 69 0 l 1
 101 150 l 1
 307 150 l 1
 459 874 l 1
 255 874 l 1
 287 1024 l 1
 643 1024 l 1
 459 150 l 1
 659 150 l 1
 627 0 l 1
EndSplineSet
Validated: 3073
EndChar

StartChar: currency
Encoding: 164 164 210
Width: 922
VWidth: 1947
GlyphClass: 2
Flags: W
HStem: 454 150<349.232 573.746> 964 150<350.522 571.125>
VStem: 135 150<667.538 896.812> 637 150<667.954 899.12>
LayerCount: 2
Fore
SplineSet
469 964 m 2
 453 964 l 2
 370 964 286 872 285 796 c 1
 285 772 l 2
 285 685 375 604 453 604 c 2
 469 604 l 2
 549 604 637 686 637 772 c 2
 637 796 l 2
 637 872 552 964 469 964 c 2
787 796 m 2
 787 772 l 2
 787 701 760 635 718 582 c 1
 830 445 l 1
 714 351 l 1
 603 487 l 1
 561 466 515 454 469 454 c 2
 453 454 l 2
 384 454 317 480 262 524 c 1
 124 413 l 1
 30 529 l 1
 167 640 l 1
 146 681 135 726 135 772 c 2
 135 796 l 2
 135 863 162 928 204 982 c 1
 92 1119 l 1
 208 1213 l 1
 318 1078 l 1
 360 1101 406 1114 453 1114 c 2
 469 1114 l 2
 539 1114 607 1085 662 1040 c 1
 798 1151 l 1
 892 1035 l 1
 755 924 l 1
 775 884 787 840 787 796 c 2
EndSplineSet
Validated: 3073
EndChar

StartChar: brokenbar
Encoding: 166 166 211
Width: 922
VWidth: 1947
GlyphClass: 2
Flags: W
VStem: 255 485
LayerCount: 2
Fore
SplineSet
449 833 m 1
 587 1476 l 1
 740 1476 l 1
 602 833 l 1
 449 833 l 1
255 -75 m 1
 399 600 l 1
 552 600 l 1
 407 -75 l 1
 255 -75 l 1
EndSplineSet
Validated: 3073
EndChar

StartChar: onequarter
Encoding: 188 188 212
Width: 922
VWidth: 1708
GlyphClass: 2
Flags: W
HStem: -35 150<550 582 767 783>
LayerCount: 2
Fore
SplineSet
867 1463 m 1
 995 1387 l 1
 129 -63 l 1
 0 13 l 1
 867 1463 l 1
637 225 m 1
 550 115 l 1
 614 115 l 1
 637 225 l 1
206 808 m 1
 308 1305 l 1
 223 1278 l 1
 179 1351 l 1
 415 1586 l 1
 517 1586 l 1
 360 808 l 1
 206 808 l 1
400 166 m 1
 720 574 l 1
 864 574 l 1
 767 115 l 1
 815 115 l 1
 783 -35 l 1
 735 -35 l 1
 698 -209 l 1
 545 -209 l 1
 582 -35 l 1
 357 -35 l 1
 400 166 l 1
EndSplineSet
Validated: 3073
EndChar

StartChar: onehalf
Encoding: 189 189 213
Width: 922
VWidth: 1708
GlyphClass: 2
Flags: W
HStem: -285 150<502 711> 398 150<579.562 719.376>
VStem: 720 150<318 395.112>
LayerCount: 2
Fore
SplineSet
826 1463 m 1
 954 1387 l 1
 88 -63 l 1
 -40 13 l 1
 826 1463 l 1
435 413 m 1
 470 464 538 548 663 548 c 2
 673 548 l 2
 826 548 870 450 870 373 c 3
 870 351 867 330 862 308 c 2
 857 288 l 2
 850 249 816 160 757 106 c 2
 529 -104 l 2
 524 -109 515 -118 502 -135 c 1
 743 -135 l 1
 711 -285 l 1
 285 -285 l 1
 312 -158 l 1
 339 -107 379 -38 427 6 c 2
 653 214 l 2
 683 242 707 298 711 318 c 2
 716 342 l 2
 719 355 720 365 720 373 c 3
 720 386 715 398 673 398 c 2
 663 398 l 2
 616 398 589 371 561 331 c 1
 435 413 l 1
206 808 m 1
 308 1305 l 1
 223 1278 l 1
 179 1351 l 1
 415 1586 l 1
 517 1586 l 1
 360 808 l 1
 206 808 l 1
EndSplineSet
Validated: 3073
EndChar

StartChar: threequarters
Encoding: 190 190 214
Width: 922
VWidth: 1708
GlyphClass: 2
Flags: W
HStem: -35 150<570 602 787 803> 824 133<305.873 468.521> 1004 20G<164 296> 1169 132<341 498.886> 1413 21G<352.889 395.5> 1467 133<390.678 539.081>
VStem: 164 132<965.873 1024> 501 133<987.873 1167.63> 542 132<1336.55 1464.36>
LayerCount: 2
Fore
SplineSet
296 1024 m 1xff
 296 1000 325 957 364 957 c 2
 375 957 l 2
 493 957 501 1082 501 1109 c 3xff
 501 1152 481 1169 439 1169 c 2
 341 1169 l 1
 341 1301 l 1
 423 1301 l 2
 473 1301 532 1363 537 1388 c 2
 539 1400 l 2
 541 1408 542 1418 542 1422 c 3
 542 1447 524 1467 485 1467 c 2
 475 1467 l 2
 438 1467 407 1448 384 1413 c 1
 272 1485 l 1
 320 1558 395 1600 475 1600 c 2
 485 1600 l 2
 596 1600 674 1521 674 1422 c 3xfe80
 674 1411 674 1398 670 1381 c 2
 666 1361 l 18
 662 1342 641 1298 589 1241 c 1
 618 1208 634 1162 634 1109 c 3
 634 1014 582 824 375 824 c 2
 364 824 l 2
 244 824 164 904 164 1024 c 1
 296 1024 l 1xff
957 1463 m 1
 1085 1387 l 1
 219 -63 l 1
 91 13 l 1
 957 1463 l 1
657 225 m 1
 570 115 l 1
 634 115 l 1
 657 225 l 1
421 167 m 1
 740 574 l 1
 884 574 l 1
 787 115 l 1
 835 115 l 1
 803 -35 l 1
 755 -35 l 1
 718 -209 l 1
 565 -209 l 1
 602 -35 l 1
 377 -35 l 1
 421 167 l 1
EndSplineSet
Validated: 3073
EndChar

StartChar: Lslash
Encoding: 321 321 216
Width: 922
VWidth: 1947
GlyphClass: 2
Flags: W
HStem: 0 151<181 717> 1380 20G<286.764 444>
LayerCount: 2
Fore
SplineSet
717 0 m 1
 -5 0 l 1
 90 451 l 1
 61 441 l 1
 13 583 l 1
 126 621 l 1
 291 1400 l 1
 444 1400 l 1
 291 677 l 1
 661 801 l 1
 709 659 l 1
 256 507 l 1
 181 151 l 1
 749 151 l 1
 717 0 l 1
EndSplineSet
Validated: 3073
EndChar

StartChar: lslash
Encoding: 322 322 257
Width: 922
VWidth: 1947
GlyphClass: 2
Flags: W
HStem: 0 150<103 307 459 627> 1250 150<368 539>
LayerCount: 2
Fore
SplineSet
336 1250 m 1
 368 1400 l 1
 723 1400 l 1
 582 734 l 1
 781 801 l 1
 829 659 l 1
 546 564 l 1
 459 150 l 1
 660 150 l 1
 627 0 l 1
 70 0 l 1
 103 150 l 1
 307 150 l 1
 382 509 l 1
 181 441 l 1
 133 583 l 1
 418 679 l 1
 539 1250 l 1
 336 1250 l 1
EndSplineSet
Validated: 3073
EndChar

StartChar: dotlessj
Encoding: 567 567 260
Width: 922
VWidth: 1947
GlyphClass: 2
Flags: W
HStem: -369 150<233.87 410.939> 874 150<374 657>
VStem: 79 150<-212.997 -146>
LayerCount: 2
Fore
SplineSet
302 -219 m 3
 334 -219 427 -214 452 -95 c 2
 657 874 l 1
 342 874 l 1
 374 1024 l 1
 843 1024 l 1
 598 -125 l 2
 564 -285 444 -369 302 -369 c 3
 174 -369 79 -271 79 -146 c 1
 229 -146 l 1
 229 -191 260 -219 302 -219 c 3
EndSplineSet
Validated: 3073
EndChar

StartChar: eng
Encoding: 331 331 261
Width: 922
VWidth: 2334
GlyphClass: 2
Flags: W
HStem: -369 150<235.389 457.834> 0 21G<-6 151.262> 899 150<448.585 695.235> 1004 20G<207.742 365>
VStem: 716 150<567.266 880.363>
LayerCount: 2
Fore
SplineSet
235 -190 m 1xe8
 243 -201 270 -219 301 -219 c 2
 353 -219 l 2
 436 -219 522 -137 549 -12 c 2
 708 735 l 2
 713 759 716 779 716 797 c 3
 716 880 661 899 565 899 c 2
 547 899 l 2xe8
 444 899 300 716 274 596 c 2
 147 -0 l 1
 -6 0 l 1
 212 1024 l 1
 365 1024 l 1xd8
 354 971 l 1
 413 1018 479 1049 547 1049 c 2
 565 1049 l 2
 798 1049 866 939 866 808 c 3
 866 774 862 738 854 703 c 2
 695 -44 l 2
 661 -203 538 -369 353 -369 c 2
 301 -369 l 2
 189 -369 113 -277 105 -266 c 1
 235 -190 l 1xe8
EndSplineSet
Validated: 3073
EndChar

StartChar: ellipsis
Encoding: 8230 8230 266
Width: 922
VWidth: 1947
GlyphClass: 2
Flags: W
HStem: 27 171<82.4571 223.76 390.422 530.76 697.674 838.76>
VStem: 72 162<36.6866 188.154> 380 162<37.0584 187.782> 687 163<37.0584 187.782>
LayerCount: 2
Fore
SplineSet
850 113 m 3
 850 69 815 27 768 27 c 3
 723 27 687 67 687 113 c 3
 687 157 722 198 768 198 c 3
 816 198 850 155 850 113 c 3
234 113 m 3
 234 69 200 27 153 27 c 3
 107 27 72 67 72 113 c 3
 72 157 106 198 153 198 c 3
 200 198 234 155 234 113 c 3
542 113 m 3
 542 69 507 27 460 27 c 3
 415 27 380 67 380 113 c 3
 380 157 414 198 460 198 c 3
 508 198 542 155 542 113 c 3
EndSplineSet
Validated: 3073
EndChar

StartChar: uparrow
Encoding: 8593 8593 267
Width: 922
VWidth: 1708
GlyphClass: 2
Flags: W
HStem: 1024 20G<381.598 540.402>
VStem: 381 160<209 794>
LayerCount: 2
Fore
SplineSet
541 209 m 1
 381 209 l 1
 381 794 l 1
 158 564 l 1
 44 676 l 1
 401 1044 l 1
 521 1044 l 1
 878 676 l 1
 764 564 l 1
 541 794 l 1
 541 209 l 1
EndSplineSet
Validated: 3073
EndChar

StartChar: downarrow
Encoding: 8595 8595 268
Width: 922
VWidth: 1708
GlyphClass: 2
Flags: W
VStem: 381 160<406 991>
LayerCount: 2
Fore
SplineSet
381 991 m 1
 541 991 l 1
 541 406 l 1
 764 636 l 1
 878 524 l 1
 521 156 l 1
 401 156 l 1
 44 524 l 1
 158 636 l 1
 381 406 l 1
 381 991 l 1
EndSplineSet
Validated: 3073
EndChar

StartChar: spaceopenbox
Encoding: 9251 9251 269
Width: 922
VWidth: 1947
GlyphClass: 2
Flags: W
HStem: -167 323<26 143 584 669> -167 150<143 547>
LayerCount: 2
Fore
SplineSet
584 156 m 1x80
 737 156 l 1
 669 -167 l 1x80
 -43 -167 l 1x40
 26 156 l 1
 180 156 l 1x80
 143 -17 l 1
 547 -17 l 1x40
 584 156 l 1x80
EndSplineSet
Validated: 3073
EndChar

StartChar: foursuperior
Encoding: 8308 8308 271
Width: 922
VWidth: 1947
GlyphClass: 2
Flags: W
HStem: 764 150<421 577 762 843> 1405 20G<685.758 869>
LayerCount: 2
Fore
SplineSet
660 1162 m 1
 421 914 l 1
 609 914 l 1
 660 1162 l 1
197 897 m 1
 705 1425 l 1
 869 1425 l 1
 762 914 l 1
 875 914 l 1
 843 764 l 1
 730 764 l 1
 684 544 l 1
 532 544 l 1
 577 764 l 1
 169 764 l 1
 197 897 l 1
EndSplineSet
Validated: 3073
EndChar

StartChar: Eng
Encoding: 330 330 273
Width: 922
VWidth: 2334
GlyphClass: 2
Flags: W
HStem: -369 150<235.389 457.834> 0 21G<-6 151.246> 1275 150<532.116 779.584> 1380 20G<287.743 444>
VStem: 794 149<943.672 1261.29>
LayerCount: 2
Fore
SplineSet
235 -190 m 1xe8
 243 -201 270 -219 301 -219 c 2
 353 -219 l 2
 436 -219 522 -137 549 -12 c 2
 781 1079 l 2
 790 1120 794 1153 794 1179 c 3
 794 1260 749 1275 645 1275 c 2
 627 1275 l 2xe8
 523 1275 373 1061 347 942 c 2
 147 -0 l 1
 -6 0 l 1
 292 1400 l 1
 444 1400 l 1xd8
 432 1343 l 1
 491 1392 558 1425 627 1425 c 2
 645 1425 l 2
 871 1425 943 1323 943 1180 c 3
 943 1139 937 1094 927 1047 c 2
 695 -44 l 2
 661 -203 538 -369 353 -369 c 2
 301 -369 l 2
 183 -369 113 -277 105 -266 c 1
 235 -190 l 1xe8
EndSplineSet
Validated: 3073
EndChar

StartChar: dcroat
Encoding: 273 273 274
Width: 922
VWidth: 1947
GlyphClass: 2
Flags: W
HStem: -25 150<271.133 500.884> 899 150<418.247 677.035> 1205 150<567 808 993 1016> 1380 20G<845 1002>
VStem: 74 150<165.182 575.75>
LayerCount: 2
Fore
SplineSet
700 757 m 3
 700 893 627 899 565 899 c 2
 547 899 l 2
 381 899 301 725 270 581 c 2
 234 411 l 2
 227 378 224 347 224 318 c 3
 224 207 271 125 352 125 c 2
 370 125 l 2
 535 125 615 296 646 443 c 2
 682 613 l 2
 697 683 700 728 700 757 c 3
567 1355 m 1
 840 1355 l 1
 849 1400 l 1
 1002 1400 l 1
 993 1355 l 1
 1048 1355 l 1
 1016 1205 l 1
 961 1205 l 1
 700 -25 l 1
 547 -25 l 1
 558 26 l 1
 504 -7 441 -25 370 -25 c 2
 352 -25 l 2
 185 -25 74 120 74 318 c 3
 74 358 79 400 88 443 c 2
 124 613 l 2
 176 855 318 1049 547 1049 c 2
 565 1049 l 2
 621 1049 699 1040 762 988 c 1
 808 1205 l 1
 535 1205 l 1
 567 1355 l 1
EndSplineSet
Validated: 3073
EndChar

StartChar: bullet
Encoding: 8226 8226 280
Width: 922
VWidth: 1947
GlyphClass: 2
Flags: W
HStem: 445 445<339.871 579.566>
VStem: 247 427<540.869 798.197>
LayerCount: 2
Fore
SplineSet
674 669 m 3
 674 559 578 445 460 445 c 3
 340 445 247 563 247 669 c 3
 247 784 345 890 460 890 c 3
 574 890 674 784 674 669 c 3
EndSplineSet
EndChar

StartChar: florin
Encoding: 402 402 281
Width: 922
VWidth: 1947
GlyphClass: 2
Flags: W
HStem: -385 149<-35.8618 163.8> 752 150<264 441 636 823> 1275 150<744.964 962.926>
LayerCount: 2
Fore
SplineSet
856 902 m 1
 823 752 l 1
 597 752 l 1
 365 -146 l 2
 328 -291 188 -385 62 -385 c 3
 -22 -385 -100 -343 -139 -248 c 1
 -1 -192 l 1
 11 -223 35 -236 63 -236 c 3
 123 -236 200 -177 219 -108 c 2
 441 752 l 1
 231 752 l 1
 264 902 l 1
 480 902 l 1
 557 1200 l 2
 592 1332 714 1425 850 1425 c 3
 1009 1425 1042 1341 1061 1308 c 1
 921 1252 l 1
 916 1262 907 1275 850 1275 c 3
 784 1275 720 1228 703 1162 c 2
 636 902 l 1
 856 902 l 1
EndSplineSet
Validated: 3073
EndChar

StartChar: dagger
Encoding: 8224 8224 282
Width: 922
VWidth: 1947
GlyphClass: 2
Flags: W
HStem: 875 149<195 459 644 905> 1405 20G<571.761 728>
LayerCount: 2
Fore
SplineSet
195 1024 m 1
 491 1024 l 1
 576 1425 l 1
 728 1425 l 1
 644 1024 l 1
 937 1024 l 1
 905 875 l 1
 612 875 l 1
 344 -387 l 1
 191 -387 l 1
 459 875 l 1
 163 875 l 1
 195 1024 l 1
EndSplineSet
Validated: 3073
EndChar

StartChar: daggerdbl
Encoding: 8225 8225 283
Width: 922
VWidth: 1947
GlyphClass: 2
Flags: W
HStem: 14 150<13 276 461 723> 875 149<195 459 644 905> 1405 20G<571.761 729>
LayerCount: 2
Fore
SplineSet
195 1024 m 1
 491 1024 l 1
 576 1425 l 1
 729 1425 l 1
 644 1024 l 1
 937 1024 l 1
 905 875 l 1
 612 875 l 1
 461 164 l 1
 755 164 l 1
 723 14 l 1
 429 14 l 1
 344 -387 l 1
 191 -387 l 1
 276 14 l 1
 -19 14 l 1
 13 164 l 1
 308 164 l 1
 459 875 l 1
 163 875 l 1
 195 1024 l 1
EndSplineSet
Validated: 3073
EndChar

StartChar: trademark
Encoding: 8482 8482 284
Width: 922
VWidth: 1947
GlyphClass: 2
Flags: W
HStem: 1218 150<215 307 459 559> 1380 20G<593.25 749.14 929.329 1096>
LayerCount: 2
Fore
SplineSet
147 466 m 1
 307 1218 l 1
 183 1218 l 1
 215 1368 l 1
 591 1368 l 1
 597 1400 l 1
 749 1400 l 1
 752 971 l 1
 938 1400 l 1
 1096 1400 l 1
 896 466 l 1
 743 466 l 1
 788 676 l 1
 720 519 l 1
 606 519 l 1
 604 714 l 1
 551 466 l 1
 398 466 l 1
 559 1218 l 1
 459 1218 l 1
 300 466 l 1
 147 466 l 1
EndSplineSet
Validated: 3073
EndChar

StartChar: Ecyrillic
Encoding: 1028 1028 290
Width: 922
VWidth: 1947
GlyphClass: 2
Flags: W
HStem: -25 150<281.449 473.312> 681 150<316 591> 1275 150<529.277 706.796>
VStem: 93 150<159.795 680.86> 753 150<1087.85 1232.19>
LayerCount: 2
Fore
SplineSet
626 830 m 1
 591 681 l 1
 282 681 l 1
 279 668 l 2
 255 553 243 452 243 369 c 3
 243 208 282 125 353 125 c 2
 369 125 l 2
 461 125 539 221 599 347 c 1
 735 283 l 1
 705 219 589 -25 369 -25 c 2
 353 -25 l 2
 240 -25 93 42 93 369 c 3
 93 466 108 576 133 698 c 2
 153 795 l 2
 206 1053 364 1425 621 1425 c 2
 637 1425 l 2
 797 1425 886 1286 903 1089 c 1
 753 1077 l 1
 740 1230 690 1275 637 1275 c 2
 621 1275 l 2
 503 1275 382 1071 316 831 c 1
 626 830 l 1
EndSplineSet
Validated: 3073
EndChar

StartChar: Becyrillic
Encoding: 1041 1041 298
Width: 922
VWidth: 2334
GlyphClass: 2
Flags: W
HStem: -25 150<175 532.719> 712 150<331 640.338> 1250 150<413 894>
VStem: 667 150<333.625 685.731>
LayerCount: 2
Fore
SplineSet
299 712 m 1
 175 125 l 1
 370 125 l 2
 521 125 590 182 621 328 c 2
 658 501 l 2
 664 529 667 554 667 576 c 3
 667 648 638 712 525 712 c 2
 299 712 l 1
525 862 m 2
 709 862 817 745 817 576 c 3
 817 542 812 506 804 469 c 2
 767 296 l 2
 727 110 622 -25 370 -25 c 2
 -11 -25 l 1
 291 1400 l 1
 926 1400 l 1
 894 1250 l 1
 413 1250 l 1
 331 862 l 1
 525 862 l 2
EndSplineSet
Validated: 3073
EndChar

StartChar: Gecyrillic
Encoding: 1043 1043 299
Width: 922
VWidth: 2334
GlyphClass: 2
Flags: W
HStem: 0 21G<-6 151.259> 1249 151<413 985>
LayerCount: 2
Fore
SplineSet
147 0 m 1
 -6 0 l 1
 291 1400 l 1
 1015 1400 l 1
 985 1249 l 1
 413 1249 l 1
 147 0 l 1
EndSplineSet
Validated: 3073
EndChar

StartChar: Decyrillic
Encoding: 1044 1044 300
Width: 922
VWidth: 1947
GlyphClass: 2
Flags: W
HStem: 0 151<226 565> 1250 150<724.037 797>
VStem: -60 104<-162 -95.6448>
LayerCount: 2
Fore
SplineSet
226 151 m 1
 565 151 l 1
 797 1250 l 1
 787 1250 l 1
 689 1206 557 1043 519 940 c 2
 226 151 l 1
379 992 m 2
 420 1102 570 1331 759 1400 c 1
 983 1400 l 1
 718 151 l 1
 809 151 l 1
 776 -4 l 1
 697 -162 l 1
 588 -162 l 1
 623 0 l 1
 79 0 l 1
 44 -162 l 1
 -60 -162 l 1
 -75 3 l 1
 -43 151 l 1
 66 151 l 1
 379 992 l 2
EndSplineSet
Validated: 3073
EndChar

StartChar: Zhecyrillic
Encoding: 1046 1046 302
Width: 922
VWidth: 1947
GlyphClass: 2
Flags: W
HStem: 0 21G<-82 97.1402 273 430.278 618.512 771> 1380 20G<229 381.548 896.953 1075>
LayerCount: 2
Fore
SplineSet
-82 0 m 1
 282 716 l 1
 229 1400 l 1
 380 1400 l 1
 431 741 l 1
 560 1350 l 1
 713 1350 l 1
 589 767 l 1
 907 1400 l 1
 1075 1400 l 1
 719 692 l 1
 771 0 l 1
 620 -0 l 1
 588 430 l 1
 466 187 l 1
 426 -0 l 1
 375 0 324 0 273 -0 c 1
 320 221 l 1
 304 428 l 1
 87 -0 l 1
 31 0 -26 0 -82 0 c 1
EndSplineSet
Validated: 3073
EndChar

StartChar: Zecyrillic
Encoding: 1047 1047 303
Width: 922
VWidth: 1947
GlyphClass: 2
Flags: W
HStem: -25 150<209.438 503.575> 734 150<361 621.999> 1275 150<460.838 732.352>
VStem: 34 150<157.045 242> 657 150<322.846 701.483> 752 150<1003.22 1257.76>
LayerCount: 2
Fore
SplineSet
752 1159 m 3xf4
 752 1263 684 1275 645 1275 c 2
 607 1275 l 2
 523 1275 432 1232 385 1152 c 1
 257 1228 l 1
 336 1360 479 1425 607 1425 c 2
 645 1425 l 2
 835 1425 902 1292 902 1159 c 3xf4
 902 1129 898 1101 892 1074 c 2
 883 1033 l 2
 865 951 803 866 721 808 c 1
 772 755 807 672 807 550 c 3
 807 501 800 449 790 400 c 2
 785 380 l 2
 733 131 591 -25 370 -25 c 2
 332 -25 l 2
 182 -25 34 61 34 242 c 1
 184 242 l 1
 184 132 300 125 332 125 c 2
 370 125 l 2
 531 125 606 257 639 414 c 2
 644 434 l 2
 653 474 657 513 657 550 c 3xf8
 657 659 622 734 530 734 c 2
 326 734 l 17
 361 884 l 9
 515 886 l 2
 612 887 721 987 737 1065 c 2
 746 1106 l 2
 750 1122 752 1141 752 1159 c 3xf4
EndSplineSet
Validated: 3073
EndChar

StartChar: Iicyrillic
Encoding: 1048 1048 304
Width: 922
VWidth: 1947
GlyphClass: 2
Flags: W
HStem: 0 21G<-5 157.69 552 709.257> 1380 20G<287.757 445 845.199 1003>
LayerCount: 2
Fore
SplineSet
-5 0 m 1
 292 1400 l 1
 445 1400 l 1
 241 436 l 1
 858 1400 l 1
 1003 1400 l 1
 705 0 l 1
 552 0 l 1
 756 963 l 1
 145 0 l 1
 -5 0 l 1
EndSplineSet
Validated: 3073
EndChar

StartChar: Elcyrillic
Encoding: 1051 1051 307
Width: 922
VWidth: 1947
GlyphClass: 2
Flags: W
HStem: 0 21G<-47 123.388 552 709.257> 1250 150<712.835 817>
LayerCount: 2
Fore
SplineSet
370 995 m 2
 417 1107 555 1326 759 1400 c 1
 1003 1400 l 1
 705 0 l 1
 552 0 l 1
 817 1250 l 1
 786 1250 l 1
 675 1203 556 1051 508 937 c 2
 115 0 l 1
 -47 0 l 1
 370 995 l 2
EndSplineSet
Validated: 3073
EndChar

StartChar: Pecyrillic
Encoding: 1055 1055 311
Width: 922
VWidth: 1947
GlyphClass: 2
Flags: W
HStem: 0 21G<-6 151.256 552 709.257> 1250 150<413 817>
LayerCount: 2
Fore
SplineSet
147 0 m 1
 -6 0 l 1
 291 1400 l 1
 1003 1400 l 1
 705 0 l 1
 552 0 l 1
 817 1250 l 1
 413 1250 l 1
 147 0 l 1
EndSplineSet
Validated: 3073
EndChar

StartChar: Ucyrillic
Encoding: 1059 1059 315
Width: 922
VWidth: 1947
GlyphClass: 2
Flags: W
HStem: -25 150<117.406 295.387> -8 138<115.888 299.965> 1380 20G<282 437.396 855.993 1029>
LayerCount: 2
Fore
SplineSet
481 182 m 2xa0
 397 -4 275 -24 201 -25 c 2
 172 -25 l 2xa0
 142 -25 111 -18 85 -8 c 2
 57 4 l 1
 117 142 l 1
 143 130 l 2x60
 153 126 162 125 172 125 c 2
 199 125 l 2
 248 126 297 140 345 246 c 2
 441 459 l 1
 282 1400 l 1
 434 1400 l 1
 552 705 l 1
 865 1400 l 1
 1029 1400 l 1
 481 182 l 2xa0
EndSplineSet
Validated: 3073
EndChar

StartChar: Efcyrillic
Encoding: 1060 1060 316
Width: 922
VWidth: 1947
GlyphClass: 2
Flags: W
HStem: -24 21G<268 425.151> 1177 147<707 758.86> 1405 20G<571.67 729>
VStem: 55 150<286.989 762.495> 803 150<690.688 1136.96>
LayerCount: 2
Fore
SplineSet
323 235 m 1
 522 1170 l 1
 435 1145 315 1058 250 763 c 2
 229 667 l 2
 212 586 205 519 205 463 c 3
 205 302 263 250 323 235 c 1
676 1177 m 1
 478 243 l 1
 637 296 718 504 752 661 c 2
 781 797 l 2
 789 833 803 905 803 978 c 3
 803 1113 757 1165 676 1177 c 1
421 -24 m 1
 268 -24 l 1
 292 88 l 1
 156 118 55 236 55 463 c 3
 55 532 64 610 83 699 c 2
 104 795 l 2
 202 1243 434 1317 555 1328 c 1
 576 1425 l 1
 729 1425 l 1
 707 1324 l 1
 831 1302 953 1215 953 978 c 3
 953 911 943 840 927 765 c 2
 898 629 l 2
 840 358 694 109 443 82 c 1
 421 -24 l 1
EndSplineSet
Validated: 3073
EndChar

StartChar: Tsecyrillic
Encoding: 1062 1062 318
Width: 922
VWidth: 1947
GlyphClass: 2
Flags: W
HStem: 0 150<180 515> 1380 20G<286.786 443 774.776 932>
LayerCount: 2
Fore
SplineSet
180 150 m 1
 515 150 l 1
 779 1400 l 1
 932 1400 l 1
 675 150 l 1
 791 150 l 1
 755 -17 l 1
 564 -238 l 1
 452 -140 l 1
 572 -3 l 1
 572 0 l 1
 -4 0 l 1
 291 1400 l 1
 443 1400 l 1
 180 150 l 1
EndSplineSet
Validated: 3073
EndChar

StartChar: Checyrillic
Encoding: 1063 1063 319
Width: 922
VWidth: 1947
GlyphClass: 2
Flags: W
HStem: 0 21G<552 709.257> 437 150<336.453 645> 1380 20G<287.719 445 845.744 1003>
VStem: 158 150<620.508 860.995>
LayerCount: 2
Fore
SplineSet
705 0 m 1
 552 0 l 1
 645 437 l 1
 449 437 l 2
 290 437 158 532 158 727 c 3
 158 760 163 795 170 830 c 2
 292 1400 l 1
 445 1400 l 1
 316 798 l 2
 310 771 308 748 308 727 c 3
 308 645 344 587 449 587 c 2
 677 587 l 1
 850 1400 l 1
 1003 1400 l 1
 705 0 l 1
EndSplineSet
Validated: 3073
EndChar

StartChar: Shacyrillic
Encoding: 1064 1064 320
Width: 922
VWidth: 1947
GlyphClass: 2
Flags: W
HStem: 0 150<130 306 459 635> 1380 20G<236.786 393 894.776 1051>
LayerCount: 2
Fore
SplineSet
459 150 m 1
 635 150 l 1
 899 1400 l 1
 1051 1400 l 1
 757 0 l 1
 -54 0 l 1
 241 1400 l 1
 393 1400 l 1
 130 150 l 1
 306 150 l 1
 525 1184 l 1
 678 1184 l 1
 459 150 l 1
EndSplineSet
Validated: 3073
EndChar

StartChar: Shchacyrillic
Encoding: 1065 1065 321
Width: 922
VWidth: 1947
GlyphClass: 2
Flags: W
HStem: 0 150<130 281 434 585> 1380 20G<233.829 391 841.824 998>
LayerCount: 2
Fore
SplineSet
608 0 m 1
 -54 0 l 1
 238 1400 l 1
 391 1400 l 1
 130 150 l 1
 281 150 l 1
 496 1184 l 1
 649 1184 l 1
 434 150 l 1
 585 150 l 1
 846 1400 l 1
 998 1400 l 1
 732 150 l 1
 822 150 l 1
 787 -15 l 1
 594 -239 l 1
 482 -139 l 1
 608 0 l 1
EndSplineSet
Validated: 3073
EndChar

StartChar: Hardsigncyrillic
Encoding: 1066 1066 322
Width: 922
VWidth: 1947
GlyphClass: 2
Flags: W
HStem: 0 150<330 547.763> 672 150<472 640.878> 1227 173<341 405>
VStem: 658 150<306.447 659.015>
LayerCount: 2
Fore
SplineSet
440 672 m 1
 330 150 l 1
 436 150 l 2
 550 150 606 253 627 353 c 2
 650 461 l 2
 656 489 658 515 658 538 c 3
 658 617 631 672 577 672 c 2
 440 672 l 1
577 822 m 2
 723 822 808 700 808 538 c 3
 808 503 804 466 796 429 c 2
 773 321 l 2
 728 110 594 0 436 0 c 2
 146 0 l 1
 405 1227 l 1
 341 1227 l 1
 201 959 l 1
 152 959 l 1
 246 1400 l 1
 594 1400 l 1
 472 822 l 1
 577 822 l 2
EndSplineSet
Validated: 3073
EndChar

StartChar: Yericyrillic
Encoding: 1067 1067 323
Width: 922
VWidth: 1947
GlyphClass: 2
Flags: W
HStem: 0 151<151 288.859> 1380 20G<259.729 418 878.786 1035>
VStem: 418 150<455.404 694.433>
LayerCount: 2
Fore
SplineSet
304 871 m 1
 462 861 568 756 568 586 c 3
 568 552 564 516 556 479 c 2
 523 322 l 2
 484 136 378 0 126 0 c 2
 -35 0 l 1
 264 1400 l 1
 418 1400 l 1
 304 871 l 1
273 722 m 1
 151 151 l 1
 285 157 348 214 377 352 c 2
 410 511 l 2
 416 539 418 565 418 586 c 3
 418 657 390 722 278 722 c 2
 273 722 l 1
740 0 m 1
 588 0 l 1
 883 1400 l 1
 1035 1400 l 1
 740 0 l 1
EndSplineSet
Validated: 3073
EndChar

StartChar: Softsigncyrillic
Encoding: 1068 1068 324
Width: 922
VWidth: 1947
GlyphClass: 2
Flags: W
HStem: 0 150<181 538.719> 672 150<323 631.239> 1380 20G<287.757 445>
VStem: 658 150<303.037 642.794>
LayerCount: 2
Fore
SplineSet
292 672 m 1
 181 150 l 1
 376 150 l 2
 527 150 596 207 627 353 c 2
 650 461 l 2
 656 489 658 514 658 535 c 3
 658 607 630 672 517 672 c 2
 292 672 l 1
517 822 m 2
 696 822 808 709 808 535 c 3
 808 502 804 466 796 429 c 2
 773 321 l 2
 733 135 628 0 376 0 c 2
 -5 0 l 1
 292 1400 l 1
 445 1400 l 1
 323 822 l 1
 517 822 l 2
EndSplineSet
Validated: 3073
EndChar

StartChar: Ereversedcyrillic
Encoding: 1069 1069 325
Width: 922
VWidth: 1947
GlyphClass: 2
Flags: W
HStem: -25 150<287.522 466.847> 681 150<426 706> 1040 21G<348.129 419.5> 1275 150<522.615 706.391>
VStem: 94 150<172.669 305.765> 755 150<832.822 1224.77>
LayerCount: 2
Fore
SplineSet
755 1009 m 3
 755 1067 744 1275 637 1275 c 2
 621 1275 l 2
 529 1275 447 1160 392 1040 c 1
 256 1102 l 1
 349 1306 475 1425 621 1425 c 2
 637 1425 l 2
 842 1425 905 1200 905 1009 c 3
 905 933 895 851 877 765 c 2
 848 629 l 2
 744 143 561 -25 369 -25 c 2
 353 -25 l 2
 276 -25 112 4 94 305 c 1
 244 313 l 1
 258 144 330 125 353 125 c 2
 369 125 l 2
 470 125 618 275 702 661 c 2
 706 681 l 1
 391 681 l 1
 426 831 l 1
 738 830 l 1
 750 894 755 954 755 1009 c 3
EndSplineSet
Validated: 3073
EndChar

StartChar: IUcyrillic
Encoding: 1070 1070 326
Width: 922
VWidth: 1947
GlyphClass: 2
Flags: W
HStem: -25 151<484.909 594.995> 0 21G<-56 100.288> 625 150<261 374> 1275 150<717.539 811.66> 1380 20G<237.743 395>
VStem: 323 153<128.115 595.656> 821 151<807.633 1272.49>
LayerCount: 2
Fore
SplineSet
511 -25 m 3xb6
 397 -25 323 67 323 267 c 3
 323 343 334 436 357 545 c 2
 374 625 l 1
 230 625 l 1
 96 0 l 1
 -56 0 l 1
 242 1400 l 1
 395 1400 l 1x6e
 261 775 l 1
 406 775 l 1
 435 913 l 2
 452 989 567 1425 786 1425 c 3
 930 1425 972 1281 972 1125 c 3
 972 1041 960 953 945 881 c 2
 866 512 l 2
 807 238 720 -25 511 -25 c 3xb6
515 126 m 3xb6
 620 126 664 283 720 544 c 2
 799 913 l 2
 813 980 821 1059 821 1126 c 3
 821 1210 809 1275 781 1275 c 3
 729 1275 641 1161 581 881 c 2
 503 515 l 2
 487 438 476 344 476 268 c 3
 476 187 488 126 515 126 c 3xb6
EndSplineSet
Validated: 3073
EndChar

StartChar: IAcyrillic
Encoding: 1071 1071 327
Width: 922
VWidth: 1947
GlyphClass: 2
Flags: W
HStem: 0 21G<-57 136.146 552 709.257> 642 150<545 688> 1250 150<448.117 817>
VStem: 193 150<808.161 1007.07>
LayerCount: 2
Fore
SplineSet
688 642 m 1
 545 642 l 1
 123 0 l 1
 -57 0 l 1
 374 656 l 1
 289 678 193 735 193 892 c 3
 193 924 197 956 204 988 c 2
 223 1079 l 2
 271 1310 399 1400 622 1400 c 2
 1003 1400 l 1
 705 0 l 1
 552 0 l 1
 688 642 l 1
343 892 m 3
 343 796 420 792 493 792 c 2
 720 792 l 1
 817 1250 l 1
 622 1250 l 2
 458 1250 401 1198 369 1047 c 2
 350 958 l 2
 347 945 343 919 343 892 c 3
EndSplineSet
Validated: 3073
EndChar

StartChar: becyrillic
Encoding: 1073 1073 329
Width: 922
VWidth: 1947
GlyphClass: 2
Flags: W
HStem: -25 150<271.133 498.646> 1250 150<522 895>
VStem: 74 150<165.182 575.75> 700 150<485.438 879.17>
LayerCount: 2
Fore
SplineSet
565 899 m 2
 547 899 l 2
 381 899 301 725 270 581 c 2
 234 411 l 2
 227 378 224 347 224 318 c 3
 224 207 271 125 352 125 c 2
 370 125 l 2
 535 125 615 296 646 443 c 2
 682 613 l 2
 697 683 700 728 700 757 c 3
 700 893 636 899 565 899 c 2
297 1400 m 1
 926 1400 l 1
 895 1250 l 1
 522 1250 l 1
 740 1033 l 2
 789 985 850 884 850 757 c 3
 850 687 836 615 828 581 c 2
 792 411 l 2
 740 166 599 -25 370 -25 c 2
 352 -25 l 2
 185 -25 74 120 74 318 c 3
 74 358 79 400 88 443 c 2
 124 613 l 2
 173 839 300 1024 504 1047 c 1
 275 1299 l 1
 297 1400 l 1
EndSplineSet
Validated: 3073
EndChar

StartChar: vecyrillic
Encoding: 1074 1074 330
Width: 922
VWidth: 2334
GlyphClass: 2
Flags: W
HStem: 0 150<229.825 550.239> 1274 150<424.391 665.872>
VStem: 56 150<176.973 467.734> 647 150<246.4 455.398> 671 150<1017.25 1265.67>
LayerCount: 2
Fore
SplineSet
671 1210 m 3xe8
 671 1268 605 1274 574 1274 c 2
 542 1274 l 2
 438 1274 411 1232 396 1168 c 2
 280 625 l 1
 387 648 609 904 647 1080 c 2xf0
 666 1166 l 2
 668 1177 671 1206 671 1210 c 3xe8
647 379 m 3
 647 469 552 474 494 474 c 2
 248 474 l 1
 210 296 l 2
 207 282 206 270 206 259 c 3
 206 154 334 150 356 150 c 2
 395 150 l 2
 603 150 647 315 647 379 c 3
797 379 m 3
 797 227 685 0 395 0 c 2
 356 0 l 2
 184 0 56 104 56 259 c 3
 56 281 59 304 64 328 c 2
 250 1200 l 2
 265 1270 315 1424 542 1424 c 2
 574 1424 l 2
 779 1424 821 1292 821 1210 c 3xe8
 821 1194 820 1177 815 1156 c 2
 792 1048 l 2
 762 908 650 740 532 622 c 1
 744 607 797 476 797 379 c 3
EndSplineSet
Validated: 3073
EndChar

StartChar: gecyrillic
Encoding: 1075 1075 331
Width: 922
VWidth: 1947
GlyphClass: 2
Flags: W
HStem: -25 150<189.772 486.787> 899 150<383.727 689.802>
VStem: 16 151<150.324 349.666> 627 146<267.584 324.142> 697 150<725.096 884.709>
LayerCount: 2
Fore
SplineSet
697 839 m 3xe8
 697 870 684 899 535 899 c 2
 517 899 l 2
 444 899 348 851 295 769 c 1
 169 851 l 1
 240 961 378 1049 517 1049 c 2
 535 1049 l 2
 648 1049 847 1037 847 839 c 3xe8
 847 743 787 605 669 555 c 2
 257 381 l 2
 196 356 182 305 178 286 c 2
 169 240 l 2
 167 232 167 225 167 218 c 3
 167 140 270 125 322 125 c 2
 370 125 l 2
 465 125 604 248 627 353 c 1
 773 321 l 1xf0
 738 160 548 -25 370 -25 c 2
 322 -25 l 2
 154 -25 16 66 16 218 c 3
 16 235 18 252 21 270 c 2
 30 316 l 2
 49 407 111 481 199 519 c 2
 613 695 l 2
 662 716 697 786 697 839 c 3xe8
EndSplineSet
Validated: 3073
EndChar

StartChar: decyrillic
Encoding: 1076 1076 332
Width: 922
VWidth: 1947
GlyphClass: 2
Flags: W
HStem: -25 150<271.133 498.646> 899 150<418.247 678.93> 1250 150<381.753 728.111>
VStem: 74 150<165.182 575.75> 771 150<988.828 1209.81>
LayerCount: 2
Fore
SplineSet
700 757 m 3
 700 893 633 899 565 899 c 2
 547 899 l 2
 381 899 301 725 270 581 c 2
 234 411 l 2
 227 378 224 347 224 318 c 3
 224 207 271 125 352 125 c 2
 370 125 l 2
 535 125 615 296 646 443 c 2
 682 613 l 2
 697 683 700 728 700 757 c 3
622 1400 m 2
 643 1400 l 2
 822 1400 921 1246 921 1067 c 3
 921 1032 917 997 910 965 c 2
 792 411 l 2
 740 166 599 -25 370 -25 c 2
 352 -25 l 2
 185 -25 74 120 74 318 c 3
 74 358 79 400 88 443 c 2
 124 613 l 2
 176 855 318 1049 547 1049 c 2
 565 1049 l 2
 618 1049 699 1040 762 988 c 1
 764 997 l 2
 769 1019 771 1043 771 1067 c 3
 771 1157 735 1250 637 1250 c 2
 622 1250 l 2
 479 1250 438 1248 379 1210 c 1
 301 1338 l 1
 396 1399 456 1400 622 1400 c 2
EndSplineSet
Validated: 3073
EndChar

StartChar: zhecyrillic
Encoding: 1078 1078 334
Width: 922
VWidth: 1947
GlyphClass: 2
Flags: W
HStem: -0 21G<-54 130.896 273 430.167 585.541 742> 1004 20G<486.725 644>
LayerCount: 2
Fore
SplineSet
-54 -0 m 1
 235 486 l 1
 122 1034 l 1
 268 1064 l 1
 382 514 l 1
 491 1024 l 1
 644 1024 l 1
 542 547 l 1
 882 1089 l 1
 1010 1009 l 1
 663 456 l 1
 742 0 l 1
 691 0 640 0 589 -0 c 1
 543 266 l 1
 451 120 l 1
 426 -0 l 1
 377 0 327 0 278 0 c 1
 273 0 l 1
 304 148 l 1
 279 269 l 1
 119 0 l 1
 61 0 4 0 -54 -0 c 1
EndSplineSet
Validated: 3073
EndChar

StartChar: zecyrillic
Encoding: 1079 1079 335
Width: 922
VWidth: 1947
GlyphClass: 2
Flags: W
HStem: -25 150<227.757 516.285> 485 150<384 589.724> 898 150<380.838 679.199>
VStem: 48 150<155.524 225> 624 150<228.915 454.82> 683 150<729.568 886.962>
LayerCount: 2
Fore
SplineSet
683 836 m 3xf4
 683 891 599 898 565 898 c 2
 527 898 l 2
 443 898 352 855 305 775 c 1
 177 851 l 1
 256 983 399 1048 527 1048 c 2
 565 1048 l 2
 786 1048 833 921 833 836 c 3xf4
 833 745 775 635 686 563 c 1
 744 511 774 438 774 361 c 3
 774 174 618 -25 370 -25 c 2
 352 -25 l 2
 115 -14 48 125 48 225 c 1
 198 225 l 1
 198 165 260 129 352 125 c 2
 370 125 l 2
 520 125 624 238 624 361 c 3xf8
 624 429 578 485 477 485 c 2
 349 485 l 1
 384 635 l 1
 478 635 l 2
 594 635 683 769 683 836 c 3xf4
EndSplineSet
Validated: 3073
EndChar

StartChar: iicyrillic
Encoding: 1080 1080 336
Width: 922
VWidth: 1947
GlyphClass: 2
Flags: W
HStem: -25 150<214.829 443.924> 0 21G<552 709.258> 1004 20G<206.732 364 765.722 923>
VStem: 51 150<139.905 465.906>
LayerCount: 2
Fore
SplineSet
332 -25 m 2xb0
 63 -25 51 186 51 214 c 3
 51 246 64 333 77 396 c 2
 211 1024 l 1
 364 1024 l 1
 223 364 l 2
 210 304 201 251 201 214 c 3
 201 163 222 125 332 125 c 2
 350 125 l 2xb0
 456 125 625 348 650 463 c 2
 770 1024 l 1
 923 1024 l 1
 705 0 l 1
 552 0 l 1x70
 567 73 l 1
 500 15 425 -25 350 -25 c 2
 332 -25 l 2xb0
EndSplineSet
Validated: 3073
EndChar

StartChar: kacyrillic
Encoding: 1082 1082 338
Width: 922
VWidth: 1947
GlyphClass: 2
Flags: W
HStem: 0 21G<-6 151.086 539.714 738> 1004 20G<206.762 364 795.37 838.548>
LayerCount: 2
Fore
SplineSet
147 -0 m 1
 -6 0 l 1
 211 1024 l 1
 364 1024 l 1
 250 485 l 1
 383 677 525 840 705 962 c 2
 825 1043 l 1
 909 919 l 1
 797 842 l 2
 689 768 600 678 520 582 c 1
 523 490 l 2
 528 343 595 201 634 146 c 2
 738 0 l 1
 554 0 l 1
 514 56 l 2
 463 127 400 261 380 410 c 1
 166 93 l 1
 147 -0 l 1
EndSplineSet
Validated: 3073
EndChar

StartChar: elcyrillic
Encoding: 1083 1083 339
Width: 922
VWidth: 1947
GlyphClass: 2
Flags: W
HStem: 0 21G<-46 129.389 552 709.258> 873 151<632.782 737>
LayerCount: 2
Fore
SplineSet
253 635 m 2
 313 763 479 951 679 1024 c 1
 923 1024 l 1
 705 0 l 1
 552 0 l 1
 737 873 l 1
 706 873 l 1
 587 824 440 682 389 573 c 2
 120 0 l 1
 -46 0 l 1
 253 635 l 2
EndSplineSet
Validated: 3073
EndChar

StartChar: emcyrillic
Encoding: 1084 1084 340
Width: 922
VWidth: 1947
GlyphClass: 2
Flags: W
HStem: 0 21G<-88 73.8466 633 785.695> 1004 20G<206.141 365.919 750.628 921>
LayerCount: 2
Fore
SplineSet
-88 0 m 1
 212 1024 l 1
 364 1024 l 1
 426 378 l 1
 761 1024 l 1
 921 1024 l 1
 783 -0 l 1
 633 0 l 1
 714 607 l 1
 436 75 l 1
 304 75 l 1
 251 626 l 1
 68 0 l 1
 -88 0 l 1
EndSplineSet
Validated: 3073
EndChar

StartChar: encyrillic
Encoding: 1085 1085 341
Width: 922
VWidth: 1947
GlyphClass: 2
Flags: W
HStem: 0 21G<-6 151.253 552 709.238> 395 150<263 636> 1004 20G<207.742 364 765.741 922>
LayerCount: 2
Fore
SplineSet
147 0 m 1
 -6 0 l 1
 212 1024 l 1
 364 1024 l 1
 263 545 l 1
 668 545 l 1
 770 1024 l 1
 922 1024 l 1
 705 0 l 1
 552 0 l 1
 636 395 l 1
 231 395 l 1
 147 0 l 1
EndSplineSet
Validated: 3073
EndChar

StartChar: tecyrillic
Encoding: 1090 1090 346
Width: 922
VWidth: 1947
GlyphClass: 2
Flags: W
HStem: 0 21G<-46 111.27 272 429.153 592 748.262> 899 154<329.696 447.994 650.752 771.443>
VStem: 773 149<759.656 897.328>
LayerCount: 2
Fore
SplineSet
-46 0 m 1
 179 1053 l 1
 332 1053 l 1
 327 1031 l 1
 358 1044 380 1049 411 1049 c 2
 421 1049 l 2
 496 1049 547 1019 571 985 c 1
 646 1048 704 1049 730 1049 c 2
 740 1049 l 2
 882 1049 922 968 922 876 c 3
 922 849 919 820 913 793 c 2
 744 0 l 1
 592 0 l 1
 767 825 l 2
 771 845 773 860 773 871 c 3
 773 897 761 899 740 899 c 2
 730 899 l 2
 666 899 590 797 572 708 c 2
 425 0 l 1
 272 0 l 1
 444 824 l 2
 448 844 450 859 450 870 c 3
 450 895 440 899 421 899 c 2
 411 899 l 2
 352 899 282 819 262 726 c 2
 107 0 l 1
 -46 0 l 1
EndSplineSet
Validated: 3073
EndChar

StartChar: efcyrillic
Encoding: 1092 1092 348
Width: 922
VWidth: 1947
GlyphClass: 2
Flags: W
HStem: -384 21G<191 347.29> -25 150<213.941 267 452 553.532> 1029 20G<491.652 649>
VStem: 26 150<156.742 459.61> 723 150<374.793 789.824>
LayerCount: 2
Fore
SplineSet
602 830 m 1
 452 125 l 1
 550 127 654 244 697 439 c 2
 716 528 l 2
 722 558 723 591 723 607 c 3
 723 698 698 772 667 806 c 0
 645 830 628 830 614 830 c 2
 602 830 l 1
26 334 m 3
 26 370 29 406 36 438 c 2
 53 528 l 2
 89 716 219 980 466 980 c 2
 481 980 l 1
 496 1049 l 1
 649 1049 l 1
 634 979 l 1
 668 976 724 966 778 908 c 0
 856 824 873 692 873 607 c 3
 873 568 869 531 862 498 c 2
 843 407 l 1
 780 114 607 -25 449 -25 c 2
 420 -25 l 1
 343 -384 l 1
 191 -384 l 1
 267 -25 l 1
 262 -25 l 2
 240 -25 150 -12 94 71 c 0
 65 114 26 201 26 334 c 3
176 334 m 3
 176 264 207 125 262 125 c 2
 299 125 l 1
 449 829 l 1
 333 816 238 675 201 498 c 2
 182 408 l 2
 178 388 176 361 176 334 c 3
EndSplineSet
Validated: 3073
EndChar

StartChar: tsecyrillic
Encoding: 1094 1094 350
Width: 922
VWidth: 1947
GlyphClass: 2
Flags: W
HStem: -25 150<213.842 443.924> 1004 20G<207.738 365 765.722 924>
VStem: 51 150<139.111 460.82> 604 150<-100.154 72.6291>
LayerCount: 2
Fore
SplineSet
332 -25 m 2
 60 -25 52 184 51 212 c 3
 51 258 59 305 69 353 c 2
 212 1024 l 1
 365 1024 l 1
 215 321 l 2
 204 267 201 234 201 212 c 3
 201 163 222 125 332 125 c 2
 350 125 l 2
 456 125 625 348 650 463 c 2
 770 1024 l 1
 924 1024 l 1
 726 94 l 1
 744 60 754 23 754 -16 c 3
 754 -128 674 -233 530 -297 c 1
 470 -159 l 1
 578 -111 604 -52 604 -16 c 3
 604 40 584 59 568 73 c 1
 501 15 425 -25 350 -25 c 2
 332 -25 l 2
EndSplineSet
Validated: 3073
EndChar

StartChar: checyrillic
Encoding: 1095 1095 351
Width: 922
VWidth: 1947
GlyphClass: 2
Flags: W
HStem: -0 21G<552 709.238> 352 150<296.892 523.498> 1004 20G<206.771 364 765.652 922>
VStem: 133 149<513.854 849.344>
LayerCount: 2
Fore
SplineSet
411 352 m 2
 193 352 133 459 133 593 c 3
 133 641 141 693 152 745 c 2
 211 1024 l 1
 364 1024 l 1
 298 713 l 2
 287 663 282 624 282 595 c 3
 282 516 322 502 411 502 c 2
 429 502 l 2
 524 502 701 708 730 840 c 2
 770 1024 l 1
 922 1024 l 1
 705 0 l 1
 654 0 603 0 552 -0 c 1
 649 455 l 1
 581 394 505 352 429 352 c 2
 411 352 l 2
EndSplineSet
Validated: 3073
EndChar

StartChar: shacyrillic
Encoding: 1096 1096 352
Width: 922
VWidth: 1947
GlyphClass: 2
Flags: W
HStem: -25 150<146.951 255.77 462.149 575.685> 0 21G<614 748.277> 1004 20G<167.763 325 486.744 644 805.727 963>
VStem: -5 147<125.219 263.63>
LayerCount: 2
Fore
SplineSet
177 -25 m 2xb0
 42 -25 -5 55 -5 152 c 3
 -5 178 -2 204 4 231 c 2
 172 1024 l 1
 325 1024 l 1
 150 199 l 2
 145 175 142 159 142 148 c 3
 142 125 153 125 177 125 c 2
 187 125 l 2
 247 125 327 253 348 352 c 2
 491 1024 l 1
 644 1024 l 1
 469 200 l 2
 464 177 462 161 462 150 c 3
 462 127 472 125 496 125 c 2
 506 125 l 2xb0
 562 125 637 240 663 336 c 1
 810 1024 l 1
 963 1024 l 1
 744 -0 l 1
 614 0 l 1x70
 621 24 l 1
 608 6 585 -25 506 -25 c 2
 496 -25 l 2
 410 -25 366 7 342 44 c 1
 271 -22 207 -25 187 -25 c 2
 177 -25 l 2xb0
EndSplineSet
Validated: 3073
EndChar

StartChar: shchacyrillic
Encoding: 1097 1097 353
Width: 922
VWidth: 1947
GlyphClass: 2
Flags: W
HStem: -25 150<147.765 255.327 465.676 574.77> 1004 20G<167.763 325 486.744 642 805.744 963>
VStem: -4 150<129.044 265.074> 642 150<-110.771 19.0753>
LayerCount: 2
Fore
SplineSet
177 -25 m 2
 46 -25 -4 62 -4 161 c 3
 -4 184 -1 208 4 231 c 2
 172 1024 l 1
 325 1024 l 1
 150 199 l 2
 147 186 146 175 146 166 c 3
 146 137 158 125 177 125 c 2
 187 125 l 2
 246 125 327 253 348 352 c 2
 491 1024 l 1
 642 1024 l 1
 469 200 l 2
 465 181 463 167 463 156 c 3
 463 131 474 125 496 125 c 2
 506 125 l 2
 566 125 646 253 667 352 c 2
 810 1024 l 1
 963 1024 l 1
 765 90 l 1
 782 52 792 15 792 -25 c 3
 792 -150 701 -254 563 -299 c 1
 517 -157 l 1
 602 -129 642 -77 642 -25 c 3
 642 -11 638 3 631 20 c 1
 576 -25 532 -25 506 -25 c 2
 496 -25 l 2
 410 -25 366 7 342 44 c 1
 272 -25 218 -25 187 -25 c 2
 177 -25 l 2
EndSplineSet
Validated: 3073
EndChar

StartChar: hardsigncyrillic
Encoding: 1098 1098 354
Width: 922
VWidth: 1947
GlyphClass: 2
Flags: W
HStem: 0 149<330 550.447> 486 150<433 599.226> 848 150<262 324>
VStem: 629 150<223.899 452.936>
LayerCount: 2
Fore
SplineSet
401 486 m 1
 330 149 l 1
 375 149 l 2
 501 150 593 194 611 274 c 2
 625 335 l 2
 627 344 629 369 629 376 c 3
 629 443 557 486 477 486 c 2
 401 486 l 1
477 636 m 2
 639 636 779 532 779 376 c 3
 779 360 775 326 771 305 c 2
 757 244 l 2
 714 58 525 1 375 0 c 2
 144 0 l 1
 324 848 l 1
 262 848 l 1
 127 572 l 1
 71 572 l 1
 160 998 l 1
 510 998 l 1
 433 636 l 1
 477 636 l 2
EndSplineSet
Validated: 3073
EndChar

StartChar: yericyrillic
Encoding: 1099 1099 355
Width: 922
VWidth: 1947
GlyphClass: 2
Flags: W
HStem: 0 150<130 311.944> 486 150<233 357.453> 1004 20G<157.781 315 811.781 969>
VStem: 380 150<293.147 462.792>
LayerCount: 2
Fore
SplineSet
233 636 m 1
 247 636 l 2
 404 636 530 535 530 383 c 3
 530 363 527 343 523 322 c 2
 507 244 l 2
 468 62 304 0 146 0 c 2
 -54 0 l 1
 162 1024 l 1
 315 1024 l 1
 233 636 l 1
130 150 m 1
 146 150 l 2
 241 150 340 176 361 274 c 2
 377 352 l 2
 379 363 380 374 380 383 c 3
 380 451 320 486 247 486 c 2
 201 486 l 1
 130 150 l 1
600 0 m 1
 816 1024 l 1
 969 1024 l 1
 752 0 l 1
 600 0 l 1
EndSplineSet
Validated: 3073
EndChar

StartChar: softsigncyrillic
Encoding: 1100 1100 356
Width: 922
VWidth: 1947
GlyphClass: 2
Flags: W
HStem: 0 150<180 553.68> 486 150<283 598.366> 1029 20G<212.786 370>
VStem: 629 150<287.435 451.565>
LayerCount: 2
Fore
SplineSet
283 636 m 1
 477 636 l 2
 637 636 779 532 779 376 c 3
 779 360 774 331 770 310 c 2
 757 244 l 2
 722 57 527 0 376 0 c 2
 -4 0 l 1
 217 1049 l 1
 370 1049 l 1
 283 636 l 1
180 150 m 1
 376 150 l 2
 500 150 593 193 611 274 c 2
 626 340 l 2
 628 349 629 369 629 376 c 3
 629 445 555 486 477 486 c 2
 251 486 l 1
 180 150 l 1
EndSplineSet
Validated: 3073
EndChar

StartChar: ereversedcyrillic
Encoding: 1101 1101 357
Width: 922
VWidth: 1947
GlyphClass: 2
Flags: W
HStem: -25 150<199.743 473.684> 437 150<329 630> 898 150<360.71 661.284>
VStem: 685 150<587.718 873.17>
LayerCount: 2
Fore
SplineSet
685 757 m 3
 685 881 617 898 550 898 c 2
 532 898 l 2
 403 898 348 864 314 796 c 1
 180 864 l 1
 249 999 368 1048 532 1048 c 2
 550 1048 l 2
 584 1048 835 1040 835 757 c 3
 835 707 820 615 813 581 c 2
 777 411 l 2
 726 171 558 -25 355 -25 c 2
 337 -25 l 2
 283 -25 59 -17 38 180 c 1
 188 196 l 1
 194 144 232 125 337 125 c 2
 355 125 l 2
 464 125 588 246 630 437 c 1
 294 437 l 1
 329 587 l 1
 661 587 l 1
 667 613 l 2
 682 683 685 728 685 757 c 3
EndSplineSet
Validated: 3073
EndChar

StartChar: iucyrillic
Encoding: 1102 1102 358
Width: 922
VWidth: 1947
GlyphClass: 2
Flags: W
HStem: -25 150<438.765 568.133> 0 21G<-46 111.256> 437 150<232 306> 899 150<603.814 745.604> 1004 20G<168.723 326>
VStem: 281 150<128.423 434.467> 751 150<543.875 895.95>
LayerCount: 2
Fore
SplineSet
431 232 m 3xb6
 431 130 460 125 481 125 c 2
 499 125 l 2
 536 125 627 167 685 443 c 2
 721 613 l 2
 743 718 751 783 751 825 c 3
 751 895 735 899 694 899 c 2
 676 899 l 2
 639 899 545 844 489 581 c 2
 453 412 l 2
 437 336 431 276 431 232 c 3xb6
107 0 m 1x66
 -46 0 l 1
 173 1024 l 1
 326 1024 l 1x6e
 232 587 l 1
 338 587 l 1
 343 613 l 2
 437 1016 609 1049 676 1049 c 2
 694 1049 l 2
 794 1049 901 1005 901 825 c 3
 901 756 887 677 867 581 c 2
 831 411 l 2
 808 301 725 -25 499 -25 c 2
 481 -25 l 2xb6
 446 -25 281 -18 281 232 c 3
 281 289 289 355 306 437 c 1
 200 437 l 1
 107 0 l 1x66
EndSplineSet
Validated: 3073
EndChar

StartChar: iacyrillic
Encoding: 1103 1103 359
Width: 922
VWidth: 1947
GlyphClass: 2
Flags: W
HStem: 0 21G<552 709.277> 412 150<508 640> 874 150<359.363 738>
VStem: 149 150<609.001 816.249>
LayerCount: 2
Fore
SplineSet
640 412 m 1
 508 412 l 1
 110 -32 l 1
 0 68 l 1
 328 437 l 1
 221 485 149 595 149 706 c 3
 149 728 152 750 157 769 c 2
 163 791 l 2
 203 977 391 1024 543 1024 c 2
 924 1024 l 1
 705 0 l 1
 552 0 l 1
 640 412 l 1
738 874 m 1
 543 874 l 2
 420 874 327 839 310 758 c 2
 303 733 l 2
 301 725 299 714 299 706 c 3
 299 641 361 562 444 562 c 2
 672 562 l 1
 738 874 l 1
EndSplineSet
Validated: 3073
EndChar

StartChar: ecyrillic
Encoding: 1108 1108 362
Width: 922
VWidth: 1708
GlyphClass: 2
Flags: W
HStem: -25 150<271.133 516.971> 437 150<271 566> 899 150<417.86 678.048>
VStem: 74 150<165.408 436.774>
CounterMasks: 1 e0
LayerCount: 2
Fore
SplineSet
698 816 m 1
 688 854 669 899 565 899 c 2
 547 899 l 2
 383 899 303 730 271 587 c 1
 601 587 l 1
 566 437 l 1
 240 437 l 1
 234 411 l 2
 227 377 224 346 224 317 c 3
 224 201 275 125 352 125 c 2
 370 125 l 2
 456 125 520 150 571 229 c 1
 697 147 l 1
 622 30 514 -25 370 -25 c 2
 352 -25 l 2
 185 -25 74 120 74 317 c 3
 74 357 79 400 88 443 c 2
 124 613 l 2
 176 855 317 1049 547 1049 c 2
 565 1049 l 2
 783 1049 832 897 846 844 c 1
 698 816 l 1
EndSplineSet
Validated: 3073
EndChar

StartChar: numero
Encoding: 8470 8470 372
Width: 922
VWidth: 1947
Flags: W
HStem: 0 21G<-93 64.2912 241.642 398.257> 471 151<731.224 801.948> 1149 151<846.932 919.169> 1380 20G<202.714 360.334 534.733 692>
VStem: 228 145<622 783> 600 130<624.506 909.567> 920 130<863.418 1146.26>
LayerCount: 2
Fore
SplineSet
896 1300 m 3
 977 1300 1050 1245 1050 1090 c 3
 1050 974 997 676 899 551 c 0
 842 478 817 471 752 471 c 3
 665 471 600 522 600 682 c 3
 600 802 653 1092 746 1216 c 0
 782 1264 829 1300 896 1300 c 3
892 1149 m 3
 821 1149 730 774 730 682 c 3
 730 645 735 622 758 622 c 3
 820 622 920 980 920 1090 c 3
 920 1135 917 1149 892 1149 c 3
-93 0 m 1
 207 1400 l 1
 360 1400 l 1
 373 622 l 1
 539 1400 l 1
 692 1400 l 1
 394 0 l 1
 242 0 l 1
 228 783 l 1
 60 0 l 1
 -93 0 l 1
EndSplineSet
Validated: 3073
EndChar

StartChar: caroncomb
Encoding: 780 780 377
Width: 922
VWidth: 1947
Flags: W
HStem: 1422 242
VStem: 435 487
LayerCount: 2
Fore
SplineSet
660 1552 m 1
 844 1664 l 1
 922 1536 l 1
 735 1422 l 1
 581 1422 l 1
 435 1542 l 1
 531 1658 l 1
 660 1552 l 1
EndSplineSet
Validated: 3073
EndChar

StartChar: gravecomb
Encoding: 768 768 379
Width: 922
VWidth: 2334
Flags: MW
HStem: 1329 387
VStem: 499 356
DStem2: 655 1716 499 1601 0.59239 -0.805651<0.236946 337.615>
LayerCount: 2
Fore
SplineSet
855 1444 m 5
 699 1329 l 5
 499 1601 l 5
 655 1716 l 5
 855 1444 l 5
EndSplineSet
EndChar

StartChar: acutecomb
Encoding: 769 769 380
Width: 922
VWidth: 2334
Flags: MW
HStem: 1313 419
VStem: 376 442
DStem2: 376 1461 503 1313 0.758066 0.652178<0 415.283>
LayerCount: 2
Fore
SplineSet
503 1313 m 5
 376 1461 l 5
 691 1732 l 5
 818 1584 l 5
 503 1313 l 5
EndSplineSet
EndChar

StartChar: tildecomb
Encoding: 771 771 381
Width: 922
VWidth: 1947
Flags: W
HStem: 1447 150<662.199 795.504> 1537 150<403.835 535.755>
LayerCount: 2
Fore
SplineSet
279 1581 m 2x80
 323 1625 391 1687 492 1687 c 2
 508 1687 l 2x40
 556 1687 611 1666 646 1627 c 2
 662 1609 l 2
 666 1605 686 1597 700 1597 c 2
 717 1597 l 2
 750 1597 782 1626 816 1661 c 2
 838 1684 l 1
 946 1580 l 1
 924 1557 l 2
 877 1508 809 1447 707 1447 c 2
 690 1447 l 2x80
 641 1447 587 1468 550 1509 c 2
 536 1525 l 2
 531 1530 511 1537 498 1537 c 2
 482 1537 l 2x40
 457 1537 427 1517 385 1475 c 2
 359 1447 l 1
 253 1555 l 1
 279 1581 l 2x80
EndSplineSet
Validated: 3073
EndChar

StartChar: hookabovecomb
Encoding: 777 777 382
Width: 922
VWidth: 1947
Flags: W
HStem: 1558 123<489.797 776.638>
VStem: 781 138<1456.12 1549.03>
LayerCount: 2
Fore
SplineSet
679 1681 m 3
 892 1681 919 1557 919 1515 c 3
 919 1435 876 1328 682 1314 c 1
 666 1239 l 1
 520 1271 l 1
 558 1434 l 1
 619 1434 l 2
 739 1437 781 1477 781 1506 c 3
 781 1537 732 1558 679 1558 c 3
 616 1558 566 1547 504 1511 c 1
 428 1614 l 1
 502 1657 576 1681 679 1681 c 3
EndSplineSet
Validated: 3073
EndChar

StartChar: dotbelowcomb
Encoding: 803 803 383
Width: 922
VWidth: 2334
Flags: W
HStem: -386 266<192.907 389.837>
VStem: 159 266<-351.29 -154.71>
LayerCount: 2
Fore
SplineSet
159 -253 m 27
 159 -180 217 -120 291 -120 c 27
 364 -120 425 -180 425 -253 c 27
 425 -326 364 -386 291 -386 c 27
 217 -386 159 -326 159 -253 c 27
EndSplineSet
EndChar

StartChar: commaturnedabovecmb
Encoding: 786 786 396
Width: 922
VWidth: 1947
Flags: W
HStem: -486 150<180.838 444.623> -180 208<311 444.008>
VStem: 311 151<-43.4086 28> 462 134<-313.366 -189.727>
LayerCount: 2
Fore
SplineSet
462 28 m 1
 462 -10 l 1
 445 -67 l 1
 545 -91 596 -151 596 -241 c 27
 596 -390 456 -486 302 -486 c 3
 203 -486 118 -444 62 -384 c 1
 172 -283 l 1
 200 -313 245 -336 302 -336 c 3
 381 -336 462 -316 462 -241 c 3
 462 -214 433 -180 359 -180 c 2
 260 -180 l 1
 311 10 l 1
 311 28 l 1
 462 28 l 1
EndSplineSet
Validated: 3073
EndChar

StartChar: Hbar
Encoding: 294 294 400
Width: 922
VWidth: 1947
Flags: W
HStem: 0 21G<-6 151.231 552 709.256> 657 150<318 692> 1095 150<202 227 411 785 969 995> 1380 20G<287.742 444 845.742 1002>
LayerCount: 2
Fore
SplineSet
318 807 m 1
 723 807 l 1
 785 1095 l 1
 380 1095 l 1
 318 807 l 1
147 0 m 1
 -6 0 l 1
 227 1095 l 1
 170 1095 l 1
 202 1245 l 1
 259 1245 l 1
 292 1400 l 1
 444 1400 l 1
 411 1245 l 1
 817 1245 l 1
 850 1400 l 1
 1002 1400 l 1
 969 1245 l 1
 1027 1245 l 1
 995 1095 l 1
 938 1095 l 1
 705 0 l 1
 552 0 l 1
 692 657 l 1
 286 657 l 1
 147 0 l 1
EndSplineSet
Validated: 3073
EndChar

StartChar: hbar
Encoding: 295 295 401
Width: 922
VWidth: 1947
Flags: W
HStem: 0 21G<-6 151.244 552 709.239> 899 150<447.535 707.109> 1205 150<223 250 435 677> 1380 20G<287 444>
VStem: 716 150<670.75 886.766>
LayerCount: 2
Fore
SplineSet
565 1049 m 2
 849 1049 866 954 866 802 c 3
 866 770 861 737 854 703 c 2
 705 0 l 1
 552 0 l 1
 708 735 l 2
 711 748 716 785 716 802 c 3
 716 872 702 899 565 899 c 2
 547 899 l 2
 443 899 297 707 272 589 c 2
 147 0 l 1
 -6 0 l 1
 250 1205 l 1
 192 1205 l 1
 223 1355 l 1
 282 1355 l 1
 291 1400 l 1
 444 1400 l 1
 435 1355 l 1
 708 1355 l 1
 677 1205 l 1
 403 1205 l 1
 353 971 l 1
 412 1018 478 1049 547 1049 c 2
 565 1049 l 2
EndSplineSet
Validated: 3073
EndChar

StartChar: IJ
Encoding: 306 306 410
Width: 922
VWidth: 1947
Flags: W
HStem: 0 150<-38 117 269 449> 262 150<387 535.033> 1250 150<225 349 501 728 880 1036>
LayerCount: 2
Fore
SplineSet
449 0 m 1
 -70 0 l 1
 -38 150 l 1
 117 150 l 1
 349 1250 l 1
 193 1250 l 1
 225 1400 l 1
 1068 1400 l 1
 1036 1250 l 1
 880 1250 l 1
 738 581 l 2
 670 264 523 262 475 262 c 2
 387 262 l 1
 387 412 l 1
 475 412 l 2
 501 412 553 432 592 613 c 2
 728 1250 l 1
 501 1250 l 1
 269 150 l 1
 482 150 l 1
 449 0 l 1
EndSplineSet
Validated: 3073
EndChar

StartChar: Tbar
Encoding: 358 358 430
Width: 922
VWidth: 1947
Flags: W
HStem: 0 21G<274 430.247> 485 150<93 376 561 843> 1250 150<256 539 691 1006>
LayerCount: 2
Fore
SplineSet
256 1400 m 1
 1038 1400 l 1
 1006 1250 l 1
 691 1250 l 1
 561 635 l 1
 875 635 l 1
 843 485 l 1
 529 485 l 1
 426 0 l 1
 274 0 l 1
 376 485 l 1
 61 485 l 1
 93 635 l 1
 408 635 l 1
 539 1250 l 1
 224 1250 l 1
 256 1400 l 1
EndSplineSet
Validated: 3073
EndChar

StartChar: tbar
Encoding: 359 359 431
Width: 922
VWidth: 1947
Flags: W
HStem: -25 150<370.797 558.956> 485 150<114 274 461 833> 858 150<193 355 540 811> 1405 20G<471.731 629>
VStem: 215 150<131.043 264.616>
LayerCount: 2
Fore
SplineSet
745 198 m 1
 716 70 588 -25 457 -25 c 2
 439 -25 l 2
 311 -25 215 70 215 182 c 3
 215 191 215 203 220 231 c 2
 274 485 l 1
 82 485 l 1
 114 635 l 1
 307 635 l 1
 355 858 l 1
 161 858 l 1
 193 1008 l 1
 387 1008 l 1
 476 1425 l 1
 629 1425 l 1
 540 1008 l 1
 843 1008 l 1
 811 858 l 1
 508 858 l 1
 461 635 l 1
 865 635 l 1
 833 485 l 1
 429 485 l 1
 368 201 l 2
 366 191 365 186 365 182 c 3
 365 151 397 125 439 125 c 2
 457 125 l 2
 519 125 586 174 599 232 c 1
 745 198 l 1
EndSplineSet
Validated: 3073
EndChar

StartChar: A
Encoding: 65 65 461
Width: 922
VWidth: 1708
Flags: W
HStem: -0 21G<-30 142.594 575.759 726> 249 150<306 572> 1405 20G<576.368 711.211>
VStem: 566 145<63.08 249 399 1001> 573 153<0 249 399 1001>
LayerCount: 2
Fore
SplineSet
306 399 m 1xf0
 572 399 l 1
 566 1001 l 1
 306 399 l 1xf0
134 0 m 1
 -30 -0 l 1
 585 1425 l 1
 711 1425 l 1xf0
 726 0 l 1
 576 0 l 1
 573 249 l 1xe8
 241 249 l 1
 134 0 l 1
EndSplineSet
Validated: 3073
EndChar

StartChar: Lambda
Encoding: 923 923 462
Width: 922
VWidth: 1708
Flags: W
HStem: -0 21G<-32 140.663 576.78 727> 1405 20G<576.34 711.225>
VStem: 566 145<148.2 1002> 577 150<0 1002>
LayerCount: 2
Fore
SplineSet
132 0 m 1xe0
 -32 -0 l 1
 585 1425 l 1
 711 1425 l 1xe0
 727 0 l 1
 577 0 l 1xd0
 566 1002 l 1
 132 0 l 1xe0
EndSplineSet
Validated: 3073
EndChar

StartChar: Delta
Encoding: 916 916 463
Width: 922
VWidth: 1708
Flags: W
HStem: 0 150<201 570> 1405 20G<576.411 711.154>
VStem: 570 152<150 996>
LayerCount: 2
Fore
SplineSet
570 150 m 1
 565 996 l 1
 201 150 l 1
 570 150 l 1
-27 0 m 1
 585 1425 l 1
 711 1425 l 1
 722 0 l 1
 -27 0 l 1
EndSplineSet
Validated: 3073
EndChar

StartChar: Theta
Encoding: 920 920 464
Width: 922
VWidth: 1947
Flags: W
HStem: -25 150<281.449 467.361> 624 150<394 604> 1275 150<529.525 703.354>
VStem: 93 150<159.795 707.75> 755 150<699.188 1225.99>
LayerCount: 2
Fore
SplineSet
636 774 m 1
 604 624 l 1
 362 624 l 1
 394 774 l 1
 636 774 l 1
755 1009 m 3
 755 1067 748 1275 637 1275 c 2
 621 1275 l 2
 493 1275 361 1032 300 763 c 2
 279 667 l 2
 255 552 243 452 243 369 c 3
 243 208 280 125 353 125 c 2
 369 125 l 2
 470 125 618 275 702 661 c 2
 731 797 l 2
 747 873 755 945 755 1009 c 3
905 1009 m 3
 905 933 895 851 877 765 c 2
 848 629 l 2
 751 181 561 -25 369 -25 c 2
 353 -25 l 2
 240 -25 93 42 93 369 c 3
 93 466 107 577 133 699 c 2
 154 795 l 2
 212 1051 364 1425 621 1425 c 2
 637 1425 l 2
 828 1425 905 1234 905 1009 c 3
EndSplineSet
Validated: 3073
EndChar

StartChar: Xi
Encoding: 926 926 465
Width: 922
VWidth: 1708
Flags: W
HStem: 0 336<67 180 624 707> 0 150<180 585> 625 150<329 674> 1050 350<291 370 817 928> 1250 150<413 817>
LayerCount: 2
Fore
SplineSet
180 150 m 1x60
 585 150 l 1x60
 624 336 l 1
 775 336 l 1
 707 0 l 1xa0
 -4 0 l 1x60
 67 336 l 1
 217 336 l 1xa0
 180 150 l 1x60
707 775 m 1
 674 625 l 1
 296 625 l 1
 329 775 l 1
 707 775 l 1
370 1050 m 1x30
 217 1050 l 1
 291 1400 l 1x30
 1003 1400 l 1x28
 928 1050 l 1
 775 1050 l 1x30
 817 1250 l 1
 413 1250 l 1x28
 370 1050 l 1x30
EndSplineSet
Validated: 3073
EndChar

StartChar: Sigma
Encoding: 931 931 468
Width: 922
VWidth: 1947
Flags: W
HStem: -25 150<192 717> 1250 150<424 988>
LayerCount: 2
Fore
SplineSet
276 1400 m 1
 1020 1400 l 1
 988 1250 l 1
 424 1250 l 1
 588 722 l 1
 192 125 l 1
 749 125 l 1
 717 -25 l 1
 -27 -25 l 1
 0 110 l 1
 424 746 l 1
 253 1294 l 1
 276 1400 l 1
EndSplineSet
Validated: 3073
EndChar

StartChar: Psi
Encoding: 936 936 473
Width: 922
VWidth: 1947
Flags: W
HStem: -24 21G<265 422.295> 437 150<290.976 364 549 662.742> 1405 20G<571.704 729>
VStem: 126 150<595.716 776.97>
LayerCount: 2
Fore
SplineSet
418 -24 m 1
 265 -24 l 1
 364 437 l 1
 343 437 l 2
 141 437 126 643 126 694 c 3
 126 714 129 729 132 744 c 2
 265 1351 l 1
 417 1351 l 1
 278 712 l 2
 276 705 276 698 276 694 c 3
 276 651 300 587 343 587 c 2
 396 587 l 1
 576 1425 l 1
 729 1425 l 1
 549 587 l 1
 573 587 l 2
 636 587 713 665 730 744 c 2
 862 1351 l 1
 1015 1351 l 1
 876 712 l 2
 849 588 728 437 573 437 c 2
 517 437 l 1
 418 -24 l 1
EndSplineSet
Validated: 3073
EndChar

StartChar: Omega
Encoding: 937 937 474
Width: 922
VWidth: 1947
Flags: W
HStem: 0 150<11 161 602 720> 1275 150<504.99 746.032>
VStem: 129 150<383.5 877.905> 777 150<802.733 1245.97>
LayerCount: 2
Fore
SplineSet
161 150 m 1
 194 306 l 1
 141 389 129 492 129 572 c 3
 129 656 142 744 161 832 c 2
 172 887 l 2
 223 1129 336 1425 630 1425 c 2
 642 1425 l 2
 741 1425 927 1388 927 1096 c 3
 927 1048 922 974 897 857 c 2
 885 801 l 2
 849 631 776 401 630 280 c 1
 602 150 l 1
 753 150 l 1
 720 0 l 1
 418 0 l 1
 495 367 l 1
 519 384 l 2
 662 485 724 765 739 833 c 2
 751 889 l 2
 773 991 777 1055 777 1096 c 3
 777 1237 728 1275 642 1275 c 2
 630 1275 l 2
 505 1275 388 1186 318 857 c 2
 307 802 l 2
 297 757 279 664 279 572 c 3
 279 476 299 411 332 371 c 2
 355 343 l 1
 283 0 l 1
 -22 0 l 1
 11 150 l 1
 161 150 l 1
EndSplineSet
Validated: 3073
EndChar

StartChar: alpha
Encoding: 945 945 483
Width: 922
VWidth: 1947
Flags: W
HStem: -40 150<251.899 412.983> -0 21G<596 746> 913 150<416.428 589.036>
VStem: 69 150<139.057 578.13> 596 150<0 148>
LayerCount: 2
Fore
SplineSet
219 304 m 3xb8
 219 207 256 110 307 110 c 3
 382 110 445 175 464 220 c 2
 596 528 l 1
 596 832 l 2
 596 870 583 913 509 913 c 3
 343 913 219 528 219 304 c 3xb8
596 148 m 1
 542 36 441 -40 307 -40 c 3xb8
 172 -40 69 68 69 304 c 3
 69 551 167 1063 509 1063 c 27
 626 1063 729 957 741 874 c 1
 817 1053 l 1
 955 995 l 1
 745 499 l 1
 746 0 l 1
 596 -0 l 1x78
 596 148 l 1
EndSplineSet
Validated: 3073
EndChar

StartChar: beta
Encoding: 946 946 484
Width: 922
VWidth: 2334
Flags: W
HStem: -25 150<208.578 562.542> 474 150<426 627.43> 899 150<380.625 700.448>
VStem: 647 150<274 452.826> 712 150<706.354 882.568>
LayerCount: 2
Fore
SplineSet
719 556 m 1xe8
 793 494 797 410 797 379 c 3xf0
 797 368 792 322 787 291 c 2
 780 244 l 2
 754 72 605 -25 390 -25 c 2
 352 -25 l 2
 269 -25 220 -20 151 18 c 1
 79 -318 l 1
 -73 -318 l 1
 150 735 l 2
 191 923 296 1049 537 1049 c 2
 561 1049 l 2
 817 1039 862 918 862 831 c 3
 862 815 861 798 856 777 c 2
 851 756 l 2
 834 679 787 607 719 556 c 1xe8
712 831 m 3xe8
 712 886 634 896 561 899 c 2
 537 899 l 2
 390 899 327 844 296 703 c 2
 199 244 l 2
 196 229 195 216 195 204 c 3
 195 138 308 125 352 125 c 2
 390 125 l 2
 589 125 627 226 634 274 c 2
 641 321 l 2
 644 340 647 368 647 379 c 3xf0
 647 471 532 474 482 474 c 2
 394 474 l 1
 426 624 l 1
 481 624 l 2
 619 624 687 705 706 788 c 2
 709 806 l 2
 711 816 712 827 712 831 c 3xe8
EndSplineSet
Validated: 3073
EndChar

StartChar: gamma
Encoding: 947 947 485
Width: 922
VWidth: 2334
Flags: W
HStem: -384 21G<191 348.358> 1004 20G<219 370.387 747.173 924>
LayerCount: 2
Fore
SplineSet
191 -384 m 1
 286 49 l 1
 219 1024 l 1
 369 1024 l 1
 417 332 l 1
 757 1024 l 1
 924 1024 l 1
 434 29 l 1
 344 -384 l 1
 191 -384 l 1
EndSplineSet
Validated: 3073
EndChar

StartChar: delta
Encoding: 948 948 486
Width: 922
VWidth: 1947
Flags: W
HStem: -25 150<271.133 498.646> 1250 150<522 895>
VStem: 74 150<165.182 575.75> 700 150<485.438 878.173>
LayerCount: 2
Fore
SplineSet
565 899 m 2
 547 899 l 2
 381 899 301 725 270 581 c 2
 234 411 l 2
 227 378 224 347 224 318 c 3
 224 207 271 125 352 125 c 2
 370 125 l 2
 535 125 615 296 646 443 c 2
 682 613 l 2
 697 683 700 728 700 757 c 3
 700 889 634 897 565 899 c 2
297 1400 m 1
 926 1400 l 1
 895 1250 l 1
 522 1250 l 1
 752 996 l 1
 807 956 850 884 850 757 c 3
 850 687 836 615 828 581 c 2
 792 411 l 2
 740 166 599 -25 370 -25 c 2
 352 -25 l 2
 185 -25 74 120 74 318 c 3
 74 358 79 400 88 443 c 2
 124 613 l 2
 173 839 300 1024 504 1047 c 1
 275 1299 l 1
 297 1400 l 1
EndSplineSet
Validated: 3073
EndChar

StartChar: epsilon
Encoding: 949 949 487
Width: 922
VWidth: 2334
Flags: W
HStem: -25 150<215.48 564.078> 474 150<331.552 593> 899 150<352.644 723.36>
VStem: 46 149<146.39 373.881> 153 150<654.908 848.182>
LayerCount: 2
Fore
SplineSet
724 866 m 1xe8
 711 886 656 899 585 899 c 2
 547 899 l 2
 378 899 329 857 312 787 c 2
 306 763 l 2
 304 754 303 745 303 737 c 3xe8
 303 669 365 624 457 624 c 2
 624 624 l 1
 593 474 l 1
 457 474 l 2
 298 474 220 364 210 317 c 2
 204 289 l 2
 198 260 195 237 195 220 c 3
 195 172 220 125 352 125 c 2
 390 125 l 2
 485 125 530 135 572 177 c 1
 678 71 l 1
 604 -3 522 -25 390 -25 c 2
 352 -25 l 2
 124 -25 46 68 46 221 c 27xf0
 46 260 51 287 58 321 c 2
 64 349 l 2
 80 423 138 505 227 560 c 1
 180 607 153 669 153 737 c 3
 153 757 155 777 160 797 c 2
 166 823 l 2
 206 987 339 1049 547 1049 c 2
 585 1049 l 2
 803 1049 840 961 858 934 c 1
 724 866 l 1xe8
EndSplineSet
Validated: 3073
EndChar

StartChar: zeta
Encoding: 950 950 488
Width: 922
VWidth: 2334
Flags: W
HStem: -369 150<302 498.854> -25 150<239.046 520.787>
VStem: 58 150<151.764 404.203> 527 150<-188.54 -43.3948>
LayerCount: 2
Fore
SplineSet
527 -89 m 3
 527 -26 383 -25 370 -25 c 2
 352 -25 l 2
 160 -25 58 98 58 257 c 3
 58 426 138 544 333 679 c 2
 642 893 l 1
 563 910 483 941 429 997 c 1
 537 1101 l 1
 577 1059 680 1024 830 1024 c 2
 938 1024 l 1
 918 933 l 1
 884 897 l 2
 818 827 708 755 663 724 c 2
 419 555 l 2
 299 472 229 391 219 342 c 2
 215 322 l 2
 210 298 208 276 208 257 c 3
 208 178 246 125 352 125 c 2
 370 125 l 2
 430 125 479 121 542 95 c 0
 635 56 677 -15 677 -89 c 3
 677 -190 637 -369 337 -369 c 2
 270 -369 l 1
 302 -219 l 1
 337 -219 l 2
 423 -219 527 -215 527 -89 c 3
EndSplineSet
Validated: 3073
EndChar

StartChar: eta
Encoding: 951 951 489
Width: 922
VWidth: 2334
Flags: W
HStem: 0 21G<-6 151.235> 899 150<448.187 700.094> 1004 20G<207.742 365>
VStem: 716 150<669.614 881.153>
LayerCount: 2
Fore
SplineSet
565 1049 m 2xd0
 854 1049 866 924 866 802 c 3
 866 785 861 737 854 703 c 2
 623 -387 l 1
 470 -387 l 1
 708 735 l 2
 711 748 716 787 716 802 c 3
 716 856 702 899 565 899 c 2
 547 899 l 2xd0
 444 899 298 714 273 595 c 2
 147 0 l 1
 -6 0 l 1
 212 1024 l 1
 365 1024 l 1xb0
 353 971 l 1
 412 1018 479 1049 547 1049 c 2
 565 1049 l 2xd0
EndSplineSet
Validated: 3073
EndChar

StartChar: theta
Encoding: 952 952 490
Width: 922
VWidth: 1947
Flags: W
HStem: -25 150<271.133 498.646> 437 150<271 645> 899 150<418.247 677.355>
VStem: 74 150<165.182 436.777> 700 150<601.397 877.194>
CounterMasks: 1 e0
LayerCount: 2
Fore
SplineSet
565 1049 m 2
 656 1049 850 1027 850 757 c 3
 850 687 836 615 828 581 c 2
 792 411 l 2
 740 166 599 -25 370 -25 c 2
 352 -25 l 2
 185 -25 74 120 74 318 c 3
 74 358 79 400 88 443 c 2
 124 613 l 2
 176 855 318 1049 547 1049 c 2
 565 1049 l 2
700 757 m 3
 700 893 630 899 565 899 c 2
 547 899 l 2
 383 899 303 730 271 587 c 1
 676 587 l 1
 682 613 l 2
 697 683 700 728 700 757 c 3
645 437 m 1
 240 437 l 1
 234 411 l 2
 227 378 224 347 224 318 c 3
 224 207 271 125 352 125 c 2
 370 125 l 2
 533 125 613 291 645 437 c 1
EndSplineSet
Validated: 3073
EndChar

StartChar: lambda
Encoding: 955 955 491
Width: 922
VWidth: 2334
Flags: W
HStem: -0 21G<-18 160.057 552.514 705> 1390 20G<453 605.307>
LayerCount: 2
Fore
SplineSet
-18 -0 m 1
 481 989 l 1
 453 1410 l 1
 604 1410 l 1
 631 997 l 1
 705 -0 l 1
 655 0 604 0 554 0 c 1
 502 700 l 1
 150 0 l 1
 -18 -0 l 1
EndSplineSet
Validated: 3073
EndChar

StartChar: xi
Encoding: 958 958 494
Width: 922
VWidth: 2334
Flags: W
HStem: -369 150<302 480.651> -25 150<215.614 522.844> 458 150<333.905 631>
VStem: 44 144<154.473 345.215> 154 150<636.915 818.517> 533 151<-165.284 -44.5245>
LayerCount: 2
Fore
SplineSet
501 1068 m 1xec
 450 1102 408 1148 370 1200 c 1
 492 1288 l 1
 548 1212 607 1157 720 1152 c 2
 872 1146 l 1
 858 1079 l 1
 758 1014 l 2
 738 1001 651 966 578 938 c 2
 449 889 l 2
 385 865 304 795 304 722 c 3xec
 304 653 362 608 457 608 c 2
 663 608 l 1
 631 458 l 1
 457 458 l 2
 307 458 188 333 188 236 c 3
 188 175 235 125 352 125 c 2
 390 125 l 2
 596 125 684 4 684 -90 c 3
 684 -99 682 -114 678 -132 c 2
 673 -157 l 2
 635 -336 410 -369 314 -369 c 2
 270 -369 l 1
 302 -219 l 1
 314 -219 l 2
 393 -219 512 -186 527 -125 c 2
 530 -112 l 2
 531 -108 533 -96 533 -93 c 3
 533 -46 453 -25 390 -25 c 2
 352 -25 l 2
 125 -25 44 86 44 213 c 3xf4
 44 341 126 483 226 544 c 1
 179 591 154 654 154 722 c 3
 154 929 380 1022 403 1031 c 2
 501 1068 l 1xec
EndSplineSet
Validated: 3073
EndChar

StartChar: pi
Encoding: 960 960 496
Width: 922
VWidth: 2334
Flags: W
HStem: -0 21G<33 224.5 490.5 645> 874 150<422 648 801 909.404>
VStem: 488 150<0 312.078>
LayerCount: 2
Fore
SplineSet
648 153 m 2
 641 120 638 90 638 62 c 3
 638 42 640 20 645 -0 c 1
 594 0 543 0 492 -0 c 1
 489 20 488 41 488 62 c 3
 488 102 494 142 502 183 c 2
 648 874 l 1
 422 874 l 1
 271 152 l 1
 260 107 239 53 210 -0 c 1
 33 -0 l 1
 75 55 111 124 125 184 c 2
 268 862 l 1
 221 851 183 833 149 806 c 1
 190 996 l 1
 248 1016 311 1024 382 1024 c 2
 720 1024 l 2
 836 1024 905 1049 953 1094 c 1
 911 900 l 1
 877 889 840 882 801 878 c 1
 648 153 l 2
EndSplineSet
Validated: 3073
EndChar

StartChar: rho
Encoding: 961 961 497
Width: 922
VWidth: 2334
Flags: W
HStem: -384 21G<-88 69.218> -25 150<240.938 499.033> 899 150<418.634 668.125>
VStem: 697 150<472.156 870.221>
LayerCount: 2
Fore
SplineSet
370 -25 m 2
 352 -25 l 2
 273 -25 209 -11 154 38 c 1
 65 -384 l 1
 -88 -384 l 1
 124 613 l 2
 176 859 319 1049 547 1049 c 2
 565 1049 l 2
 705 1049 847 967 847 739 c 3
 847 692 840 639 828 581 c 2
 792 411 l 2
 740 169 600 -25 370 -25 c 2
217 270 m 3
 217 131 291 125 352 125 c 2
 370 125 l 2
 535 125 615 299 646 443 c 2
 682 613 l 2
 693 663 697 705 697 739 c 3
 697 875 631 899 565 899 c 2
 547 899 l 2
 381 899 301 728 270 581 c 2
 234 411 l 2
 223 357 217 310 217 270 c 3
EndSplineSet
Validated: 3073
EndChar

StartChar: sigmafinal
Encoding: 962 962 498
Width: 922
VWidth: 2334
Flags: W
HStem: -369 150<302 493.379> -25 150<271.133 516.005> 899 150<469.263 826.035>
VStem: 74 150<165.561 463.981> 529 150<-181.179 -44.289>
LayerCount: 2
Fore
SplineSet
529 -94 m 3
 529 -33 414 -25 370 -25 c 2
 352 -25 l 2
 185 -25 74 120 74 318 c 3
 74 358 79 400 88 443 c 2
 124 613 l 2
 175 850 376 1049 633 1049 c 3
 706 1049 782 1035 858 1003 c 1
 894 989 l 1
 838 849 l 1
 800 865 l 2
 742 889 686 899 633 899 c 3
 458 899 309 761 270 581 c 2
 234 411 l 2
 227 378 224 347 224 318 c 3
 224 206 272 125 352 125 c 2
 370 125 l 2
 620 125 679 -6 679 -94 c 3
 679 -181 623 -369 355 -369 c 2
 271 -369 l 1
 302 -219 l 1
 355 -219 l 2
 507 -219 529 -133 529 -94 c 3
EndSplineSet
Validated: 3073
EndChar

StartChar: sigma
Encoding: 963 963 499
Width: 922
VWidth: 1947
Flags: W
HStem: -25 150<271.133 498.646> 842 150<842 925> 899 150<418.247 677.693>
VStem: 74 150<165.561 463.981> 700 150<485.438 840.434>
LayerCount: 2
Fore
SplineSet
842 842 m 1xd8
 848 814 850 785 850 756 c 3
 850 684 836 617 828 581 c 2
 792 411 l 2
 740 166 599 -25 370 -25 c 2
 352 -25 l 2
 185 -25 74 120 74 318 c 3
 74 358 79 400 88 443 c 2
 124 613 l 2
 176 855 318 1049 547 1049 c 2
 565 1049 l 2xb8
 612 1049 694 1040 757 992 c 1
 959 993 l 1
 925 842 l 1
 842 842 l 1xd8
700 757 m 3
 700 893 630 899 565 899 c 2
 547 899 l 2
 381 899 301 725 270 581 c 2
 234 411 l 2
 227 378 224 347 224 318 c 3
 224 207 271 125 352 125 c 2
 370 125 l 2
 535 125 615 296 646 443 c 2
 682 613 l 2
 697 683 700 728 700 757 c 3
EndSplineSet
Validated: 3073
EndChar

StartChar: tau
Encoding: 964 964 500
Width: 922
VWidth: 2334
Flags: W
HStem: -0 21G<208 411.5> 874 150<192.722 459 612 908.278>
LayerCount: 2
Fore
SplineSet
382 1024 m 2
 720 1024 l 2
 836 1024 905 1049 953 1094 c 1
 911 900 l 1
 853 881 790 874 720 874 c 2
 612 874 l 1
 459 152 l 2
 447 98 426 47 397 -0 c 1
 208 -0 l 1
 256 50 298 114 313 184 c 2
 459 874 l 1
 382 874 l 2
 274 874 207 851 149 806 c 1
 190 996 l 1
 248 1016 311 1024 382 1024 c 2
EndSplineSet
Validated: 3073
EndChar

StartChar: upsilon
Encoding: 965 965 501
Width: 922
VWidth: 1947
Flags: W
HStem: -25 150<262.405 495.519> 898 150<641 701.078> 1004 20G<207.717 364>
VStem: 79 150<156.91 597.211> 710 147<487.738 896.454>
LayerCount: 2
Fore
SplineSet
252 497 m 2xb8
 236 421 229 358 229 309 c 3
 229 144 301 125 361 125 c 3
 423 125 589 139 669 505 c 2
 679 551 l 2
 701 652 710 737 710 794 c 3
 710 863 696 898 674 898 c 2
 610 898 l 1
 641 1048 l 1
 674 1048 l 2xd8
 794 1048 857 963 857 785 c 3
 857 712 847 621 825 519 c 2
 815 473 l 2
 713 2 452 -25 361 -25 c 3
 220 -25 79 57 79 309 c 3
 79 372 88 445 106 529 c 2
 212 1024 l 1
 364 1024 l 1
 252 497 l 2xb8
EndSplineSet
Validated: 3073
EndChar

StartChar: phi
Encoding: 966 966 502
Width: 922
VWidth: 1947
Flags: W
HStem: 898 149<633.976 739.088>
VStem: 38 150<185.572 639.43> 749 150<495.867 896.829>
LayerCount: 2
Fore
SplineSet
301 134 m 1
 432 750 l 2
 469 923 552 1047 698 1047 c 3
 789 1047 899 981 899 771 c 3
 899 706 889 639 876 578 c 2
 840 419 l 2
 788 187 626 9 421 -21 c 1
 344 -387 l 1
 191 -387 l 1
 270 -14 l 1
 110 29 38 188 38 365 c 3
 38 418 44 474 56 529 c 2
 152 974 l 1
 305 974 l 1
 202 497 l 2
 192 451 188 407 188 365 c 3
 188 270 211 165 301 134 c 1
749 771 m 3
 749 876 726 898 700 898 c 3
 624 898 582 736 578 718 c 2
 456 143 l 1
 565 184 658 293 694 451 c 2
 730 610 l 2
 742 662 749 720 749 771 c 3
EndSplineSet
Validated: 3073
EndChar

StartChar: chi
Encoding: 967 967 503
Width: 922
VWidth: 2062
Flags: W
HStem: 1004 20G<105 286.22 727.419 913>
LayerCount: 2
Fore
SplineSet
298 983 m 2
 367 863 422 731 451 566 c 2
 457 537 l 1
 739 1024 l 1
 913 1024 l 1
 499 311 l 1
 535 124 l 2
 566 -38 599 -180 653 -271 c 2
 721 -387 l 1
 547 -387 l 1
 523 -347 l 2
 450 -224 413 -50 387 98 c 2
 384 113 l 1
 94 -387 l 1
 -80 -387 l 1
 341 338 l 1
 303 538 l 2
 274 689 227 807 170 907 c 2
 105 1021 l 1
 105 1024 l 1
 275 1024 l 1
 298 983 l 2
EndSplineSet
Validated: 3073
EndChar

StartChar: psi
Encoding: 968 968 504
Width: 922
VWidth: 1947
Flags: W
HStem: 1027 20G<491.75 649>
VStem: 37 150<190.133 639.406>
LayerCount: 2
Fore
SplineSet
191 -387 m 1
 270 -13 l 1
 129 26 37 159 37 359 c 3
 37 412 43 467 56 528 c 2
 150 974 l 1
 303 974 l 1
 202 498 l 2
 191 446 187 400 187 359 c 3
 187 269 212 165 302 134 c 1
 496 1047 l 1
 649 1047 l 1
 457 148 l 1
 572 202 675 347 714 529 c 2
 809 974 l 1
 961 974 l 1
 860 497 l 2
 803 230 630 15 422 -20 c 1
 344 -387 l 1
 191 -387 l 1
EndSplineSet
Validated: 3073
EndChar

StartChar: omega
Encoding: 969 969 505
Width: 922
VWidth: 2334
Flags: W
HStem: -25 150<169.21 298.304 466.025 585.924> 1004 20G<217.571 403 741 896.396>
VStem: 12 150<126.516 469.703> 763 150<594.922 995.783>
LayerCount: 2
Fore
SplineSet
339 913 m 2
 318 877 277 799 259 718 c 2
 174 320 l 2
 165 280 162 247 162 221 c 3
 162 149 187 125 202 125 c 2
 212 125 l 2
 271 127 308 160 323 231 c 2
 427 717 l 1
 578 717 l 1
 469 199 l 2
 466 185 464 174 464 165 c 3
 464 133 483 125 520 125 c 2
 530 125 l 2
 578 125 643 241 667 353 c 2
 751 750 l 2
 759 786 763 822 763 858 c 3
 763 876 758 916 754 943 c 2
 741 1024 l 1
 893 1024 l 1
 902 971 l 2
 909 933 913 896 913 858 c 3
 913 810 907 763 897 718 c 2
 813 321 l 1
 781 177 687 -25 530 -25 c 2
 520 -25 l 2
 450 -25 402 -6 370 24 c 1
 310 -22 246 -25 198 -25 c 2
 188 -25 l 2
 109 -25 12 39 12 216 c 3
 12 255 17 301 28 352 c 2
 113 750 l 2
 135 850 183 945 209 989 c 2
 229 1024 l 1
 403 1024 l 1
 339 913 l 2
EndSplineSet
Validated: 3073
EndChar

StartChar: dieresiscmb
Encoding: 776 776 508
Width: 922
VWidth: 1947
Flags: W
HStem: 1235 258<301.289 486.515 792.536 974.671>
VStem: 268 251<1267.83 1461.26> 759 248<1267.86 1463.09>
LayerCount: 2
Fore
SplineSet
519 1367 m 3
 519 1296 463 1235 394 1235 c 3
 326 1235 268 1294 268 1367 c 3
 268 1445 330 1493 392 1493 c 3
 464 1493 519 1434 519 1367 c 3
1007 1367 m 3
 1007 1290 946 1235 884 1235 c 3
 818 1235 759 1295 759 1367 c 3
 759 1439 818 1493 884 1493 c 3
 945 1493 1007 1445 1007 1367 c 3
EndSplineSet
EndChar

StartChar: Djecyrillic
Encoding: 1026 1026 512
Width: 922
VWidth: 2334
Flags: W
HStem: 0 150<513 590.752> 829 150<598.697 737.195> 1250 150<258 440 592 897>
VStem: 743 150<671.889 825.627>
LayerCount: 2
Fore
SplineSet
172 0 m 1
 440 1250 l 1
 226 1250 l 1
 258 1400 l 1
 928 1400 l 1
 897 1250 l 1
 592 1250 l 1
 520 914 l 1
 565 951 614 979 663 979 c 2
 681 979 l 2
 845 979 893 874 893 782 c 3
 893 757 890 731 884 703 c 2
 802 320 l 2
 736 11 554 0 531 0 c 2
 513 0 l 1
 513 150 l 1
 531 150 l 2
 591 150 637 265 656 352 c 2
 738 735 l 2
 742 755 743 770 743 782 c 3
 743 810 741 829 681 829 c 2
 666 829 l 2
 635 829 479 719 419 440 c 2
 325 0 l 1
 172 0 l 1
EndSplineSet
Validated: 3073
EndChar

StartChar: Ljecyrillic
Encoding: 1033 1033 513
Width: 922
VWidth: 1947
Flags: W
HStem: 0 151<470 608.859> 1250 150<484.276 550>
VStem: 738 150<336.782 695.098>
LayerCount: 2
Fore
SplineSet
591 722 m 1
 470 151 l 1
 604 157 668 214 697 352 c 2
 730 511 l 2
 736 539 738 565 738 586 c 3
 738 657 710 722 598 722 c 2
 591 722 l 1
266 1096 m 2
 304 1224 403 1400 503 1400 c 2
 734 1400 l 1
 622 871 l 1
 781 861 888 756 888 586 c 3
 888 552 884 516 876 479 c 2
 843 322 l 2
 804 136 698 0 446 0 c 2
 286 0 l 1
 550 1250 l 1
 519 1250 l 1
 498 1231 443 1165 410 1054 c 2
 94 0 l 1
 -63 0 l 1
 266 1096 l 2
EndSplineSet
Validated: 3073
EndChar

StartChar: Njecyrillic
Encoding: 1034 1034 514
Width: 922
VWidth: 1947
Flags: W
HStem: 0 151<470 608.859> 722 150<280 438 622 711.928> 1380 20G<236.7 394 576.795 733>
VStem: 738 150<336.782 695.304>
LayerCount: 2
Fore
SplineSet
590 722 m 1
 470 151 l 1
 604 157 668 214 697 352 c 2
 730 511 l 2
 736 539 738 565 738 586 c 3
 738 657 710 722 598 722 c 2
 590 722 l 1
92 0 m 1
 -60 0 l 1
 241 1400 l 1
 394 1400 l 1
 280 872 l 1
 470 872 l 1
 581 1400 l 1
 733 1400 l 1
 622 871 l 1
 781 861 888 757 888 586 c 3
 888 552 884 516 876 479 c 2
 843 322 l 2
 804 136 698 0 446 0 c 2
 286 0 l 1
 438 722 l 1
 248 722 l 1
 92 0 l 1
EndSplineSet
Validated: 3073
EndChar

StartChar: Tshecyrillic
Encoding: 1035 1035 515
Width: 922
VWidth: 1947
Flags: W
HStem: 0 21G<175 332.211 582 739.239> 829 150<597.174 737.195> 1250 150<260 440 593 899>
VStem: 743 150<669.553 825.627>
LayerCount: 2
Fore
SplineSet
260 1400 m 1
 932 1400 l 1
 899 1250 l 1
 593 1250 l 1
 523 920 l 1
 570 958 617 979 663 979 c 2
 681 979 l 2
 845 979 893 874 893 782 c 3
 893 757 890 731 884 703 c 2
 735 0 l 1
 582 0 l 1
 738 735 l 2
 742 755 743 770 743 782 c 3
 743 810 741 829 681 829 c 2
 663 829 l 2
 618 829 472 685 420 437 c 2
 328 -0 l 1
 175 0 l 1
 440 1250 l 1
 228 1250 l 1
 260 1400 l 1
EndSplineSet
Validated: 3073
EndChar

StartChar: Dzhecyrillic
Encoding: 1039 1039 516
Width: 922
VWidth: 2334
Flags: W
HStem: -384 21G<192 349.271> 0 150<180 274 427 585> 1380 20G<287.771 444 845.76 1003>
LayerCount: 2
Fore
SplineSet
180 150 m 1
 585 150 l 1
 850 1400 l 1
 1003 1400 l 1
 707 0 l 1
 427 0 l 1
 345 -384 l 1
 192 -384 l 1
 274 0 l 1
 -4 0 l 1
 292 1400 l 1
 444 1400 l 1
 180 150 l 1
EndSplineSet
Validated: 3073
EndChar

StartChar: djecyrillic
Encoding: 1106 1106 517
Width: 922
VWidth: 2334
Flags: W
HStem: -369 150<235.389 457.834> 0 21G<43 200.286> 780 150<473.824 686.965> 1110 150<186 280 465 728> 1406 20G<342.783 500>
VStem: 695 149<466.758 774.723>
LayerCount: 2
Fore
SplineSet
235 -190 m 1
 243 -201 270 -219 301 -219 c 2
 353 -219 l 2
 436 -219 522 -137 549 -12 c 2
 673 569 l 2
 687 633 695 677 695 709 c 3
 695 768 666 780 590 780 c 2
 572 780 l 2
 471 780 321 586 295 462 c 2
 196 0 l 1
 43 0 l 1
 280 1110 l 1
 154 1110 l 1
 186 1260 l 1
 312 1260 l 1
 347 1426 l 1
 500 1426 l 1
 465 1260 l 1
 759 1260 l 1
 728 1110 l 1
 433 1110 l 1
 377 848 l 1
 436 897 503 930 572 930 c 2
 590 930 l 2
 788 930 844 844 844 719 c 3
 844 664 833 603 819 537 c 2
 695 -44 l 2
 661 -203 538 -369 353 -369 c 2
 301 -369 l 2
 183 -369 113 -277 105 -266 c 1
 235 -190 l 1
EndSplineSet
Validated: 3073
EndChar

StartChar: dzhecyrillic
Encoding: 1119 1119 519
Width: 922
VWidth: 1947
Flags: W
HStem: 0 151<181 274 427 585> 1004 20G<207.762 365 765.762 922>
LayerCount: 2
Fore
SplineSet
181 151 m 1
 585 151 l 1
 770 1024 l 1
 922 1024 l 1
 707 0 l 1
 427 0 l 1
 344 -387 l 1
 191 -387 l 1
 274 0 l 1
 -5 0 l 1
 212 1024 l 1
 365 1024 l 1
 181 151 l 1
EndSplineSet
Validated: 3073
EndChar

StartChar: ljecyrillic
Encoding: 1113 1113 520
Width: 922
VWidth: 1947
Flags: W
HStem: 0 150<461 613.068> 486 150<564 662.153> 873 151<367.67 460>
VStem: 672 150<213.94 480.628>
LayerCount: 2
Fore
SplineSet
532 486 m 1
 461 150 l 1
 506 150 l 2
 561 150 629 171 651 274 c 2
 667 353 l 2
 670 369 672 384 672 398 c 3
 672 449 649 486 607 486 c 2
 532 486 l 1
112 635 m 2
 170 850 250 969 402 1024 c 1
 646 1024 l 1
 564 636 l 1
 607 636 l 2
 730 636 822 540 822 398 c 3
 822 374 819 347 813 321 c 2
 797 244 l 2
 761 76 637 0 506 0 c 2
 275 0 l 1
 460 873 l 1
 429 873 l 1
 345 836 295 740 256 595 c 2
 94 0 l 1
 -61 0 l 1
 112 635 l 2
EndSplineSet
Validated: 3073
EndChar

StartChar: njecyrillic
Encoding: 1114 1114 521
Width: 922
VWidth: 1947
Flags: W
HStem: 0 150<460 613.068> 486 150<242 378 562 664.922> 1004 20G<166.801 324 486.825 644>
VStem: 672 150<213.94 483.298>
LayerCount: 2
Fore
SplineSet
672 398 m 3
 672 441 668 486 607 486 c 2
 531 486 l 1
 460 150 l 1
 506 150 l 2
 561 150 629 171 651 274 c 2
 667 352 l 2
 671 370 672 385 672 398 c 3
108 0 m 1
 -44 0 l 1
 171 1024 l 1
 324 1024 l 1
 242 636 l 1
 410 636 l 1
 491 1024 l 1
 644 1024 l 1
 562 636 l 1
 607 636 l 2
 675 636 822 523 822 398 c 3
 822 377 818 348 813 322 c 2
 797 244 l 2
 761 76 637 0 506 0 c 2
 276 0 l 1
 378 486 l 1
 210 486 l 1
 108 0 l 1
EndSplineSet
Validated: 3073
EndChar

StartChar: apostrophereverse
Encoding: 8219 8219 523
Width: 922
VWidth: 1708
Flags: W
HStem: 965 52<708.376 734.065>
VStem: 483 144<1100.14 1341>
LayerCount: 2
Fore
SplineSet
627 1169 m 27
 627 1093 703 1042 750 1017 c 1
 728 965 l 1
 716 968 705 973 695 977 c 0
 526 1038 483 1142 483 1289 c 27
 483 1393 534 1507 638 1507 c 27
 719 1507 786 1443 786 1362 c 27
 786 1297 721 1260 672 1242 c 0
 641 1231 627 1202 627 1169 c 27
EndSplineSet
EndChar

StartChar: arrowleft
Encoding: 8592 8592 526
Width: 922
VWidth: 1708
Flags: W
HStem: 520 160<287 872>
LayerCount: 2
Fore
SplineSet
872 680 m 1
 872 520 l 1
 287 520 l 1
 517 297 l 1
 405 183 l 1
 50 527 l 1
 50 673 l 1
 405 1017 l 1
 517 903 l 1
 287 680 l 1
 872 680 l 1
EndSplineSet
Validated: 3073
EndChar

StartChar: arrowright
Encoding: 8594 8594 527
Width: 922
VWidth: 1708
Flags: W
HStem: 520 160<50 635>
LayerCount: 2
Fore
SplineSet
50 520 m 1
 50 680 l 1
 635 680 l 1
 405 903 l 1
 517 1017 l 1
 872 673 l 1
 872 527 l 1
 517 183 l 1
 405 297 l 1
 635 520 l 1
 50 520 l 1
EndSplineSet
Validated: 3073
EndChar

StartChar: lthorizform
Encoding: 9472 9472 528
Width: 922
Flags: W
HStem: 443 160<0 922>
LayerCount: 2
Fore
SplineSet
0 443 m 1
 -0 603 l 1
 922 603 l 1
 922 443 l 1
 0 443 l 1
EndSplineSet
Validated: 3073
EndChar

StartChar: ltvertform
Encoding: 9474 9474 529
Width: 922
Flags: W
VStem: 381 160<-615 1775>
LayerCount: 2
Fore
SplineSet
541 -615 m 1
 381 -615 l 1
 381 1775 l 1
 541 1775 l 1
 541 -615 l 1
EndSplineSet
Validated: 3073
EndChar

StartChar: rightanglenw
Encoding: 9484 9484 530
Width: 922
Flags: W
HStem: 443 160<541 922>
VStem: 381 160<-615 443>
LayerCount: 2
Fore
SplineSet
381 -615 m 1
 381 603 l 1
 922 603 l 1
 922 443 l 1
 541 443 l 1
 541 -615 l 1
 381 -615 l 1
EndSplineSet
Validated: 3073
EndChar

StartChar: rightanglene
Encoding: 9488 9488 531
Width: 922
Flags: W
HStem: 443 160<0 381>
VStem: 381 160<-615 443>
LayerCount: 2
Fore
SplineSet
381 443 m 1
 0 443 l 1
 -0 603 l 1
 541 603 l 1
 541 -615 l 1
 381 -615 l 1
 381 443 l 1
EndSplineSet
Validated: 3073
EndChar

StartChar: rightanglesw
Encoding: 9492 9492 532
Width: 922
Flags: W
HStem: 443 160<541 922>
VStem: 381 160<603 1775>
LayerCount: 2
Fore
SplineSet
541 603 m 1
 922 603 l 1
 922 443 l 1
 381 443 l 1
 381 1775 l 1
 541 1775 l 1
 541 603 l 1
EndSplineSet
Validated: 3073
EndChar

StartChar: rightanglese
Encoding: 9496 9496 533
Width: 922
Flags: W
HStem: 443 160<0 381>
VStem: 381 160<603 1775>
LayerCount: 2
Fore
SplineSet
541 1775 m 1
 541 443 l 1
 0 443 l 1
 -0 603 l 1
 381 603 l 1
 381 1775 l 1
 541 1775 l 1
EndSplineSet
Validated: 3073
EndChar

StartChar: ltvertrightform
Encoding: 9500 9500 534
Width: 922
Flags: W
HStem: 443 160<541 922>
VStem: 381 160<-615 443 603 1775>
LayerCount: 2
Fore
SplineSet
541 -615 m 1
 381 -615 l 1
 381 1775 l 1
 541 1775 l 1
 541 603 l 1
 922 603 l 1
 922 443 l 1
 541 443 l 1
 541 -615 l 1
EndSplineSet
Validated: 3073
EndChar

StartChar: ltvertleftform
Encoding: 9508 9508 535
Width: 922
Flags: W
HStem: 443 160<0 381>
VStem: 381 160<-615 443 603 1775>
LayerCount: 2
Fore
SplineSet
0 443 m 1
 -0 603 l 1
 381 603 l 1
 381 1775 l 1
 541 1775 l 1
 541 -615 l 1
 381 -615 l 1
 381 443 l 1
 0 443 l 1
EndSplineSet
Validated: 3073
EndChar

StartChar: ltdnhorizform
Encoding: 9516 9516 536
Width: 922
Flags: W
HStem: 443 160<0 381 541 922>
VStem: 381 160<-615 443>
LayerCount: 2
Fore
SplineSet
0 443 m 1
 -0 603 l 1
 922 603 l 1
 922 443 l 1
 541 443 l 1
 541 -615 l 1
 381 -615 l 1
 381 443 l 1
 0 443 l 1
EndSplineSet
Validated: 3073
EndChar

StartChar: ltuphorizform
Encoding: 9524 9524 537
Width: 922
Flags: W
HStem: 443 160<0 381 541 922>
VStem: 381 160<603 1775>
LayerCount: 2
Fore
SplineSet
0 443 m 1
 -0 603 l 1
 381 603 l 1
 381 1775 l 1
 541 1775 l 1
 541 603 l 1
 922 603 l 1
 922 443 l 1
 0 443 l 1
EndSplineSet
Validated: 3073
EndChar

StartChar: ltverthorizform
Encoding: 9532 9532 538
Width: 922
Flags: W
HStem: 443 160<0 381 541 922>
VStem: 381 160<-615 443 603 1775>
LayerCount: 2
Fore
SplineSet
0 443 m 1
 -0 603 l 1
 381 603 l 1
 381 1775 l 1
 541 1775 l 1
 541 603 l 1
 922 603 l 1
 922 443 l 1
 541 443 l 1
 541 -615 l 1
 381 -615 l 1
 381 443 l 1
 0 443 l 1
EndSplineSet
Validated: 3073
EndChar

StartChar: horizdblbar
Encoding: 9552 9552 539
Width: 922
Flags: W
HStem: 283 160<0 922> 603 160<0 922>
LayerCount: 2
Fore
SplineSet
0 603 m 1
 -0 763 l 1
 922 763 l 1
 922 603 l 1
 0 603 l 1
0 283 m 1
 -0 443 l 1
 922 443 l 1
 922 283 l 1
 0 283 l 1
EndSplineSet
Validated: 3073
EndChar

StartChar: vertdblbar
Encoding: 9553 9553 540
Width: 922
Flags: W
VStem: 221 160<-615 1775> 541 160<-615 1775>
LayerCount: 2
Fore
SplineSet
701 -615 m 1
 541 -615 l 1
 541 1775 l 1
 701 1775 l 1
 701 -615 l 1
381 -615 m 1
 221 -615 l 1
 221 1775 l 1
 381 1775 l 1
 381 -615 l 1
EndSplineSet
Validated: 3073
EndChar

StartChar: dnrtdblform
Encoding: 9554 9554 541
Width: 922
Flags: W
HStem: 283 160<541 922> 603 160<541 922>
VStem: 381 160<-615 283 443 603>
LayerCount: 2
Fore
SplineSet
541 283 m 1
 541 -615 l 1
 381 -615 l 1
 381 763 l 1
 922 763 l 1
 922 603 l 1
 541 603 l 1
 541 443 l 1
 922 443 l 1
 922 283 l 1
 541 283 l 1
EndSplineSet
Validated: 3073
EndChar

StartChar: dndblrtform
Encoding: 9555 9555 542
Width: 922
Flags: W
HStem: 443 160<381 541 701 922>
VStem: 221 160<-615 443> 541 160<-615 443>
LayerCount: 2
Fore
SplineSet
701 -615 m 1
 541 -615 l 1
 541 443 l 1
 381 443 l 1
 381 -615 l 1
 221 -615 l 1
 221 603 l 1
 922 603 l 1
 922 443 l 1
 701 443 l 1
 701 -615 l 1
EndSplineSet
Validated: 3073
EndChar

StartChar: dbldnrtform
Encoding: 9556 9556 543
Width: 922
Flags: W
HStem: 283 160<701 922> 603 160<381 922>
VStem: 221 160<-615 603> 541 160<-615 283>
LayerCount: 2
Fore
SplineSet
381 603 m 1
 381 -615 l 1
 221 -615 l 1
 221 763 l 1
 922 763 l 1
 922 603 l 1
 381 603 l 1
701 283 m 1
 701 -615 l 1
 541 -615 l 1
 541 443 l 1
 922 443 l 1
 922 283 l 1
 701 283 l 1
EndSplineSet
Validated: 3073
EndChar

StartChar: dnleftdblform
Encoding: 9557 9557 544
Width: 922
Flags: W
HStem: 283 160<0 381> 603 160<0 381>
VStem: 381 160<-615 283 443 603>
LayerCount: 2
Fore
SplineSet
0 763 m 1
 541 763 l 1
 541 -615 l 1
 381 -615 l 1
 381 283 l 1
 0 283 l 1
 -0 443 l 1
 381 443 l 1
 381 603 l 1
 -0 603 l 1
 0 763 l 1
EndSplineSet
Validated: 3073
EndChar

StartChar: dndblleftform
Encoding: 9558 9558 545
Width: 922
Flags: W
HStem: 443 160<0 221 381 541>
VStem: 221 160<-615 443> 541 160<-615 443>
LayerCount: 2
Fore
SplineSet
381 -615 m 1
 221 -615 l 1
 221 443 l 1
 0 443 l 1
 -0 603 l 1
 701 603 l 1
 701 -615 l 1
 541 -615 l 1
 541 443 l 1
 381 443 l 1
 381 -615 l 1
EndSplineSet
Validated: 3073
EndChar

StartChar: dbldnleftform
Encoding: 9559 9559 546
Width: 922
Flags: W
HStem: 283 160<0 221> 603 160<0 541>
VStem: 221 160<-615 283> 541 160<-615 603>
LayerCount: 2
Fore
SplineSet
0 763 m 1
 701 763 l 1
 701 -615 l 1
 541 -615 l 1
 541 603 l 1
 -0 603 l 1
 0 763 l 1
0 443 m 1
 381 443 l 1
 381 -615 l 1
 221 -615 l 1
 221 283 l 1
 -0 283 l 1
 0 443 l 1
EndSplineSet
Validated: 3073
EndChar

StartChar: uprtdblform
Encoding: 9560 9560 547
Width: 922
Flags: W
HStem: 283 160<541 922> 603 160<541 922>
VStem: 381 160<443 603 763 1775>
LayerCount: 2
Fore
SplineSet
922 283 m 1
 381 283 l 1
 381 1775 l 1
 541 1775 l 1
 541 763 l 1
 922 763 l 1
 922 603 l 1
 541 603 l 1
 541 443 l 1
 922 443 l 1
 922 283 l 1
EndSplineSet
Validated: 3073
EndChar

StartChar: updblrtform
Encoding: 9561 9561 548
Width: 922
Flags: W
HStem: 443 160<381 541 701 922>
VStem: 221 160<603 1775> 541 160<603 1775>
LayerCount: 2
Fore
SplineSet
701 603 m 1
 922 603 l 1
 922 443 l 1
 221 443 l 1
 221 1775 l 1
 381 1775 l 1
 381 603 l 1
 541 603 l 1
 541 1775 l 1
 701 1775 l 1
 701 603 l 1
EndSplineSet
Validated: 3073
EndChar

StartChar: dbluprtform
Encoding: 9562 9562 549
Width: 922
Flags: W
HStem: 283 160<381 922> 603 160<701 922>
VStem: 221 160<443 1775> 541 160<763 1775>
LayerCount: 2
Fore
SplineSet
922 603 m 1
 541 603 l 1
 541 1775 l 1
 701 1775 l 1
 701 763 l 1
 922 763 l 1
 922 603 l 1
922 283 m 1
 221 283 l 1
 221 1775 l 1
 381 1775 l 1
 381 443 l 1
 922 443 l 1
 922 283 l 1
EndSplineSet
Validated: 3073
EndChar

StartChar: upleftdblform
Encoding: 9563 9563 550
Width: 922
Flags: W
HStem: 283 160<0 381> 603 160<0 381>
VStem: 381 160<443 603 763 1775>
LayerCount: 2
Fore
SplineSet
0 603 m 1
 -0 763 l 1
 381 763 l 1
 381 1775 l 1
 541 1775 l 1
 541 283 l 1
 -0 283 l 1
 0 443 l 1
 381 443 l 1
 381 603 l 1
 0 603 l 1
EndSplineSet
Validated: 3073
EndChar

StartChar: updblleftform
Encoding: 9564 9564 551
Width: 922
Flags: W
HStem: 443 160<0 221 381 541>
VStem: 221 160<603 1775> 541 160<603 1775>
LayerCount: 2
Fore
SplineSet
701 1775 m 1
 701 443 l 1
 0 443 l 1
 -0 603 l 1
 221 603 l 1
 221 1775 l 1
 381 1775 l 1
 381 603 l 1
 541 603 l 1
 541 1775 l 1
 701 1775 l 1
EndSplineSet
Validated: 3073
EndChar

StartChar: dblupleftform
Encoding: 9565 9565 552
Width: 922
Flags: W
HStem: 283 160<0 541> 603 160<0 221>
VStem: 221 160<763 1775> 541 160<443 1775>
LayerCount: 2
Fore
SplineSet
221 763 m 1
 221 1775 l 1
 381 1775 l 1
 381 603 l 1
 -0 603 l 1
 0 763 l 1
 221 763 l 1
541 443 m 1
 541 1775 l 1
 701 1775 l 1
 701 283 l 1
 -0 283 l 1
 0 443 l 1
 541 443 l 1
EndSplineSet
Validated: 3073
EndChar

StartChar: vertrtdblform
Encoding: 9566 9566 553
Width: 922
Flags: W
HStem: 283 160<541 922> 603 160<541 922>
VStem: 381 160<-615 283 443 603 763 1775>
LayerCount: 2
Fore
SplineSet
541 -615 m 1
 381 -615 l 1
 381 1775 l 5
 541 1775 l 5
 541 763 l 1
 922 763 l 1
 922 603 l 1
 541 603 l 1
 541 443 l 1
 922 443 l 1
 922 283 l 1
 541 283 l 1
 541 -615 l 1
EndSplineSet
Validated: 3073
EndChar

StartChar: vertdblrtform
Encoding: 9567 9567 554
Width: 922
Flags: W
HStem: 443 160<701 922>
VStem: 221 160<-615 1775> 541 160<-615 443 603 1775>
LayerCount: 2
Fore
SplineSet
381 1775 m 5
 381 -615 l 5
 221 -615 l 5
 221 1775 l 5
 381 1775 l 5
541 1775 m 5
 701 1775 l 5
 701 603 l 5
 922 603 l 5
 922 443 l 5
 701 443 l 5
 701 -615 l 5
 541 -615 l 5
 541 1775 l 5
EndSplineSet
Validated: 3073
EndChar

StartChar: dblvertrtform
Encoding: 9568 9568 555
Width: 922
Flags: W
HStem: 283 160<701 922> 603 160<701 922>
VStem: 221 160<-615 1775> 541 381<283 443 603 763> 541 160<-615 283 763 1775>
LayerCount: 2
Fore
SplineSet
381 -615 m 1xe0
 221 -615 l 1
 221 1775 l 5
 381 1775 l 5
 381 -615 l 1xe0
922 603 m 1xf0
 541 603 l 1xf0
 541 1775 l 5
 701 1775 l 5
 701 763 l 1xe8
 922 763 l 1
 922 603 l 1xf0
701 283 m 1xe8
 701 -615 l 1
 541 -615 l 1xe8
 541 443 l 1
 922 443 l 1
 922 283 l 1xf0
 701 283 l 1xe8
EndSplineSet
Validated: 3073
EndChar

StartChar: vertleftdblform
Encoding: 9569 9569 556
Width: 922
Flags: W
HStem: 283 160<0 381> 603 160<0 381>
VStem: 381 160<-615 283 443 603 763 1775>
LayerCount: 2
Fore
SplineSet
541 -615 m 1
 381 -615 l 1
 381 283 l 1
 0 283 l 1
 -0 443 l 1
 381 443 l 1
 381 603 l 1
 0 603 l 1
 -0 763 l 1
 381 763 l 1
 381 1775 l 1
 541 1775 l 1
 541 -615 l 1
EndSplineSet
Validated: 3073
EndChar

StartChar: vertdblleftform
Encoding: 9570 9570 557
Width: 922
Flags: W
HStem: 443 160<0 221>
VStem: 221 160<-615 443 603 1775> 541 160<-615 1775>
LayerCount: 2
Fore
SplineSet
0 443 m 1
 -0 603 l 1
 221 603 l 1
 221 1775 l 1
 381 1775 l 1
 381 -615 l 1
 221 -615 l 1
 221 443 l 1
 0 443 l 1
701 -615 m 1
 541 -615 l 1
 541 1775 l 1
 701 1775 l 1
 701 -615 l 1
EndSplineSet
Validated: 3073
EndChar

StartChar: dblvertleftform
Encoding: 9571 9571 558
Width: 922
Flags: W
HStem: 283 160<0 221> 603 160<0 221>
VStem: -0 381<283 443 603 763> 221 160<-615 283 763 1775> 541 160<-615 1775>
LayerCount: 2
Fore
SplineSet
701 -615 m 1xc8
 541 -615 l 1
 541 1775 l 1
 701 1775 l 1
 701 -615 l 1xc8
221 763 m 1xd8
 221 1775 l 1
 381 1775 l 1xd8
 381 603 l 1
 -0 603 l 1
 0 763 l 1xe8
 221 763 l 1xd8
0 443 m 1xe8
 381 443 l 1xe8
 381 -615 l 1
 221 -615 l 1
 221 283 l 1xd8
 -0 283 l 1
 0 443 l 1xe8
EndSplineSet
Validated: 3073
EndChar

StartChar: dnhorizdblform
Encoding: 9572 9572 559
Width: 922
Flags: W
HStem: 283 160<0 381 541 922> 603 160<0 922>
VStem: 381 160<-615 283>
LayerCount: 2
Fore
SplineSet
541 -615 m 1
 381 -615 l 1
 381 283 l 1
 0 283 l 1
 -0 443 l 1
 922 443 l 1
 922 283 l 1
 541 283 l 1
 541 -615 l 1
0 603 m 1
 -0 763 l 1
 922 763 l 1
 922 603 l 1
 0 603 l 1
EndSplineSet
Validated: 3073
EndChar

StartChar: dndblhorizform
Encoding: 9573 9573 560
Width: 922
Flags: W
HStem: 443 160<0 221 381 541 701 922>
VStem: 221 160<-615 443> 541 160<-615 443>
LayerCount: 2
Fore
SplineSet
0 443 m 1
 -0 603 l 1
 922 603 l 1
 922 443 l 1
 701 443 l 1
 701 -615 l 1
 541 -615 l 1
 541 443 l 1
 381 443 l 1
 381 -615 l 1
 221 -615 l 1
 221 443 l 1
 0 443 l 1
EndSplineSet
Validated: 3073
EndChar

StartChar: dbldnhorizform
Encoding: 9574 9574 561
Width: 922
Flags: W
HStem: 283 160<0 221 701 922> 603 160<0 922>
VStem: 221 160<-615 283> 541 160<-615 283>
LayerCount: 2
Fore
SplineSet
0 603 m 1
 -0 763 l 1
 922 763 l 1
 922 603 l 1
 0 603 l 1
0 443 m 1
 381 443 l 1
 381 -615 l 1
 221 -615 l 1
 221 283 l 1
 -0 283 l 1
 0 443 l 1
701 283 m 1
 701 -615 l 1
 541 -615 l 1
 541 443 l 1
 922 443 l 1
 922 283 l 1
 701 283 l 1
EndSplineSet
Validated: 3073
EndChar

StartChar: uphorizdblform
Encoding: 9575 9575 562
Width: 922
Flags: W
HStem: 283 160<0 922> 603 160<0 381 541 922>
VStem: 381 160<763 1775>
LayerCount: 2
Fore
SplineSet
0 603 m 1
 -0 763 l 1
 381 763 l 1
 381 1775 l 1
 541 1775 l 1
 541 763 l 1
 922 763 l 1
 922 603 l 1
 0 603 l 1
0 283 m 1
 -0 443 l 1
 922 443 l 1
 922 283 l 1
 0 283 l 1
EndSplineSet
Validated: 3073
EndChar

StartChar: updblhorizform
Encoding: 9576 9576 563
Width: 922
Flags: W
HStem: 443 160<0 221 381 541 701 922>
VStem: 221 160<603 1775> 541 160<603 1775>
LayerCount: 2
Fore
SplineSet
0 443 m 1
 -0 603 l 1
 221 603 l 1
 221 1775 l 1
 381 1775 l 1
 381 603 l 1
 541 603 l 1
 541 1775 l 1
 701 1775 l 1
 701 603 l 1
 922 603 l 1
 922 443 l 1
 0 443 l 1
EndSplineSet
Validated: 3073
EndChar

StartChar: dbluphorizform
Encoding: 9577 9577 564
Width: 922
Flags: W
HStem: 283 160<0 922> 603 160<0 221 701 922>
VStem: 221 160<763 1775> 541 160<763 1775>
LayerCount: 2
Fore
SplineSet
221 763 m 1
 221 1775 l 1
 381 1775 l 1
 381 603 l 1
 -0 603 l 1
 0 763 l 1
 221 763 l 1
922 603 m 1
 541 603 l 1
 541 1775 l 1
 701 1775 l 1
 701 763 l 1
 922 763 l 1
 922 603 l 1
0 283 m 1
 -0 443 l 1
 922 443 l 1
 922 283 l 1
 0 283 l 1
EndSplineSet
Validated: 3073
EndChar

StartChar: verthorizdblform
Encoding: 9578 9578 565
Width: 922
Flags: W
HStem: 283 160<0 381 541 922> 603 160<0 381 541 922>
VStem: 381 160<-615 283 763 1775>
LayerCount: 2
Fore
SplineSet
0 603 m 1
 -0 763 l 1
 381 763 l 1
 381 1775 l 1
 541 1775 l 1
 541 763 l 1
 922 763 l 1
 922 603 l 1
 0 603 l 1
-0 443 m 1
 922 443 l 1
 922 283 l 1
 541 283 l 1
 541 -615 l 1
 381 -615 l 1
 381 283 l 1
 0 283 l 1
 -0 443 l 1
EndSplineSet
Validated: 3073
EndChar

StartChar: vertdblhorizform
Encoding: 9579 9579 566
Width: 922
Flags: W
HStem: 443 160<0 221 701 922>
VStem: 221 160<-615 443 603 1775> 541 160<-615 443 603 1775>
LayerCount: 2
Fore
SplineSet
541 1775 m 1
 701 1775 l 1
 701 603 l 1
 922 603 l 1
 922 443 l 1
 701 443 l 1
 701 -615 l 1
 541 -615 l 1
 541 1775 l 1
381 -615 m 1
 221 -615 l 1
 221 443 l 1
 0 443 l 1
 -0 603 l 1
 221 603 l 1
 221 1775 l 1
 381 1775 l 1
 381 -615 l 1
EndSplineSet
Validated: 3073
EndChar

StartChar: dblverthorizform
Encoding: 9580 9580 567
Width: 922
Flags: W
HStem: 283 160<0 221 701 922> 603 160<0 221 701 922>
VStem: -0 381<283 443 603 763> 221 160<-615 283 763 1775> 541 381<283 443 603 763> 541 160<-615 283 763 1775>
LayerCount: 2
Fore
SplineSet
221 763 m 1xd0
 221 1775 l 1
 381 1775 l 1xd0
 381 603 l 1
 -0 603 l 1
 0 763 l 1xe0
 221 763 l 1xd0
922 603 m 1xc8
 541 603 l 1xc8
 541 1775 l 1
 701 1775 l 1
 701 763 l 1xc4
 922 763 l 1
 922 603 l 1xc8
0 443 m 1xe0
 381 443 l 1xe0
 381 -615 l 1
 221 -615 l 1
 221 283 l 1xd0
 -0 283 l 1
 0 443 l 1xe0
701 283 m 1xc4
 701 -615 l 1
 541 -615 l 1xc4
 541 443 l 1
 922 443 l 1
 922 283 l 1xc8
 701 283 l 1xc4
EndSplineSet
Validated: 3073
EndChar

StartChar: upblock
Encoding: 9600 9600 568
Width: 922
Flags: W
VStem: -0 922<523 1775>
LayerCount: 2
Fore
SplineSet
922 523 m 1
 -0 523 l 1
 0 1775 l 1
 922 1775 l 1
 922 523 l 1
EndSplineSet
Validated: 3073
EndChar

StartChar: dnblock
Encoding: 9604 9604 569
Width: 922
Flags: W
HStem: -615 1138<0 922>
VStem: -0 922<-615 523>
LayerCount: 2
Fore
SplineSet
922 -615 m 1
 -0 -615 l 1
 -0 523 l 1
 922 523 l 1
 922 -615 l 1
EndSplineSet
Validated: 3073
EndChar

StartChar: block
Encoding: 9608 9608 570
Width: 922
Flags: W
VStem: -0 922<-615 1775>
LayerCount: 2
Fore
SplineSet
-0 -615 m 1
 0 1775 l 1
 922 1775 l 1
 922 -615 l 1
 -0 -615 l 1
EndSplineSet
Validated: 3073
EndChar

StartChar: lfblock
Encoding: 9612 9612 571
Width: 922
Flags: W
VStem: -0 461<-615 1775>
LayerCount: 2
Fore
SplineSet
-0 -615 m 1
 0 1775 l 1
 461 1775 l 1
 461 -615 l 1
 -0 -615 l 1
EndSplineSet
Validated: 3073
EndChar

StartChar: rtblock
Encoding: 9616 9616 572
Width: 922
Flags: W
VStem: 461 461<-615 1775>
LayerCount: 2
Fore
SplineSet
461 -615 m 1
 461 1775 l 1
 922 1775 l 1
 922 -615 l 1
 461 -615 l 1
EndSplineSet
Validated: 3073
EndChar

StartChar: shadelight
Encoding: 9617 9617 573
Width: 922
Flags: W
HStem: -514 100<153 230 461 540 769 846> -315 100<0 77 307 385 616 693> -115 99<153 230 461 540 769 846> 83 100<0 77 307 385 616 693> 283 99<153 230 461 540 769 846> 482 99<0 77 307 385 616 693> 681 100<153 230 461 540 769 846> 881 99<0 77 307 385 616 693> 1080 99<153 230 461 540 769 846> 1278 100<0 77 307 385 616 693> 1477 100<153 230 461 540 769 846> 1677 98<0 77 307 385 616 693>
VStem: 0 77<-315 -215 83 183 482 581 881 980 1278 1378 1677 1775> 153 77<-514 -414 -115 -16 283 382 681 781 1080 1179 1477 1577> 307 78<-315 -215 83 183 482 581 881 980 1278 1378 1677 1775> 461 79<-514 -414 -115 -16 283 382 681 781 1080 1179 1477 1577> 616 77<-315 -215 83 183 482 581 881 980 1278 1378 1677 1775> 769 77<-514 -414 -115 -16 283 382 681 781 1080 1179 1477 1577>
LayerCount: 2
Fore
SplineSet
0 1378 m 1
 77 1378 l 1
 77 1278 l 1
 0 1278 l 1
 0 1378 l 1
307 1378 m 1
 385 1378 l 1
 385 1278 l 1
 307 1278 l 1
 307 1378 l 1
616 1378 m 1
 693 1378 l 1
 693 1278 l 1
 616 1278 l 1
 616 1378 l 1
153 1179 m 1
 230 1179 l 1
 230 1080 l 1
 153 1080 l 1
 153 1179 l 1
461 1179 m 1
 540 1179 l 1
 540 1080 l 1
 461 1080 l 1
 461 1179 l 1
769 1179 m 1
 846 1179 l 1
 846 1080 l 1
 769 1080 l 1
 769 1179 l 1
616 980 m 1
 693 980 l 1
 693 881 l 1
 616 881 l 1
 616 980 l 1
307 980 m 1
 385 980 l 1
 385 881 l 1
 307 881 l 1
 307 980 l 1
0 980 m 1
 77 980 l 1
 77 881 l 1
 0 881 l 1
 0 980 l 1
769 781 m 1
 846 781 l 1
 846 681 l 1
 769 681 l 1
 769 781 l 1
461 781 m 1
 540 781 l 1
 540 681 l 1
 461 681 l 1
 461 781 l 1
153 781 m 1
 230 781 l 1
 230 681 l 1
 153 681 l 1
 153 781 l 1
0 581 m 1
 77 581 l 1
 77 482 l 1
 0 482 l 1
 0 581 l 1
307 581 m 1
 385 581 l 1
 385 482 l 1
 307 482 l 1
 307 581 l 1
616 581 m 1
 693 581 l 1
 693 482 l 1
 616 482 l 1
 616 581 l 1
769 382 m 1
 846 382 l 1
 846 283 l 1
 769 283 l 1
 769 382 l 1
461 382 m 1
 540 382 l 1
 540 283 l 1
 461 283 l 1
 461 382 l 1
153 382 m 1
 230 382 l 1
 230 283 l 1
 153 283 l 1
 153 382 l 1
0 183 m 1
 77 183 l 1
 77 83 l 1
 0 83 l 1
 0 183 l 1
307 183 m 1
 385 183 l 1
 385 83 l 1
 307 83 l 1
 307 183 l 1
616 183 m 1
 693 183 l 1
 693 83 l 1
 616 83 l 1
 616 183 l 1
153 -16 m 1
 230 -16 l 1
 230 -115 l 1
 153 -115 l 1
 153 -16 l 1
461 -16 m 1
 540 -16 l 1
 540 -115 l 1
 461 -115 l 1
 461 -16 l 1
769 -16 m 1
 846 -16 l 1
 846 -115 l 1
 769 -115 l 1
 769 -16 l 1
616 -215 m 1
 693 -215 l 1
 693 -315 l 1
 616 -315 l 1
 616 -215 l 1
307 -215 m 1
 385 -215 l 1
 385 -315 l 1
 307 -315 l 1
 307 -215 l 1
0 -215 m 1
 77 -215 l 1
 77 -315 l 1
 0 -315 l 1
 0 -215 l 1
153 -414 m 1
 230 -414 l 1
 230 -514 l 1
 153 -514 l 1
 153 -414 l 1
461 -414 m 1
 540 -414 l 1
 540 -514 l 1
 461 -514 l 1
 461 -414 l 1
769 -414 m 1
 846 -414 l 1
 846 -514 l 1
 769 -514 l 1
 769 -414 l 1
153 1577 m 1
 230 1577 l 1
 230 1477 l 1
 153 1477 l 1
 153 1577 l 1
461 1577 m 1
 540 1577 l 1
 540 1477 l 1
 461 1477 l 1
 461 1577 l 1
769 1577 m 1
 846 1577 l 1
 846 1477 l 1
 769 1477 l 1
 769 1577 l 1
0 1775 m 1
 77 1775 l 1
 77 1677 l 1
 0 1677 l 1
 0 1775 l 1
307 1775 m 1
 385 1775 l 1
 385 1677 l 1
 307 1677 l 1
 307 1775 l 1
616 1775 m 1
 693 1775 l 1
 693 1677 l 1
 616 1677 l 1
 616 1775 l 1
EndSplineSet
Validated: 3073
EndChar

StartChar: shademedium
Encoding: 9618 9618 574
Width: 922
Flags: W
HStem: -514 100<0 77 153 230 307 384 461 539 616 692 769 846> -315 100<77 153 230 307 384 461 539 616 692 769 846 922> -115 99<0 77 153 230 307 384 461 539 616 692 769 846> 83 100<77 153 230 307 384 461 539 616 692 769 846 922> 283 99<0 77 153 230 307 384 461 539 616 692 769 846> 482 99<77 153 230 307 384 461 539 616 692 769 846 922> 681 100<0 77 153 230 307 384 461 539 616 692 769 846> 881 99<77 153 230 307 384 461 539 616 692 769 846 922> 1080 99<0 77 153 230 307 384 461 539 616 692 769 846> 1278 100<77 153 230 307 384 461 539 616 692 769 846 922> 1477 100<0 77 153 230 307 384 461 539 616 692 769 846> 1677 98<77 153 230 307 384 461 539 616 692 769 846 922>
VStem: 0 77<-514 -414 -115 -16 283 382 681 781 1080 1179 1477 1577> 77 76<-315 -215 83 183 482 581 881 980 1278 1378 1677 1775> 153 77<-514 -414 -115 -16 283 382 681 781 1080 1179 1477 1577> 230 77<-315 -215 83 183 482 581 881 980 1278 1378 1677 1775> 307 77<-514 -414 -115 -16 283 382 681 781 1080 1179 1477 1577> 384 77<-315 -215 83 183 482 581 881 980 1278 1378 1677 1775> 461 78<-514 -414 -115 -16 283 382 681 781 1080 1179 1477 1577> 539 77<-315 -215 83 183 482 581 881 980 1278 1378 1677 1775> 616 76<-514 -414 -115 -16 283 382 681 781 1080 1179 1477 1577> 692 77<-315 -215 83 183 482 581 881 980 1278 1378 1677 1775> 769 77<-514 -414 -115 -16 283 382 681 781 1080 1179 1477 1577> 846 76<-315 -215 83 183 482 581 881 980 1278 1378 1677 1775>
LayerCount: 2
Fore
SplineSet
77 1378 m 1
 153 1378 l 1
 153 1278 l 1
 77 1278 l 1
 77 1378 l 1
230 1378 m 1
 307 1378 l 1
 307 1278 l 1
 230 1278 l 1
 230 1378 l 1
384 1378 m 1
 461 1378 l 1
 461 1278 l 1
 384 1278 l 1
 384 1378 l 1
539 1378 m 1
 616 1378 l 1
 616 1278 l 1
 539 1278 l 1
 539 1378 l 1
692 1378 m 1
 769 1378 l 1
 769 1278 l 1
 692 1278 l 1
 692 1378 l 1
846 1378 m 1
 922 1378 l 1
 922 1278 l 1
 846 1278 l 1
 846 1378 l 1
0 1179 m 1
 77 1179 l 1
 77 1080 l 1
 0 1080 l 1
 0 1179 l 1
153 1179 m 1
 230 1179 l 1
 230 1080 l 1
 153 1080 l 1
 153 1179 l 1
307 1179 m 1
 384 1179 l 1
 384 1080 l 1
 307 1080 l 1
 307 1179 l 1
461 1179 m 1
 539 1179 l 1
 539 1080 l 1
 461 1080 l 1
 461 1179 l 1
616 1179 m 1
 692 1179 l 1
 692 1080 l 1
 616 1080 l 1
 616 1179 l 1
769 1179 m 1
 846 1179 l 1
 846 1080 l 1
 769 1080 l 1
 769 1179 l 1
77 980 m 1
 153 980 l 1
 153 881 l 1
 77 881 l 1
 77 980 l 1
230 980 m 1
 307 980 l 1
 307 881 l 1
 230 881 l 1
 230 980 l 1
384 980 m 1
 461 980 l 1
 461 881 l 1
 384 881 l 1
 384 980 l 1
539 980 m 1
 616 980 l 1
 616 881 l 1
 539 881 l 1
 539 980 l 1
692 980 m 1
 769 980 l 1
 769 881 l 1
 692 881 l 1
 692 980 l 1
846 980 m 1
 922 980 l 1
 922 881 l 1
 846 881 l 1
 846 980 l 1
0 781 m 1
 77 781 l 1
 77 681 l 1
 0 681 l 1
 0 781 l 1
153 781 m 1
 230 781 l 1
 230 681 l 1
 153 681 l 1
 153 781 l 1
307 781 m 1
 384 781 l 1
 384 681 l 1
 307 681 l 1
 307 781 l 1
461 781 m 1
 539 781 l 1
 539 681 l 1
 461 681 l 1
 461 781 l 1
616 781 m 1
 692 781 l 1
 692 681 l 1
 616 681 l 1
 616 781 l 1
769 781 m 1
 846 781 l 1
 846 681 l 1
 769 681 l 1
 769 781 l 1
77 581 m 1
 153 581 l 1
 153 482 l 1
 77 482 l 1
 77 581 l 1
230 581 m 1
 307 581 l 1
 307 482 l 1
 230 482 l 1
 230 581 l 1
384 581 m 1
 461 581 l 1
 461 482 l 1
 384 482 l 1
 384 581 l 1
539 581 m 1
 616 581 l 1
 616 482 l 1
 539 482 l 1
 539 581 l 1
692 581 m 1
 769 581 l 1
 769 482 l 1
 692 482 l 1
 692 581 l 1
846 581 m 1
 922 581 l 1
 922 482 l 1
 846 482 l 1
 846 581 l 1
0 382 m 1
 77 382 l 1
 77 283 l 1
 0 283 l 1
 0 382 l 1
307 382 m 1
 384 382 l 1
 384 283 l 1
 307 283 l 1
 307 382 l 1
461 382 m 1
 539 382 l 1
 539 283 l 1
 461 283 l 1
 461 382 l 1
616 382 m 1
 692 382 l 1
 692 283 l 1
 616 283 l 1
 616 382 l 1
769 382 m 1
 846 382 l 1
 846 283 l 1
 769 283 l 1
 769 382 l 1
153 382 m 1
 230 382 l 1
 230 283 l 1
 153 283 l 1
 153 382 l 1
846 183 m 1
 922 183 l 1
 922 83 l 1
 846 83 l 1
 846 183 l 1
692 183 m 1
 769 183 l 1
 769 83 l 1
 692 83 l 1
 692 183 l 1
539 183 m 1
 616 183 l 1
 616 83 l 1
 539 83 l 1
 539 183 l 1
384 183 m 1
 461 183 l 1
 461 83 l 1
 384 83 l 1
 384 183 l 1
230 183 m 1
 307 183 l 1
 307 83 l 1
 230 83 l 1
 230 183 l 1
77 183 m 1
 153 183 l 1
 153 83 l 1
 77 83 l 1
 77 183 l 1
0 -16 m 1
 77 -16 l 1
 77 -115 l 1
 0 -115 l 1
 0 -16 l 1
153 -16 m 1
 230 -16 l 1
 230 -115 l 1
 153 -115 l 1
 153 -16 l 1
307 -16 m 1
 384 -16 l 1
 384 -115 l 1
 307 -115 l 1
 307 -16 l 1
461 -16 m 1
 539 -16 l 1
 539 -115 l 1
 461 -115 l 1
 461 -16 l 1
616 -16 m 1
 692 -16 l 1
 692 -115 l 1
 616 -115 l 1
 616 -16 l 1
769 -16 m 1
 846 -16 l 1
 846 -115 l 1
 769 -115 l 1
 769 -16 l 1
846 -215 m 1
 922 -215 l 1
 922 -315 l 1
 846 -315 l 1
 846 -215 l 1
692 -215 m 1
 769 -215 l 1
 769 -315 l 1
 692 -315 l 1
 692 -215 l 1
539 -215 m 1
 616 -215 l 1
 616 -315 l 1
 539 -315 l 1
 539 -215 l 1
384 -215 m 1
 461 -215 l 1
 461 -315 l 1
 384 -315 l 1
 384 -215 l 1
230 -215 m 1
 307 -215 l 1
 307 -315 l 1
 230 -315 l 1
 230 -215 l 1
77 -215 m 1
 153 -215 l 1
 153 -315 l 1
 77 -315 l 1
 77 -215 l 1
0 -414 m 1
 77 -414 l 1
 77 -514 l 1
 0 -514 l 1
 0 -414 l 1
153 -414 m 1
 230 -414 l 1
 230 -514 l 1
 153 -514 l 1
 153 -414 l 1
307 -414 m 1
 384 -414 l 1
 384 -514 l 1
 307 -514 l 1
 307 -414 l 1
461 -414 m 1
 539 -414 l 1
 539 -514 l 1
 461 -514 l 1
 461 -414 l 1
616 -414 m 1
 692 -414 l 1
 692 -514 l 1
 616 -514 l 1
 616 -414 l 1
769 -414 m 1
 846 -414 l 1
 846 -514 l 1
 769 -514 l 1
 769 -414 l 1
0 1577 m 1
 77 1577 l 1
 77 1477 l 1
 0 1477 l 1
 0 1577 l 1
153 1577 m 1
 230 1577 l 1
 230 1477 l 1
 153 1477 l 1
 153 1577 l 1
307 1577 m 1
 384 1577 l 1
 384 1477 l 1
 307 1477 l 1
 307 1577 l 1
461 1577 m 1
 539 1577 l 1
 539 1477 l 1
 461 1477 l 1
 461 1577 l 1
616 1577 m 1
 692 1577 l 1
 692 1477 l 1
 616 1477 l 1
 616 1577 l 1
769 1577 m 1
 846 1577 l 1
 846 1477 l 1
 769 1477 l 1
 769 1577 l 1
77 1775 m 1
 153 1775 l 1
 153 1677 l 1
 77 1677 l 1
 77 1775 l 1
230 1775 m 1
 307 1775 l 1
 307 1677 l 1
 230 1677 l 1
 230 1775 l 1
384 1775 m 1
 461 1775 l 1
 461 1677 l 1
 384 1677 l 1
 384 1775 l 1
539 1775 m 1
 616 1775 l 1
 616 1677 l 1
 539 1677 l 1
 539 1775 l 1
692 1775 m 1
 769 1775 l 1
 769 1677 l 1
 692 1677 l 1
 692 1775 l 1
846 1775 m 1
 922 1775 l 1
 922 1677 l 1
 846 1677 l 1
 846 1775 l 1
EndSplineSet
Validated: 3073
EndChar

StartChar: shadedark
Encoding: 9619 9619 575
Width: 922
Flags: W
HStem: -615 300<0 77 153 230 307 384 461 539 616 692 769 846> -615 101<77 153 230 307 384 461 539 616 692 769 846 922> -414 299<77 153 230 307 384 461 539 616 692 769 846 922> -215 299<0 77 153 230 307 384 461 539 616 692 769 846> -16 299<77 153 230 307 384 461 539 616 692 769 846 922> 183 299<0 77 153 230 307 384 461 539 616 692 769 846> 382 299<77 153 230 307 384 461 539 616 692 769 846 922> 581 299<0 77 153 230 307 384 461 539 616 692 769 846> 781 299<77 153 230 307 384 461 539 616 692 769 846 922> 980 299<0 77 153 230 307 384 461 539 616 692 769 846> 1179 299<77 153 230 307 384 461 539 616 692 769 846 922> 1378 299<0 77 153 230 307 384 461 539 616 692 769 846> 1577 198<77 153 230 307 384 461 539 616 692 769 846 922>
VStem: 0 77<-514 -414 -115 -16 283 382 681 781 1080 1179 1478 1577> 77 76<-315 -215 84 183 482 581 881 980 1279 1378 1677 1775> 153 77<-514 -414 -115 -16 283 382 681 781 1080 1179 1478 1577> 230 77<-315 -215 84 183 482 581 880 980 1279 1378 1677 1775> 307 77<-514 -414 -115 -16 283 382 681 781 1080 1179 1478 1577> 384 77<-315 -215 84 183 482 581 880 980 1279 1378 1677 1775> 461 78<-514 -414 -115 -16 283 382 681 781 1080 1179 1478 1577> 539 77<-315 -215 84 183 482 581 880 980 1279 1378 1677 1775> 616 76<-514 -414 -115 -16 283 382 681 781 1080 1179 1478 1577> 692 77<-315 -215 84 183 482 581 880 980 1279 1378 1677 1775> 769 77<-514 -414 -115 -16 283 382 681 781 1080 1179 1478 1577> 846 76<-315 -215 84 183 482 581 880 980 1279 1378 1677 1775>
LayerCount: 2
Fore
SplineSet
922 1577 m 1x000fff80
 846 1577 l 1
 846 1478 l 1
 922 1478 l 1
 922 1179 l 1
 846 1179 l 1
 846 1080 l 1
 922 1080 l 1
 922 781 l 1
 846 781 l 1
 846 681 l 1
 922 681 l 1
 922 382 l 1
 846 382 l 1
 846 283 l 1
 922 283 l 1
 922 -16 l 1
 846 -16 l 1
 846 -115 l 1
 922 -115 l 1
 922 -414 l 1
 846 -414 l 1
 846 -514 l 1
 922 -514 l 1
 922 -615 l 1x6aafff80
 0 -615 l 1
 0 -315 l 1
 77 -315 l 1
 77 -215 l 1
 0 -215 l 1
 0 83 l 1
 77 83 l 1
 77 183 l 1
 0 183 l 1
 0 482 l 1
 77 482 l 1
 77 581 l 1
 0 581 l 1
 0 881 l 1
 77 881 l 1
 77 980 l 1
 0 980 l 1
 0 1279 l 1
 77 1279 l 1
 77 1378 l 1
 0 1378 l 1
 0 1677 l 1
 77 1677 l 1x9557ff80
 77 1775 l 1
 153 1775 l 1x000fff80
 153 1677 l 1
 230 1677 l 1x0017ff80
 230 1775 l 1
 307 1775 l 1x000fff80
 307 1677 l 1
 384 1677 l 1x0017ff80
 384 1775 l 1
 461 1775 l 1x000fff80
 461 1677 l 1
 539 1677 l 1x0017ff80
 539 1775 l 1
 616 1775 l 1x000fff80
 616 1677 l 1
 692 1677 l 1x0017ff80
 692 1775 l 1
 769 1775 l 1x000fff80
 769 1677 l 1
 846 1677 l 1x0017ff80
 846 1775 l 1
 922 1775 l 1
 922 1577 l 1x000fff80
77 1179 m 1
 77 1080 l 1
 153 1080 l 1
 153 1179 l 1
 77 1179 l 1
230 1179 m 1
 230 1080 l 1
 307 1080 l 1
 307 1179 l 1
 230 1179 l 1
384 1179 m 1
 384 1080 l 1
 461 1080 l 1
 461 1179 l 1
 384 1179 l 1
539 1179 m 1
 539 1080 l 1
 616 1080 l 1
 616 1179 l 1
 539 1179 l 1
692 1179 m 1
 692 1080 l 1
 769 1080 l 1
 769 1179 l 1
 692 1179 l 1
846 980 m 1x0147ff80
 769 980 l 1
 769 880 l 1
 846 880 l 1
 846 980 l 1x0147ff80
692 980 m 1
 616 980 l 1
 616 880 l 1
 692 880 l 1
 692 980 l 1
539 980 m 1
 461 980 l 1
 461 880 l 1
 539 880 l 1
 539 980 l 1
384 980 m 1
 307 980 l 1
 307 880 l 1
 384 880 l 1
 384 980 l 1
230 980 m 1
 153 980 l 1
 153 880 l 1
 230 880 l 1
 230 980 l 1
77 781 m 1x0287ff80
 77 681 l 1
 153 681 l 1
 153 781 l 1
 77 781 l 1x0287ff80
230 781 m 1
 230 681 l 1
 307 681 l 1
 307 781 l 1
 230 781 l 1
384 781 m 1
 384 681 l 1
 461 681 l 1
 461 781 l 1
 384 781 l 1
539 781 m 1
 539 681 l 1
 616 681 l 1
 616 781 l 1
 539 781 l 1
692 781 m 1
 692 681 l 1
 769 681 l 1
 769 781 l 1
 692 781 l 1
230 581 m 1x0507ff80
 153 581 l 1
 153 482 l 1
 230 482 l 1
 230 581 l 1x0507ff80
307 581 m 1
 307 482 l 1
 384 482 l 1
 384 581 l 1
 307 581 l 1
461 581 m 1
 461 482 l 1
 539 482 l 1
 539 581 l 1
 461 581 l 1
616 581 m 1
 616 482 l 1
 692 482 l 1
 692 581 l 1
 616 581 l 1
769 581 m 1
 769 482 l 1
 846 482 l 1
 846 581 l 1
 769 581 l 1
77 382 m 1x0a07ff80
 77 283 l 1
 153 283 l 1
 153 382 l 1
 77 382 l 1x0a07ff80
384 382 m 1
 384 283 l 1
 461 283 l 1
 461 382 l 1
 384 382 l 1
307 283 m 1
 307 382 l 1
 230 382 l 1
 230 283 l 1
 307 283 l 1
539 382 m 1
 539 283 l 1
 616 283 l 1
 616 382 l 1
 539 382 l 1
692 382 m 1
 692 283 l 1
 769 283 l 1
 769 382 l 1
 692 382 l 1
846 84 m 1x1407ff80
 846 183 l 1
 769 183 l 1
 769 84 l 1
 846 84 l 1x1407ff80
692 84 m 1
 692 183 l 1
 616 183 l 1
 616 84 l 1
 692 84 l 1
539 84 m 1
 539 183 l 1
 461 183 l 1
 461 84 l 1
 539 84 l 1
384 84 m 1
 384 183 l 1
 307 183 l 1
 307 84 l 1
 384 84 l 1
230 84 m 1
 230 183 l 1
 153 183 l 1
 153 84 l 1
 230 84 l 1
77 -16 m 1x2807ff80
 77 -115 l 1
 153 -115 l 1
 153 -16 l 1
 77 -16 l 1x2807ff80
230 -16 m 1
 230 -115 l 1
 307 -115 l 1
 307 -16 l 1
 230 -16 l 1
384 -16 m 1
 384 -115 l 1
 461 -115 l 1
 461 -16 l 1
 384 -16 l 1
539 -16 m 1
 539 -115 l 1
 616 -115 l 1
 616 -16 l 1
 539 -16 l 1
692 -16 m 1
 692 -115 l 1
 769 -115 l 1
 769 -16 l 1
 692 -16 l 1
846 -315 m 1x9007ff80
 846 -215 l 1
 769 -215 l 1
 769 -315 l 1
 846 -315 l 1x9007ff80
692 -315 m 1
 692 -215 l 1
 616 -215 l 1
 616 -315 l 1
 692 -315 l 1
539 -315 m 1
 539 -215 l 1
 461 -215 l 1
 461 -315 l 1
 539 -315 l 1
384 -315 m 1
 384 -215 l 1
 307 -215 l 1
 307 -315 l 1
 384 -315 l 1
230 -315 m 1
 230 -215 l 1
 153 -215 l 1
 153 -315 l 1
 230 -315 l 1
77 -414 m 1x6007ff80
 77 -514 l 1
 153 -514 l 1
 153 -414 l 1
 77 -414 l 1x6007ff80
230 -414 m 1
 230 -514 l 1
 307 -514 l 1
 307 -414 l 1
 230 -414 l 1
384 -414 m 1
 384 -514 l 1
 461 -514 l 1
 461 -414 l 1
 384 -414 l 1
539 -414 m 1
 539 -514 l 1
 616 -514 l 1
 616 -414 l 1
 539 -414 l 1
692 -414 m 1
 692 -514 l 1
 769 -514 l 1
 769 -414 l 1
 692 -414 l 1
846 1378 m 1x0057ff80
 769 1378 l 1
 769 1279 l 1
 846 1279 l 1
 846 1378 l 1x0057ff80
692 1378 m 1
 616 1378 l 1
 616 1279 l 1
 692 1279 l 1
 692 1378 l 1
539 1378 m 1
 461 1378 l 1
 461 1279 l 1
 539 1279 l 1
 539 1378 l 1
384 1378 m 1
 307 1378 l 1
 307 1279 l 1
 384 1279 l 1
 384 1378 l 1
230 1378 m 1
 153 1378 l 1
 153 1279 l 1
 230 1279 l 1
 230 1378 l 1
769 1577 m 1x002fff80
 692 1577 l 1
 692 1478 l 1
 769 1478 l 1
 769 1577 l 1x002fff80
616 1577 m 1
 539 1577 l 1
 539 1478 l 1
 616 1478 l 1
 616 1577 l 1
461 1577 m 1
 384 1577 l 1
 384 1478 l 1
 461 1478 l 1
 461 1577 l 1
307 1577 m 1
 230 1577 l 1
 230 1478 l 1
 307 1478 l 1
 307 1577 l 1
153 1577 m 1
 77 1577 l 1
 77 1478 l 1
 153 1478 l 1
 153 1577 l 1
EndSplineSet
Validated: 3073
EndChar

StartChar: blacksquare
Encoding: 9632 9632 576
Width: 922
Flags: W
HStem: 116 992<0 922>
VStem: 0 922<116 1108>
LayerCount: 2
Fore
SplineSet
0 1108 m 5
 922 1108 l 5
 922 116 l 5
 0 116 l 5
 0 1108 l 5
EndSplineSet
Validated: 3073
EndChar

StartChar: whitesquare
Encoding: 9633 9633 577
Width: 922
Flags: W
HStem: 116 192<187 734> 917 192<187 734>
VStem: 0 187<308 917> 734 188<308 917>
LayerCount: 2
Fore
SplineSet
0 1109 m 1
 922 1109 l 1
 922 116 l 1
 0 116 l 1
 0 1109 l 1
187 917 m 1
 187 308 l 1
 734 308 l 1
 734 917 l 1
 187 917 l 1
EndSplineSet
Validated: 3073
EndChar

StartChar: blacksmallsquare
Encoding: 9642 9642 578
Width: 922
Flags: W
HStem: 400 473<224 697>
VStem: 224 473<400 873>
LayerCount: 2
Fore
SplineSet
697 400 m 1
 224 400 l 1
 224 873 l 1
 697 873 l 1
 697 400 l 1
EndSplineSet
Validated: 3073
EndChar

StartChar: whitesmallsquare
Encoding: 9643 9643 579
Width: 922
Flags: W
HStem: 400 114<342 579> 759 114<342 579>
VStem: 224 118<514 759> 579 118<514 759>
LayerCount: 2
Fore
SplineSet
697 400 m 1
 224 400 l 1
 224 873 l 1
 697 873 l 1
 697 400 l 1
579 514 m 1
 579 759 l 1
 342 759 l 1
 342 514 l 1
 579 514 l 1
EndSplineSet
Validated: 3073
EndChar

StartChar: blackrectangle
Encoding: 9644 9644 580
Width: 922
Flags: W
HStem: 395 231<0 922>
LayerCount: 2
Fore
SplineSet
0 626 m 1
 922 626 l 5
 922 395 l 5
 0 395 l 1
 0 626 l 1
EndSplineSet
Validated: 3073
EndChar

StartChar: triagup
Encoding: 9650 9650 581
Width: 922
Flags: W
LayerCount: 2
Fore
SplineSet
0 114 m 1
 460 914 l 1
 922 114 l 1
 0 114 l 1
EndSplineSet
Validated: 3073
EndChar

StartChar: triagrt
Encoding: 9658 9658 582
Width: 922
Flags: W
LayerCount: 2
Fore
SplineSet
63 -63 m 1
 61 860 l 1
 861 398 l 1
 63 -63 l 1
EndSplineSet
Validated: 3073
EndChar

StartChar: triagdn
Encoding: 9660 9660 583
Width: 922
Flags: W
LayerCount: 2
Fore
SplineSet
922 914 m 1
 462 114 l 1
 0 914 l 1
 922 914 l 1
EndSplineSet
Validated: 3073
EndChar

StartChar: triaglf
Encoding: 9668 9668 584
Width: 922
Flags: W
LayerCount: 2
Fore
SplineSet
62 398 m 1
 860 861 l 1
 860 -63 l 1
 62 398 l 1
EndSplineSet
Validated: 3073
EndChar

StartChar: lozenge
Encoding: 9674 9674 585
Width: 922
Flags: W
LayerCount: 2
Fore
SplineSet
501 1287 m 1
 834 709 l 1
 501 135 l 1
 411 135 l 1
 89 709 l 1
 411 1287 l 1
 501 1287 l 1
458 1059 m 1
 261 710 l 1
 458 361 l 1
 657 710 l 1
 458 1059 l 1
EndSplineSet
Validated: 3073
EndChar

StartChar: whitecircle
Encoding: 9675 9675 586
Width: 922
Flags: W
HStem: 221 150<334.35 586.595> 784 150<333.91 587.132>
VStem: 104 150<452.439 703.668> 668 150<451.815 701.975>
LayerCount: 2
Fore
SplineSet
461 934 m 0
 663 934 818 770 818 578 c 0
 818 377 658 221 461 221 c 0
 258 221 104 381 104 578 c 0
 104 763 251 934 461 934 c 0
461 784 m 0
 341 784 254 688 254 578 c 0
 254 453 355 371 461 371 c 256
 577 371 668 463 668 578 c 0
 668 683 584 784 461 784 c 0
EndSplineSet
Validated: 3073
EndChar

StartChar: blackcircle
Encoding: 9679 9679 587
Width: 922
Flags: W
HStem: 221 713<292.824 631.094>
VStem: 104 714<407.906 745.646>
LayerCount: 2
Fore
SplineSet
461 934 m 0
 663 934 818 770 818 578 c 0
 818 377 658 221 461 221 c 0
 258 221 104 381 104 578 c 0
 104 763 251 934 461 934 c 0
EndSplineSet
Validated: 3073
EndChar

StartChar: bulletinverse
Encoding: 9688 9688 588
Width: 922
Flags: W
HStem: 93 233<349.866 570.042> 654 233<348.321 570.836>
VStem: 63 234<377.577 601.629> 624 233<379.561 603.315>
LayerCount: 2
Fore
SplineSet
63 93 m 1
 63 887 l 1
 857 887 l 1
 857 93 l 1
 63 93 l 1
460 654 m 256
 372 654 297 584 297 490 c 0
 297 394 376 326 460 326 c 0
 550 326 624 399 624 490 c 0
 624 581 552 654 460 654 c 256
EndSplineSet
Validated: 3073
EndChar

StartChar: whitecircleinverse
Encoding: 9689 9689 589
Width: 922
Flags: W
HStem: 110 111<289.809 635.959> 371 413<335.607 588.433> 934 111<293.797 632.866>
VStem: 0 105<406.695 749.753> 255 413<448.029 702.431> 818 104<402.264 747.094>
CounterMasks: 1 e0
LayerCount: 2
Fore
SplineSet
0 110 m 1
 0 1045 l 1
 922 1045 l 1
 922 110 l 1
 0 110 l 1
461 934 m 0
 270 934 105 780 105 577 c 0
 105 379 261 221 461 221 c 0
 652 221 818 369 818 577 c 0
 818 774 662 934 461 934 c 0
462 784 m 0
 577 784 668 691 668 577 c 0
 668 459 574 371 462 371 c 0
 349 371 255 459 255 577 c 0
 255 695 351 784 462 784 c 0
EndSplineSet
Validated: 3073
EndChar

StartChar: whitebullet
Encoding: 9702 9702 590
Width: 922
Flags: W
HStem: 406 113<368.896 552.757> 754 113<368.685 552.223>
VStem: 230 113<545.062 727.979> 579 112<546.84 727.446>
LayerCount: 2
Fore
SplineSet
691 637 m 0
 691 499 580 406 460 406 c 256
 333 406 230 507 230 637 c 0
 230 765 332 867 460 867 c 0
 591 867 691 764 691 637 c 0
579 637 m 0
 579 705 524 754 460 754 c 256
 399 754 343 707 343 637 c 0
 343 566 399 519 460 519 c 256
 526 519 579 571 579 637 c 0
EndSplineSet
Validated: 3073
EndChar

StartChar: smileface
Encoding: 9786 9786 591
Width: 922
Flags: W
HStem: 124 126<298.564 622.839> 338 54<371.617 548.201> 608 114<255.697 366.296 555.643 665.674> 919 126<293.127 624.394>
VStem: -0 127<417.754 749.129> 254 114<609.589 720.417> 554 113<609.487 720.519> 795 126<419.528 752.828>
LayerCount: 2
Fore
SplineSet
921 584 m 0
 921 327 719 124 460 124 c 0
 202 124 0 329 -0 584 c 0
 0 850 212 1045 460 1045 c 0
 719 1045 921 841 921 584 c 0
795 584 m 0
 795 771 649 919 460 919 c 0
 272 919 127 770 127 584 c 0
 127 390 282 250 460 250 c 0
 642 250 795 392 795 584 c 0
368 666 m 256
 368 634 343 608 310 608 c 256
 278 608 254 636 254 666 c 256
 254 694 277 722 310 722 c 256
 344 722 368 695 368 666 c 256
667 666 m 256
 667 634 644 608 612 608 c 256
 578 608 554 634 554 666 c 256
 554 696 577 722 612 722 c 256
 644 722 667 696 667 666 c 256
280 458 m 1
 319 480 l 1
 351 422 398 392 460 392 c 256
 523 392 570 422 602 480 c 1
 641 458 l 1
 600 378 539 338 460 338 c 0
 363 338 310 401 280 458 c 1
EndSplineSet
Validated: 3073
EndChar

StartChar: invsmileface
Encoding: 9787 9787 592
Width: 922
Flags: W
HStem: 124 171<330.15 591.942> 738 307<261.901 661.515>
VStem: -0 226<494.273 736.313> 343 236<622.894 736.048> 695 226<493.852 734.781>
LayerCount: 2
Fore
SplineSet
921 584 m 0
 921 327 719 124 460 124 c 0
 202 124 0 329 -0 584 c 0
 0 850 212 1045 460 1045 c 0
 719 1045 921 841 921 584 c 0
343 680 m 256
 343 710 318 738 284 738 c 256
 250 738 226 709 226 680 c 256
 226 650 251 621 284 621 c 256
 317 621 343 648 343 680 c 256
695 680 m 256
 695 711 672 738 638 738 c 256
 603 738 579 711 579 680 c 256
 579 648 604 621 638 621 c 256
 671 621 695 648 695 680 c 256
248 436 m 1
 283 369 346 295 460 295 c 0
 575 295 637 368 673 436 c 1
 627 462 l 1
 589 393 534 358 460 358 c 256
 387 358 332 393 294 462 c 1
 248 436 l 1
EndSplineSet
Validated: 3073
EndChar

StartChar: compass
Encoding: 9788 9788 593
Width: 922
Flags: W
HStem: 448 46<0 162 760 922> 722 47<486 563.283>
VStem: 162 48<494 578.675> 436 50<10 176.035 769 932> 710 50<492 580.419>
LayerCount: 2
Fore
SplineSet
436 932 m 1
 486 932 l 1
 486 769 l 1
 555 769 606 738 654 701 c 1
 795 838 l 1
 828 804 l 1
 690 665 l 1
 734 607 760 549 760 492 c 1
 922 492 l 1
 922 448 l 1
 760 448 l 1
 753 388 730 330 691 280 c 1
 828 137 l 1
 793 105 l 1
 654 242 l 1
 598 200 556 181 486 173 c 1
 486 10 l 1
 436 10 l 1
 436 173 l 1
 373 182 318 205 269 240 c 1
 127 106 l 1
 95 139 l 1
 232 278 l 1
 192 329 169 385 162 448 c 1
 -0 448 l 1
 -0 494 l 1
 162 494 l 1
 162 558 191 614 231 663 c 1
 95 802 l 1
 125 839 l 1
 268 702 l 1
 325 741 382 763 436 769 c 1
 436 932 l 1
460 722 m 256
 316 722 210 607 210 471 c 0
 210 332 318 221 460 221 c 256
 604 221 710 335 710 471 c 0
 710 611 599 722 460 722 c 256
EndSplineSet
Validated: 3073
EndChar

StartChar: female
Encoding: 9792 9792 594
Width: 922
Flags: W
HStem: 343 69<175 426 499 747> 577 81<346.207 426 499 579.178> 1069 84<343.449 581.435>
VStem: 183 79<741.948 982.372> 426 73<80 343 412 583.449> 661 80<741.559 986.112>
LayerCount: 2
Fore
SplineSet
426 577 m 1
 287 597 183 715 183 862 c 0
 183 1037 317 1153 462 1153 c 0
 608 1153 741 1035 741 862 c 0
 741 704 628 594 499 577 c 1
 499 412 l 1
 747 412 l 1
 747 343 l 1
 499 343 l 1
 499 80 l 1
 426 80 l 1
 426 343 l 1
 175 343 l 1
 175 412 l 1
 426 412 l 1
 426 577 l 1
461 1069 m 0
 351 1069 262 979 262 864 c 256
 262 747 352 658 461 658 c 256
 568 658 661 744 661 864 c 256
 661 983 569 1069 461 1069 c 0
EndSplineSet
Validated: 3073
EndChar

